<?xml version="1.0" encoding="UTF-8"?>
<svg width="392px" height="472px" viewBox="0 0 392 472" version="1.1" xmlns="http://www.w3.org/2000/svg" xmlns:xlink="http://www.w3.org/1999/xlink">
    <!-- Generator: Sketch 57.1 (83088) - https://sketch.com -->
    <title>about-team</title>
    <desc>Created with Sketch.</desc>
    <defs>
        <path d="M223.5,453.67897 C413.816594,377.577982 447,352.119473 447,226.839485 C447,101.559497 346.935642,0 223.5,0 C100.064358,0 0,101.559497 0,226.839485 C0,352.119473 33.1834061,529.779959 223.5,453.67897 Z" id="path-1"></path>
    </defs>
    <g id="nanny-scheduler" stroke="none" stroke-width="1" fill="none" fill-rule="evenodd">
        <g id="nanny-about-page" transform="translate(-632.000000, -114.000000)">
            <g id="header-about-section" transform="translate(79.000000, 114.000000)">
                <g id="about-team" transform="translate(553.000000, 0.000000)">
                    <mask id="mask-2" fill="white">
                        <use xlink:href="#path-1"></use>
                    </mask>
                    <use id="Mask" fill="#D8D8D8" xlink:href="#path-1"></use>
                    <g mask="url(#mask-2)" id="2887932">
                        <g transform="translate(-210.000000, 71.000000)">
                            <g>
                                <path d="M600.602,12.136 C589.578,11.291 578.466,12.03 567.607,14.626 C524.287,24.979 492.517,60.799 463.192,94.322 C433.867,127.845 400.663,162.884 356.803,170.636 C321.216,176.927 284.744,163.871 248.766,167.271 C213.241,170.628 180.989,189.829 153.824,212.967 C133.144,230.582 114.389,250.89 90.856,264.461 C67.324,278.033 36.9,283.827 13.227,270.502 C8.735,267.973 4.639,264.842 0.602,261.62 L0.602,329.599 L600.602,329.599 L600.602,12.136" id="Fill-9" fill="#EEF7F8"></path>
                                <path d="M600.602,46.229 C577.704,39.099 553.444,36.167 529.573,37.951 C465.245,42.761 405.234,79.474 366.771,131.26 C352.629,150.3 341.172,171.249 326.617,189.974 C272.394,259.728 173.797,291.394 89.098,266.257 C73.627,261.666 58.488,255.275 45.685,245.45 C33.972,236.462 24.364,224.729 11.672,217.187 C8.272,215.167 4.501,213.549 0.602,212.43 L0.602,329.599 L600.602,329.599 L600.602,46.229" id="Fill-10" fill="#DDECE4"></path>
                                <path d="M279.058,329.599 L600.602,329.599 L600.602,129.474 C551.765,113.29 497.332,111.493 451.432,133.891 C406.216,155.956 374.516,198.261 348.177,241.129 C328.443,273.249 309.578,307.773 279.058,329.599" id="Fill-12" fill="#C7E2DF"></path>
                                <path d="M442.445,291.142 C442.445,294.876 424.576,297.902 402.533,297.902 C380.49,297.902 362.62,294.876 362.62,291.142 C362.62,287.408 380.49,284.381 402.533,284.381 C424.576,284.381 442.445,287.408 442.445,291.142" id="Fill-13" fill="#9CBBB4"></path>
                                <path d="M315.436,285.881 C315.436,289.614 297.567,292.641 275.524,292.641 C253.48,292.641 235.611,289.614 235.611,285.881 C235.611,282.147 253.48,279.12 275.524,279.12 C297.567,279.12 315.436,282.147 315.436,285.881" id="Fill-14" fill="#9CBBB4"></path>
                                <path d="M554.16,276.541 C554.16,279.94 538.978,282.696 520.25,282.696 C501.522,282.696 486.341,279.94 486.341,276.541 C486.341,273.141 501.522,270.386 520.25,270.386 C538.978,270.386 554.16,273.141 554.16,276.541" id="Fill-15" fill="#9CBBB4"></path>
                                <path d="M354.948,165.04 C348.932,159.024 348.933,149.271 354.948,143.256 C360.963,137.241 370.716,137.241 376.731,143.256 C378.835,145.359 380.185,147.923 380.818,150.621 L404.979,126.46 L381.193,102.674 C384.173,102.135 387.025,100.721 389.329,98.417 C395.344,92.402 395.344,82.65 389.329,76.634 C383.314,70.619 373.561,70.619 367.546,76.634 C365.242,78.938 363.828,81.79 363.289,84.77 L338.562,60.043 L283.381,115.224 C277.176,121.429 277.176,131.49 283.381,137.696 L338.562,192.876 L362.312,169.126 C359.615,168.494 357.051,167.143 354.948,165.04" id="Fill-16" fill="#64BAB8"></path>
                                <path d="M447.661,169.143 C447.174,172.251 445.748,175.242 443.353,177.637 C437.338,183.652 427.585,183.653 421.57,177.637 C415.554,171.622 415.554,161.869 421.57,155.854 C423.965,153.458 426.956,152.033 430.064,151.546 L404.979,126.46 L380.818,150.621 C380.185,147.923 378.835,145.359 376.731,143.256 C370.716,137.241 360.963,137.241 354.948,143.256 C348.933,149.271 348.932,159.024 354.948,165.04 C357.051,167.143 359.615,168.494 362.312,169.126 L338.562,192.876 L393.743,248.057 C399.948,254.263 410.009,254.263 416.215,248.057 L471.395,192.876 L447.661,169.143" id="Fill-17" fill="#AFD5BF"></path>
                                <path d="M455.951,89.232 C453.344,86.625 450.035,85.153 446.633,84.805 L471.395,60.043 L416.215,4.862 C410.009,-1.343 399.948,-1.343 393.743,4.862 L338.562,60.043 L363.289,84.77 C363.828,81.79 365.242,78.938 367.546,76.634 C373.561,70.619 383.314,70.619 389.329,76.634 C395.344,82.65 395.344,92.402 389.329,98.417 C387.025,100.721 384.173,102.135 381.193,102.674 L404.979,126.46 L429.741,101.698 C430.088,105.1 431.561,108.409 434.168,111.015 C440.183,117.031 449.936,117.031 455.951,111.015 C461.966,105 461.966,95.247 455.951,89.232" id="Fill-18" fill="#FCE788"></path>
                                <path d="M526.576,137.696 C532.782,131.49 532.782,121.429 526.576,115.224 L471.395,60.043 L446.633,84.805 C450.035,85.153 453.344,86.625 455.951,89.232 C461.966,95.247 461.966,105 455.951,111.015 C449.936,117.031 440.183,117.031 434.168,111.015 C431.561,108.409 430.088,105.1 429.741,101.698 L404.979,126.46 L430.064,151.546 C426.956,152.033 423.965,153.458 421.57,155.854 C415.554,161.869 415.554,171.622 421.57,177.637 C427.585,183.653 437.338,183.652 443.353,177.637 C445.748,175.242 447.174,172.251 447.661,169.143 L471.395,192.876 L526.576,137.696" id="Fill-19" fill="#ED9B4D"></path>
                                <path d="M526.721,137.535 C524.766,134.681 522.612,130.93 522.008,127.546 C520.83,120.954 518.006,110.597 507.412,110.597 C505.693,110.597 504.247,110.864 503.018,111.333 C497.708,102.153 492.817,93.647 492.817,93.647 C492.817,93.647 492.307,93.969 491.575,94.449 C492.167,90.478 490.87,85.598 490.035,84.794 C489.001,83.799 487.751,83.786 487.751,83.786 C486.674,83.115 485.26,83.824 485.26,83.824 C485.26,83.824 484.208,82.704 483.282,83.09 C482.357,83.476 482.534,84.72 482.534,84.72 C482.534,84.72 481.538,85.243 481.374,85.965 C481.209,86.687 484.322,91.638 484.322,91.638 C483.246,90.966 480.876,90.606 480.554,91.477 C480.233,92.348 481.771,92.51 483.654,93.828 C485.536,95.147 486.87,97.622 486.87,97.622 C486.87,97.622 486.902,97.68 486.961,97.771 C486.456,98.204 486.089,98.579 485.99,98.826 C485.656,99.662 492.92,111.658 497.158,118.541 C495.924,123.099 496.353,128.542 496.113,131.783 C495.992,133.407 495.718,135.06 495.376,136.623 C491.855,131.453 484.884,121.284 481.282,116.482 C476.339,109.89 470.453,98.12 470.453,98.12 C470.453,98.12 470.135,98.236 469.648,98.427 C469.46,97.549 469.135,95.621 469.472,93.943 C469.925,91.691 470.928,90.512 470.094,90.104 C469.26,89.695 467.793,91.59 467.477,92.819 C467.477,92.819 466.315,87.087 465.698,86.678 C465.081,86.269 464,86.577 464,86.577 C464,86.577 463.27,85.554 462.333,85.914 C461.397,86.273 461.408,87.809 461.408,87.809 C461.408,87.809 459.895,88.271 459.579,89.5 C459.579,89.5 458.682,90.372 458.62,91.805 C458.565,93.088 461.551,98.377 465.216,100.573 C464.915,100.786 464.681,100.993 464.568,101.18 C463.862,102.357 473.278,128.016 479.399,136.491 C485.519,144.966 491.169,165.211 493.052,171.096 L493.081,171.191 L526.576,137.696 L526.721,137.535" id="Fill-20" fill="#CC5442"></path>
                                <path d="M441.455,184.775 C441.281,184.636 441.013,184.506 440.693,184.385 C443.921,181.648 446.06,176.165 445.831,174.924 C445.571,173.513 444.562,172.774 444.562,172.774 C444.078,171.601 442.515,171.353 442.515,171.353 C442.515,171.353 442.313,169.831 441.336,169.605 C440.359,169.38 439.778,170.494 439.778,170.494 C439.778,170.494 438.664,170.339 438.11,170.829 C437.556,171.32 437.201,177.158 437.201,177.158 C436.717,175.985 435.001,174.311 434.232,174.832 C433.463,175.352 434.62,176.38 435.381,178.548 C436.142,180.717 435.784,183.506 435.784,183.506 C435.784,183.506 435.778,183.564 435.773,183.655 C435.268,183.688 434.92,183.781 434.864,183.951 C434.628,184.658 433.216,199.017 429.92,212.082 C426.624,225.147 412.971,228.09 412.971,228.09 C412.971,228.09 411.63,226.21 410.922,224.376 C411.168,224.236 411.397,224.085 411.588,223.912 C415.961,219.943 416.973,212.2 416.973,212.2 C416.973,212.2 419.209,214.79 419.444,213.26 C419.68,211.729 417.208,206.433 417.208,206.433 C417.208,206.433 419.209,204.667 418.503,203.726 C417.797,202.784 414.383,202.784 414.383,202.784 C414.383,202.784 416.031,201.136 414.736,200.312 C413.441,199.488 410.263,200.312 410.263,200.312 C410.263,200.312 411.558,198.076 409.91,197.958 C407.071,197.755 402.26,201.96 402.26,201.96 C402.26,201.96 402.024,200.195 400.965,200.548 C399.906,200.901 398.258,203.608 398.258,203.608 C398.258,203.608 395.197,204.55 395.197,205.256 C395.197,205.962 397.905,206.08 397.905,206.08 C396.257,207.61 394.02,214.554 394.962,214.554 C395.904,214.554 396.845,213.024 396.845,213.024 C396.845,213.024 397.551,221.352 401.877,224.265 C402.175,224.466 402.539,224.636 402.943,224.782 C402.725,225.622 402.375,226.869 401.907,228.208 C382.368,227.972 375.659,191.014 375.07,190.425 C374.949,190.304 374.571,190.246 374.057,190.231 C374.014,189.229 374.041,187.591 374.53,186.199 C375.291,184.031 376.448,183.003 375.679,182.483 C374.91,181.962 373.194,183.636 372.71,184.809 C372.71,184.809 372.355,178.971 371.801,178.48 C371.247,177.989 370.133,178.145 370.133,178.145 C370.133,178.145 369.552,177.03 368.575,177.256 C367.597,177.482 367.396,179.004 367.396,179.004 C367.396,179.004 365.832,179.252 365.349,180.425 C365.349,180.425 364.34,181.163 364.08,182.575 C363.875,183.685 365.57,188.189 368.242,191.086 C368.035,191.18 367.906,191.274 367.89,191.367 C367.348,194.62 370.833,211.965 375.423,220.44 C380.014,228.914 390.136,239.037 390.372,242.803 C390.397,243.216 390.361,243.836 390.281,244.596 L393.743,248.057 C399.948,254.263 410.009,254.263 416.215,248.057 L424.176,240.095 C426.831,236.269 437.348,224.51 438.395,215.613 C439.572,205.609 442.632,185.717 441.455,184.775" id="Fill-21" fill="#509594"></path>
                                <path d="M343.302,97.287 C343.273,97.141 343.16,97.025 342.986,96.932 C344.967,93.049 344.301,86.548 343.478,85.494 C342.596,84.363 341.36,84.174 341.36,84.174 C340.389,83.358 338.888,83.861 338.888,83.861 C338.888,83.861 338.005,82.604 337.034,82.855 C336.063,83.106 336.063,84.363 336.063,84.363 C336.063,84.363 335.004,84.74 334.739,85.431 C334.474,86.123 336.858,91.464 336.858,91.464 C335.887,90.647 333.591,89.956 333.15,90.773 C332.709,91.59 334.209,91.967 335.887,93.538 C336.905,94.492 337.658,95.833 338.096,96.744 C337.686,96.784 337.417,96.816 337.417,96.816 C337.417,96.816 331.532,118.238 328.942,126.242 C327.641,130.264 323.606,134.166 319.912,137.054 C319.475,136.108 319.022,135.104 318.584,134.01 C316.23,128.125 320.468,114.707 310.345,113.295 C295.86,111.273 296.221,125.065 295.985,131.186 C295.814,135.631 291.44,139.216 289.775,144.089 L319.02,173.335 C320.283,164.412 321.755,155.953 323.057,153.549 C326.117,147.9 333.415,141.308 337.417,132.127 C341.419,122.946 343.537,98.464 343.302,97.287" id="Fill-22" fill="#509594"></path>
                                <path d="M297.515,276.061 C297.515,276.061 299.987,286.654 305.166,287.007 C310.345,287.361 313.994,285.006 313.288,282.888 C312.581,280.769 308.933,280.181 307.756,280.651 C306.578,281.122 303.989,276.414 303.165,274.178 C302.341,271.941 297.515,276.061 297.515,276.061" id="Fill-26" fill="#18364E"></path>
                                <path d="M279.977,192.138 C279.977,192.138 272.68,211.912 269.149,221.446 C265.618,230.98 247.021,258.052 246.432,260.406 C245.843,262.76 250.552,264.055 252.082,263.938 C253.612,263.82 268.207,250.048 273.739,241.809 C279.271,233.57 289.335,216.032 289.335,216.032 C289.335,216.032 290.218,235.336 290.688,243.575 C291.159,251.814 296.338,276.061 296.927,277.356 C297.515,278.65 303.047,277.12 303.871,276.532 C304.695,275.943 306.696,249.695 307.402,238.278 C308.109,226.861 310.227,197.906 310.227,195.905 C310.227,193.904 279.977,192.138 279.977,192.138" id="Fill-27" fill="#64BAB8"></path>
                                <path d="M268.325,186.989 C268.325,186.989 263.558,188.225 261.439,191.403 C259.32,194.581 259.585,197.494 259.938,198.377 C260.292,199.259 261.086,199.348 261.086,199.348 C261.086,199.348 261.263,200.672 262.234,200.672 C263.205,200.672 263.558,199.436 263.558,199.436 C263.558,199.436 264.352,198.995 264.529,198.377 C264.705,197.759 264.176,197.229 264.617,195.552 C265.059,193.874 265.765,193.433 266.294,193.168 C266.824,192.903 266.648,195.375 266.206,196.346 C265.765,197.317 266.471,197.759 267.707,196.788 C268.943,195.817 268.766,194.404 268.943,193.257 C269.119,192.109 270.355,189.902 270.443,188.754 C270.532,187.607 269.208,186.636 268.325,186.989" id="Fill-28" fill="#F6C682"></path>
                                <path d="M334.533,98.083 C334.533,98.083 333.562,95.444 331.885,93.873 C330.207,92.302 328.707,91.925 329.148,91.108 C329.59,90.291 331.885,90.982 332.856,91.799 C332.856,91.799 330.472,86.458 330.737,85.767 C331.002,85.076 332.061,84.699 332.061,84.699 C332.061,84.699 332.061,83.442 333.032,83.19 C334.003,82.939 334.886,84.196 334.886,84.196 C334.886,84.196 336.387,83.693 337.358,84.51 C337.358,84.51 338.594,84.699 339.477,85.83 C340.359,86.961 341.066,94.376 338.506,98.083 C335.946,101.791 334.533,98.083 334.533,98.083" id="Fill-29" fill="#F6C682"></path>
                                <path d="M287.275,147.529 C287.275,147.529 281.39,155.062 279.271,164.007 C277.153,172.953 267.501,186.135 266.795,187.077 C266.088,188.019 270.09,191.079 270.09,191.079 C270.09,191.079 279.507,180.486 285.863,171.54 C285.863,171.54 280.448,186.842 277.859,192.021 C277.859,192.021 291.748,205.91 311.993,198.612 C311.993,198.612 315.995,159.535 319.055,153.885 C322.115,148.235 329.413,141.643 333.415,132.463 C337.417,123.282 339.535,98.8 339.3,97.622 C339.065,96.445 333.415,97.152 333.415,97.152 C333.415,97.152 327.53,118.574 324.94,126.578 C322.351,134.581 308.933,142.114 308.933,142.114 L287.275,147.529" id="Fill-30" fill="#AFD5BF"></path>
                                <path d="M306.343,113.63 C291.858,111.609 292.219,125.4 291.983,131.521 C291.748,137.642 283.509,142.114 285.392,150.589 C287.275,159.064 274.563,176.013 292.454,179.779 C310.345,183.546 316.466,174.836 315.289,165.89 C314.112,156.945 315.995,154.826 317.878,149.177 C319.761,143.527 316.936,140.231 314.582,134.346 C312.228,128.461 316.466,115.042 306.343,113.63" id="Fill-31" fill="#18364E"></path>
                                <path d="M248.735,259.204 C245.265,260.722 240.896,264.534 239.015,267.356 C237.133,270.178 235.043,274.463 237.865,276.867 C240.687,279.271 244.868,275.718 247.899,272.896 C250.93,270.074 252.707,262.966 252.707,261.399 C252.707,259.831 250.407,258.472 248.735,259.204" id="Fill-32" fill="#18364E"></path>
                                <path d="M270.293,189.169 C269.851,188.763 269.32,188.477 268.867,188.079 C268.404,187.672 268.036,187.175 267.59,186.752 C267.407,186.579 267.17,186.796 267.261,187.006 C267.704,188.025 268.867,189.443 270.014,189.649 C270.276,189.696 270.522,189.38 270.293,189.169" id="Fill-33" fill="#8DAD9C"></path>
                                <path d="M310.155,195.714 C307.676,197.773 302.49,197.457 299.411,197.659 C291.772,198.16 286.522,193.274 279.701,190.861 C279.395,190.753 279.187,191.245 279.48,191.385 C283.529,193.33 287.259,195.974 291.384,197.732 C294.149,198.911 297.223,198.959 300.171,198.773 C302.514,198.624 309.974,198.911 311.022,196.219 C311.229,195.686 310.509,195.42 310.155,195.714" id="Fill-34" fill="#8DAD9C"></path>
                                <path d="M339.12,98.504 C338.378,98.083 337.459,98.137 336.625,98.146 C335.558,98.156 334.461,98.206 333.408,98.384 C333.171,98.423 333.168,98.826 333.408,98.862 C334.212,98.984 335.018,98.955 335.83,98.964 C336.853,98.975 337.945,99.264 338.947,99.141 C339.261,99.103 339.443,98.688 339.12,98.504" id="Fill-35" fill="#8DAD9C"></path>
                                <path d="M287.604,201.369 C286.593,200.877 285.439,200.705 284.361,200.391 C283.036,200.005 281.797,199.429 280.619,198.716 C280.407,198.588 280.157,198.898 280.351,199.062 C282.18,200.611 284.993,201.911 287.393,202.151 C287.805,202.192 287.97,201.547 287.604,201.369" id="Fill-36" fill="#509594"></path>
                                <path d="M304.634,203.959 C303.67,203.748 302.671,203.895 301.689,203.916 C300.459,203.941 299.267,203.786 298.055,203.6 C297.785,203.558 297.573,203.928 297.855,204.074 C299.7,205.03 302.626,205.256 304.634,204.8 C305.05,204.706 305.054,204.051 304.634,203.959" id="Fill-37" fill="#509594"></path>
                                <path d="M249.67,256.793 C249.306,257.041 249.083,257.369 248.88,257.759 C248.763,257.983 249.063,258.245 249.244,258.04 C249.508,257.741 249.787,257.456 249.987,257.11 C250.098,256.917 249.868,256.658 249.67,256.793" id="Fill-38" fill="#509594"></path>
                                <path d="M250.734,257.509 C250.492,257.651 250.49,257.65 250.309,257.869 C250.096,258.128 250.417,258.449 250.676,258.236 C250.895,258.055 250.894,258.053 251.036,257.811 C251.149,257.62 250.925,257.396 250.734,257.509" id="Fill-39" fill="#509594"></path>
                                <path d="M254.081,256.965 C253.233,257.343 252.539,258.103 251.937,258.791 C251.764,258.988 252.03,259.257 252.226,259.079 C252.905,258.466 253.754,258.015 254.368,257.337 C254.558,257.128 254.322,256.857 254.081,256.965" id="Fill-40" fill="#509594"></path>
                                <path d="M254.842,259.054 C254.305,259.22 253.912,259.632 253.487,259.988 C253.258,260.18 253.554,260.544 253.802,260.395 C254.28,260.106 254.782,259.868 255.116,259.411 C255.245,259.235 255.033,258.995 254.842,259.054" id="Fill-41" fill="#509594"></path>
                                <path d="M254.057,261.583 C254.051,261.383 253.768,261.287 253.666,261.477 L253.609,261.537 C253.378,261.618 253.397,262.026 253.671,261.992 L253.814,261.974 C253.944,261.957 254.065,261.874 254.061,261.726 L254.057,261.583" id="Fill-42" fill="#509594"></path>
                                <path d="M297.83,274.947 C297.751,274.737 297.433,274.761 297.429,275.002 C297.419,275.533 297.536,276.06 297.578,276.591 C297.601,276.884 298.049,276.893 298.041,276.591 C298.028,276.037 298.026,275.471 297.83,274.947" id="Fill-43" fill="#509594"></path>
                                <path d="M299.467,271.933 C299.411,271.647 298.966,271.719 298.968,272 C298.977,273.354 299.026,274.712 299.134,276.061 C299.161,276.406 299.624,276.397 299.663,276.061 C299.824,274.682 299.734,273.294 299.467,271.933" id="Fill-44" fill="#509594"></path>
                                <path d="M301.207,273.637 C301.055,273.378 300.691,273.559 300.743,273.833 C300.84,274.344 300.933,274.832 300.899,275.355 C300.88,275.651 301.366,275.719 301.419,275.425 C301.535,274.794 301.538,274.204 301.207,273.637" id="Fill-45" fill="#509594"></path>
                                <path d="M302.839,273.966 C302.705,273.7 302.252,273.82 302.273,274.119 C302.296,274.447 302.288,274.755 302.215,275.078 C302.107,275.55 302.797,275.741 302.938,275.278 C303.086,274.796 303.065,274.416 302.839,273.966" id="Fill-46" fill="#509594"></path>
                                <path d="M308.12,202.938 C306.435,213.761 306.404,224.823 305.74,235.739 C305.385,241.576 304.464,247.384 304.384,253.229 C304.311,258.625 302.621,263.747 302.797,269.175 C302.803,269.346 303.053,269.345 303.062,269.175 C303.313,264.205 304.659,259.463 304.896,254.525 C305.175,248.697 305.801,242.927 306.212,237.104 C307.016,225.723 307.314,214.337 308.337,202.967 C308.348,202.844 308.139,202.815 308.12,202.938" id="Fill-47" fill="#509594"></path>
                                <path d="M287.255,216.128 C282.729,224.705 278.286,232.748 271.856,240.066 C268.897,243.433 266.48,247.238 263.383,250.482 C260.896,253.087 257.945,255.05 255.938,258.109 C255.769,258.366 256.18,258.603 256.347,258.349 C258.756,254.678 262.526,252.281 265.404,249.021 C268.349,245.685 270.849,241.975 273.798,238.628 C279.664,231.97 283.498,224.131 287.531,216.289 C287.625,216.107 287.351,215.945 287.255,216.128" id="Fill-48" fill="#509594"></path>
                                <path d="M376.377,281.122 C376.377,281.122 370.256,283.359 371.904,286.419 C373.552,289.479 379.908,288.302 382.615,287.125 C385.322,285.948 376.377,281.122 376.377,281.122" id="Fill-49" fill="#ED9B4D"></path>
                                <path d="M427.806,285.006 C427.806,285.006 433.927,287.243 432.279,290.303 C430.631,293.363 424.275,292.186 421.568,291.009 C418.861,289.832 427.806,285.006 427.806,285.006" id="Fill-50" fill="#ED9B4D"></path>
                                <path d="M383.792,267.94 C383.792,267.94 377.201,258.052 372.257,262.407 C367.313,266.762 370.845,283.594 383.792,291.127 C396.739,298.66 414.63,298.307 425.341,289.95 C436.052,281.593 438.524,272.059 435.111,266.998 C431.697,261.937 422.399,269.116 422.399,269.116 L394.503,270.411 L383.792,267.94" id="Fill-51" fill="#18364E"></path>
                                <path d="M401.094,224.86 C401.094,224.86 400.624,226.979 399.8,229.333 C398.976,231.687 401.212,234.394 401.212,234.394 L410.864,232.746 L410.864,229.215 C410.864,229.215 408.51,225.919 408.392,223.801 C408.274,221.682 401.094,224.86 401.094,224.86" id="Fill-52" fill="#F6C682"></path>
                                <path d="M433.677,184.631 C433.677,184.631 434.036,181.842 433.274,179.673 C432.513,177.505 431.356,176.477 432.125,175.956 C432.894,175.436 434.61,177.11 435.094,178.283 C435.094,178.283 435.449,172.445 436.003,171.954 C436.557,171.463 437.671,171.619 437.671,171.619 C437.671,171.619 438.252,170.504 439.229,170.73 C440.206,170.956 440.409,172.478 440.409,172.478 C440.409,172.478 441.972,172.726 442.455,173.899 C442.455,173.899 443.464,174.638 443.724,176.049 C443.984,177.46 441.184,184.362 437.2,186.467 C433.216,188.571 433.677,184.631 433.677,184.631" id="Fill-53" fill="#F6C682"></path>
                                <path d="M372.02,192.282 C372.02,192.282 371.661,189.492 372.423,187.324 C373.184,185.156 374.341,184.128 373.572,183.607 C372.803,183.087 371.087,184.76 370.603,185.934 C370.603,185.934 370.248,180.095 369.694,179.605 C369.14,179.114 368.026,179.269 368.026,179.269 C368.026,179.269 367.445,178.155 366.468,178.381 C365.491,178.607 365.289,180.129 365.289,180.129 C365.289,180.129 363.725,180.377 363.242,181.55 C363.242,181.55 362.233,182.288 361.973,183.699 C361.713,185.11 364.513,192.013 368.497,194.117 C372.481,196.222 372.02,192.282 372.02,192.282" id="Fill-54" fill="#F6C682"></path>
                                <path d="M399.77,225.39 C395.445,222.476 394.738,214.149 394.738,214.149 C394.738,214.149 393.797,215.679 392.855,215.679 C391.914,215.679 394.15,208.734 395.798,207.204 C395.798,207.204 393.091,207.087 393.091,206.381 C393.091,205.674 396.151,204.733 396.151,204.733 C396.151,204.733 397.799,202.025 398.858,201.672 C399.917,201.319 400.153,203.085 400.153,203.085 C400.153,203.085 404.964,198.88 407.804,199.083 C409.451,199.2 408.157,201.437 408.157,201.437 C408.157,201.437 411.335,200.613 412.629,201.437 C413.924,202.261 412.276,203.909 412.276,203.909 C412.276,203.909 415.69,203.909 416.396,204.85 C417.102,205.792 415.101,207.557 415.101,207.557 C415.101,207.557 417.573,212.854 417.338,214.384 C417.102,215.914 414.866,213.325 414.866,213.325 C414.866,213.325 413.854,221.068 409.481,225.036 C407.445,226.884 401.947,226.856 399.77,225.39" id="Fill-55" fill="#18364E"></path>
                                <path d="M399.8,229.333 C399.8,229.333 406.038,232.04 410.864,229.215 C410.864,229.215 424.517,226.272 427.813,213.207 C431.109,200.142 432.521,185.782 432.757,185.076 C432.992,184.37 438.171,184.958 439.348,185.9 C440.525,186.842 437.465,206.734 436.288,216.738 C435.111,226.743 421.928,240.397 421.457,242.28 C420.986,244.163 421.222,264.879 422.399,269.116 C422.399,269.116 415.454,275.472 401.801,275.472 C388.147,275.472 383.792,267.94 383.792,267.94 C383.792,267.94 388.5,247.694 388.265,243.928 C388.029,240.161 377.907,230.039 373.316,221.564 C368.726,213.09 365.241,195.744 365.783,192.491 C365.901,191.785 372.375,190.961 372.963,191.55 C373.552,192.138 380.261,229.097 399.8,229.333" id="Fill-56" fill="#ED9B4D"></path>
                                <path d="M372.249,192.681 C371.357,192.313 370.232,192.73 369.364,193.032 C368.4,193.369 367.421,193.773 366.502,194.211 C366.214,194.349 366.348,194.844 366.666,194.818 C367.58,194.743 368.464,194.4 369.33,194.113 C370.28,193.797 371.349,193.845 372.249,193.479 C372.643,193.319 372.639,192.842 372.249,192.681" id="Fill-57" fill="#CC5442"></path>
                                <path d="M439.149,187.625 C438.408,186.127 434.858,186.082 433.532,186.548 C433.365,186.607 433.352,186.846 433.532,186.9 C434.331,187.135 435.27,187.027 436.099,187.114 C437.154,187.223 437.861,187.701 438.794,188.087 C439.074,188.202 439.256,187.841 439.149,187.625" id="Fill-58" fill="#CC5442"></path>
                                <path d="M411.523,230.405 C409.474,231.358 407.984,232.056 405.633,232.064 C403.328,232.071 401.031,231.35 399.065,230.181 C398.892,230.078 398.708,230.317 398.851,230.458 C401.544,233.126 409.529,234.614 411.969,230.85 C412.162,230.553 411.796,230.278 411.523,230.405" id="Fill-59" fill="#CC5442"></path>
                                <path d="M420.475,267.898 C416.175,272.328 408.954,273.235 403.095,273.403 C396.488,273.592 389.407,272.925 385.031,267.407 C384.849,267.177 384.486,267.472 384.632,267.715 C388.303,273.783 395.695,274.729 402.187,274.709 C408.603,274.69 416.718,273.751 421.263,268.686 C421.74,268.155 420.978,267.379 420.475,267.898" id="Fill-60" fill="#CC5442"></path>
                                <path d="M394.594,278.901 C394.533,278.563 394.184,278.368 393.871,278.35 C391.324,278.205 388.477,277.835 386.768,275.733 C386.54,275.453 386.142,275.626 386.012,275.898 C385.841,275.856 385.638,275.924 385.554,276.139 C384.065,279.957 382.732,286.482 388.418,287.342 C388.879,287.411 389.389,286.836 388.933,286.456 C387.469,285.235 385.843,285.233 385.312,283.02 C384.811,280.933 385.704,278.538 386.222,276.506 C387.938,278.662 390.592,279.197 393.182,279.724 C393.275,281.398 392.141,282.859 392.217,284.536 C392.241,285.083 393.015,285.363 393.297,284.828 C394.206,283.101 394.953,280.857 394.594,278.901" id="Fill-61" fill="#214A6C"></path>
                                <path d="M391.289,286.132 C390.682,286.275 390.139,286.545 389.583,286.822 C389.092,287.067 389.522,287.76 390.006,287.546 C390.539,287.311 391.072,287.099 391.565,286.787 C391.912,286.568 391.687,286.038 391.289,286.132" id="Fill-62" fill="#214A6C"></path>
                                <path d="M418.816,276.236 C418.629,275.903 418.197,275.81 417.872,275.989 C415.486,277.307 412.74,279.213 409.922,279.079 C409.542,279.061 409.464,279.653 409.833,279.74 C412.733,280.425 415.252,278.29 417.888,277.419 C418.87,279.23 420.361,282.045 419.5,283.904 C418.666,285.703 415.849,286.059 414.464,287.312 C414.037,287.698 414.483,288.418 415.017,288.262 C417.178,287.628 419.979,286.415 420.966,284.249 C422.063,281.839 419.963,278.281 418.816,276.236" id="Fill-63" fill="#214A6C"></path>
                                <path d="M413.924,284.993 C412.944,284.596 412.149,284.319 411.377,283.547 C410.662,282.831 410.143,281.893 409.915,280.909 C409.808,280.448 409.16,280.656 409.223,281.1 C409.501,283.047 411.515,286.477 413.924,285.844 C414.384,285.723 414.302,285.146 413.924,284.993" id="Fill-64" fill="#214A6C"></path>
                                <path d="M403.626,285.312 C403.388,282.792 402.589,280.36 402.518,277.827 C402.511,277.585 402.143,277.584 402.143,277.827 C402.144,280.359 402.845,282.792 403.041,285.312 C403.256,288.065 403.339,290.788 404.151,293.445 C404.268,293.829 404.829,293.67 404.747,293.281 C404.189,290.639 403.879,287.999 403.626,285.312" id="Fill-65" fill="#214A6C"></path>
                                <path d="M383.97,270.363 C383.686,271.567 383.168,271.952 382.204,271.088 C381.402,270.369 380.761,269.428 380.147,268.552 C379.272,267.305 378.458,265.214 377.121,264.394 C376.757,264.172 376.32,264.613 376.54,264.976 C377.789,267.038 379.195,269.152 380.845,270.917 C382.194,272.361 383.982,272.91 384.321,270.459 C384.352,270.235 384.025,270.128 383.97,270.363" id="Fill-66" fill="#214A6C"></path>
                                <path d="M430.12,267.38 C427.603,268.332 423.776,274.087 420.915,271.601 C420.66,271.38 420.204,271.673 420.42,271.982 C422.893,275.51 428.519,269.648 430.507,268.044 C430.813,267.797 430.485,267.242 430.12,267.38" id="Fill-67" fill="#214A6C"></path>
                                <path d="M503.938,272 C503.85,271.647 500.848,268.91 498.465,270.323 C496.081,271.735 495.287,275.708 499.259,277.385 C503.232,279.062 505.35,279.062 507.028,278.003 C508.705,276.944 508.97,272.795 507.646,272.088 C506.321,271.382 503.938,272 503.938,272" id="Fill-68" fill="#18364E"></path>
                                <path d="M503.143,259.73 C503.143,259.73 502.555,269.587 503.026,271.941 C503.497,274.295 506.557,274.295 507.734,272.883 C508.911,271.471 510.794,256.64 510.794,256.64 L503.143,259.73" id="Fill-69" fill="#F6C682"></path>
                                <path d="M541.568,273.431 C541.363,273.13 537.6,271.601 535.852,273.751 C534.105,275.901 534.734,279.903 539.042,280.102 C543.349,280.301 545.337,279.568 546.544,277.993 C547.751,276.419 546.563,272.435 545.077,272.23 C543.59,272.026 541.568,273.431 541.568,273.431" id="Fill-70" fill="#18364E"></path>
                                <path d="M537.293,262.499 C537.293,262.499 539.845,272.038 541.035,274.124 C542.225,276.209 545.128,275.243 545.8,273.531 C546.471,271.82 543.577,257.152 543.577,257.152 L537.293,262.499" id="Fill-71" fill="#F6C682"></path>
                                <path d="M501.26,192.491 C501.26,192.491 502.195,258.126 502.673,261.23 C503.143,264.291 508.322,264.761 510.206,263.114 C512.089,261.466 520.328,223.094 520.093,214.62 C520.093,214.62 534.688,260.76 537.042,263.349 C539.396,265.938 544.575,264.997 545.517,263.349 C546.458,261.701 541.75,228.038 538.925,214.62 C536.1,201.201 532.334,188.019 532.334,188.019 L501.26,192.491" id="Fill-72" fill="#ED9B4D"></path>
                                <path d="M490.369,96.419 C490.369,96.419 489.035,93.943 487.153,92.624 C485.271,91.306 483.732,91.144 484.054,90.273 C484.376,89.402 486.745,89.763 487.822,90.434 C487.822,90.434 484.709,85.483 484.873,84.761 C485.038,84.039 486.033,83.516 486.033,83.516 C486.033,83.516 485.856,82.272 486.782,81.886 C487.708,81.501 488.759,82.62 488.759,82.62 C488.759,82.62 490.174,81.911 491.251,82.583 C491.251,82.583 492.501,82.595 493.534,83.59 C494.568,84.585 496.313,91.827 494.302,95.859 C492.291,99.89 490.369,96.419 490.369,96.419" id="Fill-73" fill="#F6C682"></path>
                                <path d="M473.261,97.706 C473.261,97.706 472.519,94.993 472.972,92.74 C473.425,90.487 474.427,89.308 473.594,88.9 C472.76,88.491 471.293,90.387 470.977,91.616 C470.977,91.616 469.815,85.883 469.198,85.474 C468.581,85.065 467.5,85.374 467.5,85.374 C467.5,85.374 466.769,84.351 465.833,84.71 C464.897,85.069 464.908,86.605 464.908,86.605 C464.908,86.605 463.394,87.068 463.078,88.296 C463.078,88.296 462.182,89.168 462.12,90.601 C462.058,92.035 465.79,98.481 470.027,100.013 C474.265,101.544 473.261,97.706 473.261,97.706" id="Fill-74" fill="#F6C682"></path>
                                <path d="M501.025,138.583 C501.025,138.583 489.725,121.869 484.782,115.278 C479.838,108.687 473.953,96.916 473.953,96.916 C473.953,96.916 468.774,98.8 468.068,99.976 C467.362,101.154 476.778,126.813 482.898,135.288 C489.019,143.762 494.669,164.007 496.552,169.892 C498.435,175.778 499.848,193.904 499.848,193.904 C499.848,193.904 519.857,203.32 535.63,190.608 C535.63,190.608 527.39,172.953 526.449,161.182 C525.507,149.412 521.27,134.817 519.622,132.463 C517.974,130.109 496.317,92.443 496.317,92.443 C496.317,92.443 489.961,96.445 489.49,97.622 C489.019,98.8 503.614,122.105 503.614,122.105 L506.204,134.581 L501.025,138.583" id="Fill-75" fill="#64BAB8"></path>
                                <path d="M510.912,109.393 C497.964,109.393 500.083,124.223 499.612,130.579 C499.142,136.935 496.317,143.762 496.317,143.762 C496.317,143.762 501.26,153.178 515.149,151.295 C529.038,149.412 533.746,140.937 533.746,140.937 C533.746,140.937 526.684,132.934 525.507,126.342 C524.33,119.751 521.505,109.393 510.912,109.393" id="Fill-76" fill="#18364E"></path>
                                <path d="M474.188,98.855 C472.48,98.896 470.534,99.572 469.105,100.503 C468.855,100.667 469.011,101.117 469.318,101.007 C470.136,100.716 470.929,100.391 471.769,100.161 C472.635,99.923 473.514,99.775 474.339,99.41 C474.617,99.286 474.469,98.848 474.188,98.855" id="Fill-77" fill="#579E9D"></path>
                                <path d="M496.538,94.649 C495.606,94.941 494.729,95.704 493.9,96.213 C493.238,96.618 491.904,97.108 491.582,97.866 L491.667,98.016 C492.492,98.042 493.549,97.186 494.251,96.813 C495.106,96.357 496.293,95.886 496.849,95.055 C496.984,94.853 496.762,94.579 496.538,94.649" id="Fill-78" fill="#579E9D"></path>
                                <path d="M533.383,189.086 C531.085,189.878 528.936,191.024 526.669,191.906 C523.854,193.002 520.845,193.319 517.851,193.459 C512.694,193.698 506.623,193.926 501.798,191.953 C501.53,191.843 501.351,192.286 501.603,192.417 C506.441,194.931 512.537,194.641 517.851,194.567 C523.535,194.487 528.796,192.654 533.753,189.963 C534.227,189.706 533.902,188.907 533.383,189.086" id="Fill-79" fill="#579E9D"></path>
                                <path d="M500.012,174.439 C498.681,168.269 496.889,162.206 495.054,156.171 L494.99,156.189 C498.198,167.397 501.524,179.087 502.057,190.785 C502.069,191.049 502.448,191.047 502.465,190.785 C502.813,185.287 501.16,179.764 500.012,174.439" id="Fill-80" fill="#579E9D"></path>
                                <path d="M504.759,231.064 C504.696,225.501 504.319,219.934 504.071,214.377 C503.856,209.55 504.052,204.695 503.041,199.945 C503.021,199.847 502.874,199.889159 502.892,199.986 C503.899,205.169 503.555,210.525 503.695,215.78 C503.831,220.874 504.076,225.969 504.142,231.064 C504.273,241.185 503.301,251.49 504.004,261.583 C504.022,261.84 504.382,261.839 504.401,261.583 C505.15,251.518 504.873,241.155 504.759,231.064" id="Fill-81" fill="#CC5442"></path>
                                <path d="M535.326,252.481 C533.818,248.425 532.332,244.368 530.996,240.251 C528.284,231.889 525.898,223.424 522.563,215.278 C522.476,215.064 522.125,215.155 522.212,215.374 C525.452,223.553 527.742,232.04 530.357,240.428 C532.787,248.221 536.676,255.725 538.638,263.621 C538.75,264.07 539.434,263.88 539.33,263.43 C538.442,259.593 536.691,256.155 535.326,252.481" id="Fill-82" fill="#CC5442"></path>
                                <path d="M517.172,200.326 C514.265,201.421 511.742,201.464 508.69,200.935 C508.345,200.876 508.192,201.39 508.543,201.467 C511.421,202.106 514.816,202.683 517.449,200.981 C517.775,200.771 517.569,200.177 517.172,200.326" id="Fill-83" fill="#CC5442"></path>
                                <path d="M530.958,197.378 C528.663,198.223 526.475,198.987 524.077,199.513 C523.712,199.592 523.871,200.13 524.23,200.066 C526.532,199.655 529.25,199.344 531.192,197.932 C531.45,197.745 531.305,197.25 530.958,197.378" id="Fill-84" fill="#CC5442"></path>
                                <polyline id="Fill-85" fill="#FFFFFE" points="239.017 205.91 217.931 195.484 237.503 182.437 239.017 205.91"></polyline>
                                <polyline id="Fill-86" fill="#FFFFFE" points="235.25 267.116 191.027 285.114 197.551 237.817 235.25 267.116"></polyline>
                                <polyline id="Fill-90" fill="#64BAB8" points="583.653 49.599 563.601 44.227 578.28 29.548 583.653 49.599"></polyline>
                                <polyline id="Fill-91" fill="#FFFFFE" points="570.47 95.739 535.916 104.389 545.701 70.14 570.47 95.739"></polyline>
                                <polyline id="Fill-92" fill="#64BAB8" points="564.82 184.252 552.647 176.215 565.694 169.691 564.82 184.252"></polyline>
                                <polyline id="Fill-93" fill="#FFFFFE" points="465.008 256.758 456.037 241.221 473.978 241.221 465.008 256.758"></polyline>
                                <polyline id="Fill-94" fill="#64BAB8" points="348.177 241.129 328.774 249.69 331.062 228.606 348.177 241.129"></polyline>
                            </g>
                        </g>
                    </g>
                </g>
            </g>
        </g>
    </g>
</svg>