<?xml version="1.0" encoding="UTF-8"?>
<svg width="124px" height="267px" viewBox="0 0 124 267" version="1.1" xmlns="http://www.w3.org/2000/svg" xmlns:xlink="http://www.w3.org/1999/xlink">
    <!-- Generator: Sketch 57.1 (83088) - https://sketch.com -->
    <title>babysitter-vector</title>
    <desc>Created with Sketch.</desc>
    <g id="nanny-scheduler" stroke="none" stroke-width="1" fill="none" fill-rule="evenodd">
        <g id="nanny-main-landing-page" transform="translate(-660.000000, -938.000000)">
            <g id="explainer-section" transform="translate(81.000000, 665.000000)">
                <g id="babysitter-vector">
                    <g transform="translate(579.000000, 273.000000)">
                        <circle id="background" fill="#4E5090" cx="62" cy="72" r="62"></circle>
                        <g id="babysitter" transform="translate(18.000000, 0.000000)">
                            <path d="M81.1009314,111.664614 C80.2469314,104.090614 71.1109314,97.0726137 65.6629314,90.9506137 C60.2129314,84.8306137 59.3449314,81.1446137 54.8029314,72.9726137 C53.9989314,71.5246137 50.9449314,64.5706137 48.2069314,57.9706137 C45.4689314,51.3686137 42.2369314,49.6946137 41.2109314,48.6846137 C40.1869314,47.6766137 38.4289314,48.4406137 40.4949314,50.8886137 C42.5589314,53.3386137 39.8589314,52.7406137 35.6129314,52.2046137 C31.3669314,51.6706137 25.3149314,54.4346137 30.3749314,58.2346137 C35.4329314,62.0346137 41.0829314,59.3266137 42.4969314,62.8926137 C43.9109314,66.4606137 44.6569314,74.2766137 48.4069314,81.8446137 C50.7909314,86.6526137 56.4489314,96.0846137 58.9749314,101.344614 C60.3409314,104.188614 67.3309314,119.064614 72.6969314,120.456614 C78.3889314,121.934614 81.5629314,115.752614 81.1009314,111.664614" id="Fill-269" fill="#EFA691"></path>
                            <path d="M64.7649314,236.200614 C64.7049314,232.824614 64.0969314,245.302614 64.2229314,250.822614 C64.2569314,252.306614 64.7789314,256.002614 64.9869314,257.542614 C65.4569314,261.008614 66.2849314,264.208614 55.8269314,265.336614 C45.3709314,266.460614 42.3369314,267.182614 38.7129314,264.816614 C35.0869314,262.448614 38.9889314,260.612614 43.6989314,259.118614 C47.0929314,258.040614 50.4609314,256.038614 52.3909314,254.224614 C53.3989314,253.278614 54.1049314,252.530614 54.0989314,249.122614 C54.0849314,240.498614 53.4509314,237.734614 53.4509314,237.734614 L64.7649314,236.200614" id="Fill-270" fill="#F4C0AC"></path>
                            <path d="M64.9869314,257.542614 C64.9869314,257.542614 66.6989314,261.336614 65.7249314,262.982614 C64.7489314,264.626614 57.8789314,265.208614 51.7569314,265.786614 C45.6349314,266.364614 39.2209314,266.932614 36.6389314,266.000614 C33.7669314,264.964614 33.4349314,262.148614 37.2909314,260.868614 C38.5229314,260.458614 43.6989314,259.118614 43.6989314,259.118614 C43.6989314,259.118614 43.1269314,260.832614 47.6529314,260.722614 C53.6029314,260.578614 64.9869314,257.542614 64.9869314,257.542614" id="Fill-271" fill="#E5724F"></path>
                            <path d="M79.2729314,232.284614 C79.2129314,228.908614 83.5169314,240.266614 83.8369314,248.712614 C83.8929314,250.196614 84.9449314,256.002614 85.1529314,257.542614 C85.6229314,261.008614 86.4509314,264.208614 75.9929314,265.336614 C65.5369314,266.460614 62.5049314,267.182614 58.8809314,264.816614 C55.2549314,262.448614 59.1549314,260.612614 63.8649314,259.118614 C67.2589314,258.040614 70.6269314,256.038614 72.5569314,254.224614 C73.5649314,253.278614 74.2709314,252.530614 74.2649314,249.122614 C74.2529314,240.498614 71.4249314,232.618614 71.4249314,232.618614 L79.2729314,232.284614" id="Fill-272" fill="#F4C0AC"></path>
                            <path d="M85.1529314,257.542614 C85.1529314,257.542614 86.8649314,261.336614 85.8909314,262.982614 C84.9149314,264.626614 78.0449314,265.208614 71.9229314,265.786614 C65.8009314,266.364614 59.3889314,266.932614 56.8049314,266.000614 C53.9349314,264.964614 53.6009314,262.148614 57.4569314,260.868614 C58.6889314,260.458614 63.8649314,259.118614 63.8649314,259.118614 C63.8649314,259.118614 63.2929314,260.832614 67.8209314,260.722614 C73.7709314,260.578614 85.1529314,257.542614 85.1529314,257.542614" id="Fill-273" fill="#E5724F"></path>
                            <path d="M73.3409314,128.618614 C73.3409314,128.618614 84.8629314,144.444614 83.1069314,159.368614 C81.1929314,175.658614 75.7509314,182.656614 72.1469314,195.254614 C71.3089314,210.206614 64.2069314,248.972614 64.2069314,248.972614 C64.2069314,248.972614 62.0429314,250.252614 54.0949314,249.502614 C53.3389314,247.586614 50.6329314,204.774614 52.6729314,190.350614 C54.3429314,178.558614 61.1329314,139.242614 61.1329314,139.242614 L73.3409314,128.618614" id="Fill-274" fill="#231F30"></path>
                            <path d="M74.5169314,130.986614 C74.5169314,130.986614 85.2929314,138.550614 86.7429314,153.508614 C88.3229314,169.832614 81.0629314,181.456614 80.2109314,194.532614 C82.5629314,209.324614 83.8369314,248.712614 83.8369314,248.712614 C83.8369314,248.712614 81.9949314,250.422614 74.0669314,251.372614 C72.9209314,249.660614 61.2049314,208.396614 60.1409314,193.866614 C59.2729314,181.988614 59.6529314,146.228614 59.6529314,146.228614 L74.5169314,130.986614" id="Fill-275" fill="#42394B"></path>
                            <path d="M66.8149314,97.3466137 C68.4789314,93.0586137 70.1229314,89.8186137 71.0209314,85.1546137 C72.7209314,83.2166137 80.6149314,81.3666137 80.6149314,81.3666137 L79.1349314,87.1466137 C79.1349314,87.1466137 77.9749314,90.3886137 79.2069314,98.5846137 C76.2869314,100.440614 70.2849314,97.5886137 66.8149314,97.3466137" id="Fill-276" fill="#EFA691"></path>
                            <path d="M83.0969314,80.2726137 C78.5429314,86.3966137 69.6449314,87.4906137 66.8789314,85.4326137 C64.2329314,83.4666137 62.5989314,74.5406137 67.1509314,68.4186137 C71.7049314,62.2946137 78.9649314,59.9846137 83.3689314,63.2586137 C87.7709314,66.5326137 87.6489314,74.1506137 83.0969314,80.2726137" id="Fill-277" fill="#F4C0AC"></path>
                            <path d="M79.1349314,87.1466137 C78.3849314,82.0026137 83.1989314,78.2706137 83.5569314,76.9206137 C83.9149314,75.5686137 83.6489314,73.7346137 82.6289314,73.3906137 C81.6109314,73.0486137 79.1449314,74.3606137 79.1449314,74.3606137 C79.1449314,74.3606137 77.5269314,72.1866137 76.4829314,69.1106137 C75.4409314,66.0326137 71.2749314,64.3786137 71.280925,64.3666137 C71.2869314,64.3566137 71.8669314,56.0406137 83.6769314,59.5426137 C89.0729314,61.1426137 91.7489314,64.6566137 92.0629314,68.8626137 C92.3769314,73.0686137 88.7209314,79.6826137 86.2589314,81.5426137 C82.9769314,84.0206137 80.9209314,85.2446137 79.1349314,87.1466137" id="Fill-278" fill="#42394B"></path>
                            <path d="M78.5289314,67.6706137 L79.1449314,74.3606137 C79.1449314,74.3606137 64.5149314,72.4806137 64.5568412,63.8466137 C68.4009314,59.5686137 74.6949314,59.4666137 74.6949314,59.4666137 L78.5289314,67.6706137" id="Fill-279" fill="#42394B"></path>
                            <path d="M88.5649314,73.6226137 C88.5649314,73.6226137 85.7989314,71.8826137 87.7789314,68.0166137 C88.9469314,65.7386137 92.6309314,65.5366137 92.6309314,65.5366137 L88.5649314,73.6226137" id="Fill-280" fill="#E5724F"></path>
                            <path d="M91.3349314,66.2486137 C92.6529314,63.8826137 98.3329314,61.1126137 102.092931,66.4286137 C107.644931,74.2786137 97.4409314,81.8686137 98.6109314,84.8286137 C100.402931,89.3566137 104.840931,88.6786137 104.840931,88.6786137 C104.840931,88.6786137 98.8969314,94.5586137 91.9569314,88.2846137 C84.9589314,81.9626137 87.8669314,72.4726137 91.3349314,66.2486137" id="Fill-281" fill="#231F30"></path>
                            <path d="M56.5089314,109.106614 C58.7309314,104.216614 62.1929314,101.004614 67.1949314,96.3846137 C71.0889314,97.1726137 78.8809314,94.0646137 78.8809314,94.0646137 C78.8809314,94.0646137 80.8309314,97.1186137 82.3569314,101.982614 C83.3989314,105.296614 83.6809314,111.102614 83.5909314,120.388614 C83.4289314,137.174614 85.9749314,149.200614 85.9749314,149.200614 C85.9749314,149.200614 81.3469314,152.106614 70.6969314,151.874614 C63.2489314,151.712614 58.6349314,150.892614 58.6349314,150.892614 C58.6349314,150.892614 60.2449314,128.444614 58.8109314,122.076614 C57.5609314,116.518614 54.5069314,113.516614 56.5089314,109.106614" id="Fill-282" fill="#E5724F"></path>
                            <path d="M78.5469314,105.512614 C75.3889314,98.5746137 64.5309314,94.7306137 57.4549314,90.5986137 C50.3769314,86.4626137 48.4109314,83.2286137 41.5629314,76.8646137 C40.3489314,75.7366137 35.2909314,70.0706137 30.6449314,64.6406137 C25.9989314,59.2126137 22.4049314,58.6226137 21.1189314,57.9786137 C19.8329314,57.3366137 18.3969314,58.6066137 21.1189314,60.2966137 C23.8409314,61.9846137 21.0869314,62.2546137 16.8849314,63.0606137 C12.6809314,63.8646137 7.78293145,68.3686137 13.7709314,70.4166137 C19.7569314,72.4626137 24.2909314,68.1366137 26.7389314,71.0926137 C29.1889314,74.0466137 32.3169314,81.2486137 38.2269314,87.2806137 C41.9829314,91.1146137 50.2829314,98.3306137 54.3129314,102.548614 C56.4929314,104.832614 67.7449314,116.812614 73.2789314,116.476614 C79.1489314,116.116614 80.2529314,109.258614 78.5469314,105.512614" id="Fill-283" fill="#F4C0AC"></path>
                            <path d="M45.3809314,34.1786137 C45.3809314,34.1786137 47.1269314,33.0766137 51.6189314,31.6686137 C55.3349314,30.5046137 63.7189314,29.2326137 66.4489314,27.2206137 C69.1769314,25.2066137 69.5089314,23.2106137 70.3909314,24.0666137 C70.7589314,24.4246137 69.8649314,26.2506137 69.8369314,26.5486137 C69.7869314,27.0926137 70.9649314,27.2966137 71.2809314,27.2766137 C72.4989314,27.1966137 76.5609314,27.3926137 76.5589322,29.9646137 C76.5589322,32.5906137 74.2609314,32.9746137 71.8509314,32.5906137 C70.1669314,32.3226137 68.2609314,32.3286137 64.2909314,33.4106137 C59.9649314,34.5906137 55.4489314,37.0426137 51.9169314,38.3866137 C50.0549314,39.0966137 41.7969314,42.0226137 41.7969314,42.0226137 L45.3809314,34.1786137" id="Fill-284" fill="#EFA691"></path>
                            <path d="M11.1529314,28.8746137 C11.1529314,28.8746137 14.6089314,27.1726137 16.0569314,28.8746137 C17.5069314,30.5786137 17.3629314,32.5126137 17.3629314,32.5126137 L11.1529314,32.6026137 L11.1529314,28.8746137" id="Fill-285" fill="#A9A839"></path>
                            <path d="M11.6729314,37.2986137 C11.6729314,37.2986137 11.7669314,42.4906137 14.5649314,43.7946137 C17.3629314,45.1006137 21.5589314,42.5846137 21.5589314,42.5846137 L19.6009314,37.8266137 L11.6729314,37.2986137" id="Fill-286" fill="#A9A839"></path>
                            <path d="M22.3049314,29.2826137 C20.2629314,29.1266137 15.0909314,30.2246137 12.8869314,30.6146137 C12.6649314,28.7286137 8.41093145,21.6006137 6.63693145,21.0966137 C5.71893145,20.8346137 3.49493145,21.9386137 0.828931445,24.8406137 C-1.83506855,27.7406137 2.51493145,30.0406137 5.51293145,27.3946137 C6.84493145,27.2446137 6.92893145,33.0266137 7.90093145,37.1486137 C8.14893145,38.2026137 8.28093145,39.6046137 10.0409314,40.2526137 C11.5249314,40.7966137 14.3309314,40.7306137 17.6429314,40.2246137 C17.9729314,37.0486137 21.3029314,32.3326137 22.3049314,29.2826137" id="Fill-287" fill="#C0B834"></path>
                            <path d="M40.3489314,27.3926137 C40.3489314,27.3926137 34.8009314,26.5386137 29.2989314,29.4486137 C25.7969314,31.3006137 23.2389314,27.3926137 17.5069314,30.5786137 C15.8789314,34.0846137 15.8689314,36.2406137 15.4969314,39.9006137 C16.2349314,40.4466137 19.1969314,41.8446137 20.6269314,43.1886137 C22.6429314,45.0866137 27.7149314,50.5106137 39.5629314,44.7286137 C45.8749314,41.6466137 48.4169314,33.0706137 48.4169314,33.0706137 L40.3489314,27.3926137" id="Fill-288" fill="#C0B834"></path>
                            <path d="M49.2469314,29.3786137 C49.2469314,29.3786137 46.9389314,32.0586137 45.8249314,35.2706137 C44.8609314,35.7906137 43.2509314,36.2026137 40.9869314,34.0406137 C38.6309314,31.7926137 38.3409314,29.9526137 38.4909314,28.7026137 C41.2509314,27.2546137 44.7489314,23.2106137 44.7489314,23.2106137 L49.2469314,29.3786137" id="Fill-289" fill="#EFA691"></path>
                            <path d="M42.5269314,18.8266137 C40.5209314,23.8626137 42.2269314,29.2726137 46.3349314,30.9106137 C50.4449314,32.5446137 55.4009314,29.7866137 57.4069314,24.7506137 C59.4129314,19.7106137 57.7069314,14.3006137 53.5989314,12.6666137 C49.4909314,11.0286137 44.5329314,13.7866137 42.5269314,18.8266137" id="Fill-290" fill="#F4C0AC"></path>
                            <path d="M48.4169314,33.0706137 C48.4169314,33.0706137 44.9049314,38.4206137 41.1329314,36.2326137 C35.6989314,33.0846137 38.0089314,27.4806137 38.0089314,27.4806137 L40.3489314,27.3926137 C40.3489314,27.3926137 39.4149314,31.8166137 42.2609314,33.4266137 C45.1069314,35.0326137 47.3489314,32.0766137 47.3489314,32.0766137 L48.4169314,33.0706137" id="Fill-291" fill="#A9A839"></path>
                            <path d="M43.1829314,20.4146137 C43.1829314,20.4146137 40.7609314,18.1686137 39.7729314,21.0346137 C38.7829314,23.9006137 41.8889314,25.0386137 41.8889314,25.0386137 L43.1829314,20.4146137" id="Fill-292" fill="#F4C0AC"></path>
                            <path d="M60.3249314,20.1086137 C60.3249314,20.1086137 57.2709314,21.4926137 54.0329314,20.1206137 C49.7709314,18.3166137 46.6689314,17.0746137 45.0009314,17.5746137 C44.3209314,19.3206137 44.1029314,19.7186137 43.7909314,20.7246137 C43.2409314,22.4926137 42.1569314,20.8126137 42.1569314,20.8126137 C42.1569314,20.8126137 41.4009314,14.1666137 47.2769314,12.4346137 C53.3469314,10.6486137 58.2069314,14.6226137 60.3249314,20.1086137" id="Fill-293" fill="#793C33"></path>
                            <path d="M57.7129314,22.2266137 C57.7129314,22.2266137 60.2749314,22.1006137 59.2209314,24.8166137 C58.1609314,27.5506137 55.8749314,26.8266137 55.8749314,26.8266137 L57.7129314,22.2266137" id="Fill-294" fill="#F4C0AC"></path>
                            <path d="M35.9989314,33.7686137 C38.4589314,32.6026137 38.1909314,30.8126137 38.4549314,24.5986137 C38.7189314,18.3826137 37.8929314,14.3146137 38.4809314,12.0126137 C39.0689314,9.70861366 40.1869314,5.23261366 40.8169314,3.55461366 C41.4469314,1.87461366 39.5729314,2.57661366 38.7609314,3.55461366 C37.9489314,4.53261366 37.6689314,4.74461366 37.2489314,4.04461366 C36.8309314,3.34461366 33.6829314,-1.27138634 31.8649314,0.338613656 C30.4989314,1.54461366 31.6549314,4.46261366 33.6829314,7.96061366 C34.6889314,9.69261366 32.3549314,17.5586137 32.2129314,19.0126137 C32.0749314,20.4646137 29.7669314,27.6206137 30.0449314,30.3606137 C30.2029314,31.8986137 30.8709314,36.2006137 35.9989314,33.7686137" id="Fill-295" fill="#F4C0AC"></path>
                            <path d="M22.3049314,44.6866137 C22.3049314,44.6866137 26.8749314,46.7786137 32.7489314,42.3966137 C38.6249314,38.0146137 40.9869314,34.0406137 40.9869314,34.0406137 L43.3429314,35.1686137 C43.3429314,35.1686137 40.4909314,40.2526137 34.0569314,44.1726137 C28.5229314,47.5406137 24.3669314,46.0266137 24.3669314,46.0266137 L22.3049314,44.6866137" id="Fill-296" fill="#A9A839"></path>
                            <path d="M33.9889314,36.4926137 C33.9889314,36.9366137 33.6289314,37.2986137 33.1829314,37.2986137 C32.7389314,37.2986137 32.3769314,36.9366137 32.3769314,36.4926137 C32.3769314,36.0466137 32.7389314,35.6866137 33.1829314,35.6866137 C33.6289314,35.6866137 33.9889314,36.0466137 33.9889314,36.4926137" id="Fill-297" fill="#FFFFFE"></path>
                            <path d="M15.8729314,35.6866137 C15.8729314,36.1326137 15.5109314,36.4926137 15.0649314,36.4926137 C14.6209314,36.4926137 14.2589314,36.1326137 14.2589314,35.6866137 C14.2589314,35.2426137 14.6209314,34.8806137 15.0649314,34.8806137 C15.5109314,34.8806137 15.8729314,35.2426137 15.8729314,35.6866137" id="Fill-298" fill="#FFFFFE"></path>
                            <path d="M17.8069314,31.4006137 C18.1789314,31.6426137 18.2849314,32.1426137 18.0409314,32.5166137 C17.7989314,32.8886137 17.2989314,32.9946137 16.9269314,32.7526137 C16.5529314,32.5086137 16.4489314,32.0106137 16.6909314,31.6366137 C16.9349314,31.2646137 17.4329314,31.1586137 17.8069314,31.4006137" id="Fill-299" fill="#FFFFFE"></path>
                            <path d="M6.41693145,24.5686137 C6.41693145,25.0146137 6.05693145,25.3746137 5.61293145,25.3746137 C5.16693145,25.3746137 4.80693145,25.0146137 4.80693145,24.5686137 C4.80693145,24.1246137 5.16693145,23.7646137 5.61293145,23.7646137 C6.05693145,23.7646137 6.41693145,24.1246137 6.41693145,24.5686137" id="Fill-300" fill="#FFFFFE"></path>
                            <path d="M27.3069314,37.2986137 C27.3069314,37.7446137 26.9469314,38.1046137 26.5009314,38.1046137 C26.0569314,38.1046137 25.6969314,37.7446137 25.6969314,37.2986137 C25.6969314,36.8526137 26.0569314,36.4926137 26.5009314,36.4926137 C26.9469314,36.4926137 27.3069314,36.8526137 27.3069314,37.2986137" id="Fill-301" fill="#FFFFFE"></path>
                            <path d="M24.8909314,32.6026137 C24.8909314,33.0486137 24.5289314,33.4106137 24.0829314,33.4106137 C23.6389314,33.4106137 23.2789314,33.0486137 23.2789314,32.6026137 C23.2789314,32.1606137 23.6389314,31.7986137 24.0829314,31.7986137 C24.5289314,31.7986137 24.8909314,32.1606137 24.8909314,32.6026137" id="Fill-302" fill="#FFFFFE"></path>
                            <path d="M11.9589314,38.1046137 C11.9589314,38.5506137 11.5969314,38.9106137 11.1529314,38.9106137 C10.7069314,38.9106137 10.3469314,38.5506137 10.3469314,38.1046137 C10.3469314,37.6606137 10.7069314,37.2986137 11.1529314,37.2986137 C11.5969314,37.2986137 11.9589314,37.6606137 11.9589314,38.1046137" id="Fill-303" fill="#FFFFFE"></path>
                            <path d="M10.6749314,33.3966137 C10.6749314,33.8426137 10.3129314,34.2006137 9.86893145,34.2006137 C9.42293145,34.2006137 9.06293145,33.8426137 9.06293145,33.3966137 C9.06293145,32.9506137 9.42293145,32.5906137 9.86893145,32.5906137 C10.3129314,32.5906137 10.6749314,32.9506137 10.6749314,33.3966137" id="Fill-304" fill="#FFFFFE"></path>
                            <path d="M43.4409314,40.2026137 C43.4409314,40.6486137 43.0809314,41.0106137 42.6349314,41.0106137 C42.1909314,41.0106137 41.8309314,40.6486137 41.8309314,40.2026137 C41.8309314,39.7586137 42.1909314,39.3986137 42.6349314,39.3986137 C43.0809314,39.3986137 43.4409314,39.7586137 43.4409314,40.2026137" id="Fill-305" fill="#FFFFFE"></path>
                            <path d="M25.6969314,42.0226137 C25.6969314,42.4686137 25.3349314,42.8306137 24.8909314,42.8306137 C24.4449314,42.8306137 24.0829314,42.4686137 24.0829314,42.0226137 C24.0829314,41.5786137 24.4449314,41.2166137 24.8909314,41.2166137 C25.3349314,41.2166137 25.6969314,41.5786137 25.6969314,42.0226137" id="Fill-306" fill="#FFFFFE"></path>
                            <path d="M30.8949314,40.4146137 C31.3389314,40.4506137 31.6669314,40.8426137 31.6309314,41.2846137 C31.5949314,41.7286137 31.2049314,42.0586137 30.7609314,42.0206137 C30.3189314,41.9846137 29.9889314,41.5946137 30.0249314,41.1506137 C30.0629314,40.7066137 30.4509314,40.3766137 30.8949314,40.4146137" id="Fill-307" fill="#FFFFFE"></path>
                            <path d="M19.5169314,39.4006137 C19.9609314,39.4366137 20.2909314,39.8266137 20.2529314,40.2686137 C20.2169314,40.7126137 19.8269314,41.0426137 19.3829314,41.0066137 C18.9409314,40.9706137 18.6109314,40.5806137 18.6469314,40.1366137 C18.6849314,39.6926137 19.0749314,39.3626137 19.5169314,39.4006137" id="Fill-308" fill="#FFFFFE"></path>
                            <path d="M37.2009314,43.3666137 C37.6429314,43.4046137 37.9729314,43.7946137 37.9369314,44.2386137 C37.9009314,44.6826137 37.5109314,45.0126137 37.0669314,44.9746137 C36.6229314,44.9366137 36.2929314,44.5486137 36.3309314,44.1026137 C36.3669314,43.6606137 36.7569314,43.3326137 37.2009314,43.3666137" id="Fill-309" fill="#FFFFFE"></path>
                            <path d="M29.2829314,33.6946137 C29.7269314,33.7326137 30.0569314,34.1226137 30.0189314,34.5666137 C29.9829314,35.0106137 29.5929314,35.3406137 29.1489314,35.3026137 C28.7069314,35.2666137 28.3749314,34.8746137 28.4129314,34.4326137 C28.4509314,33.9886137 28.8389314,33.6586137 29.2829314,33.6946137" id="Fill-310" fill="#FFFFFE"></path>
                            <path d="M19.8929314,34.8826137 C20.3369314,34.9206137 20.6669314,35.3106137 20.6289314,35.7546137 C20.5929314,36.1966137 20.2029314,36.5266137 19.7589314,36.4906137 C19.3169314,36.4526137 18.9869314,36.0646137 19.0229314,35.6186137 C19.0609314,35.1766137 19.4509314,34.8486137 19.8929314,34.8826137" id="Fill-311" fill="#FFFFFE"></path>
                            <path d="M9.86693145,27.4606137 C9.82893145,27.9046137 9.43893145,28.2346137 8.99693145,28.1966137 C8.55293145,28.1606137 8.22293145,27.7686137 8.25893145,27.3266137 C8.29693145,26.8826137 8.68493145,26.5526137 9.12893145,26.5906137 C9.57293145,26.6266137 9.90293145,27.0166137 9.86693145,27.4606137" id="Fill-312" fill="#FFFFFE"></path>
                            <path d="M30.8289314,94.984585 C30.8269314,94.9726137 29.6869314,98.7326137 28.0729314,100.570614 C25.9649314,102.972614 22.5209314,103.966614 22.5209314,103.966614 C22.5209314,103.966614 25.8809314,105.166614 27.7849314,107.266614 C29.6929314,109.370614 30.8369314,112.632614 30.8409314,112.640614 C30.8409314,112.640614 31.9629314,109.370614 33.8729314,107.266614 C35.7749314,105.166614 39.1349314,103.966614 39.1349314,103.966614 C39.1349314,103.966614 35.6909314,102.972614 33.5829314,100.570614 C31.9689314,98.7326137 30.8309314,94.9726137 30.8289314,94.984585" id="Fill-447" fill="#FFFEFB"></path>
                        </g>
                    </g>
                </g>
            </g>
        </g>
    </g>
</svg>