<?xml version="1.0" encoding="UTF-8"?>
<svg width="26px" height="20px" viewBox="0 0 26 20" version="1.1" xmlns="http://www.w3.org/2000/svg" xmlns:xlink="http://www.w3.org/1999/xlink">
    <!-- Generator: Sketch 57.1 (83088) - https://sketch.com -->
    <title>email-icon</title>
    <desc>Created with Sketch.</desc>
    <g id="nanny-scheduler" stroke="none" stroke-width="1" fill="none" fill-rule="evenodd">
        <g id="nanny-about-page" transform="translate(-83.000000, -1098.000000)" fill="#F7926F">
            <g id="trusted-verified-section" transform="translate(81.000000, 680.000000)">
                <g id="sheila-profile" transform="translate(0.000000, 186.000000)">
                    <g id="Icon-/-Email" transform="translate(0.000000, 227.000000)">
                        <path d="M25.6251328,5 C26.6606667,5 27.5001328,5.83946609 27.5001328,6.875 L27.5001328,23.125 C27.5001328,24.1605339 26.6606667,25 25.6251328,25 L4.37513284,25 C3.33959894,25 2.50013284,24.1605339 2.50013284,23.125 L2.50013284,6.875 C2.50013284,5.83946609 3.33959894,5 4.37513284,5 L25.6251328,5 Z M25,9.835 L15.6935081,16.0400629 C15.2736338,16.319979 14.7266319,16.319979 14.3067576,16.0400629 L5,9.836 L5.00013284,22.5 L25.0001328,22.5 L25,9.835 Z M23.995,7.5 L6.004,7.5 L15.0001328,13.497687 L23.995,7.5 Z" id="🎨-Icon-Color"></path>
                    </g>
                </g>
            </g>
        </g>
    </g>
</svg>