<?xml version="1.0" encoding="UTF-8"?>
<svg width="222px" height="194px" viewBox="0 0 222 194" version="1.1" xmlns="http://www.w3.org/2000/svg" xmlns:xlink="http://www.w3.org/1999/xlink">
    <!-- Generator: Sketch 57.1 (83088) - https://sketch.com -->
    <title>footer-logo</title>
    <desc>Created with Sketch.</desc>
    <g id="nanny-scheduler" stroke="none" stroke-width="1" fill="none" fill-rule="evenodd">
        <g id="nanny-main-landing-page" transform="translate(-138.000000, -3611.000000)">
            <g id="footer-section" transform="translate(0.000000, 3520.000000)">
                <g id="footer-logo" transform="translate(138.000000, 91.000000)">
                    <ellipse id="Oval" fill="#DDE3E5" cx="100" cy="188.5" rx="100" ry="5.5"></ellipse>
                    <g id="logo-panda" transform="translate(25.000000, 0.000000)" fill-rule="nonzero">
                        <circle id="Oval" fill="#4A5058" cx="14.04" cy="107.64" r="14.04"></circle>
                        <path d="M26.3451889,98.28 C17.2226681,100.832333 9.54050334,106.360578 4.68,113.615338 C7.16531237,115.714067 10.4972828,117 14.1616123,117 C21.848565,117 28.08,111.350577 28.08,104.38158 C28.08,102.167822 27.4491959,100.088264 26.3451889,98.28 Z" id="Path" fill="#000000" opacity="0.15"></path>
                        <path d="M115.148453,169.209722 L115.148453,154.729066 C115.148453,146.815403 108.229293,140.4 99.6942264,140.4 L99.6942264,140.4 C91.1591595,140.4 84.24,146.815403 84.24,154.729066 L84.24,180.929346 C84.24,184.392519 87.2679332,187.2 91.0030444,187.2 L120.909176,187.2 C123.919246,187.2 126.36,184.937307 126.36,182.146029 C126.360777,175.809122 121.560433,170.514623 115.148453,169.209722 Z" id="Path" fill="#4A5058"></path>
                        <path d="M115.148453,169.209722 L115.148453,154.729066 C115.148453,146.815403 108.229293,140.4 99.6942264,140.4 L99.6942264,140.4 C91.1591595,140.4 84.24,146.815403 84.24,154.729066 L84.24,180.929346 C84.24,184.392519 87.2679332,187.2 91.0030444,187.2 L120.909176,187.2 C123.919246,187.2 126.36,184.937307 126.36,182.146029 C126.360777,175.809122 121.560433,170.514623 115.148453,169.209722 Z" id="Path" fill="#000000" opacity="0.2"></path>
                        <path d="M100.628648,135.72 L100.628648,135.72 C91.5775185,135.72 84.24,142.811645 84.24,151.55948 L84.24,168.48 C97.8607603,167.967341 109.79962,161.134414 117,150.922238 C116.654477,142.46974 109.459039,135.72 100.628648,135.72 Z" id="Path" fill="#000000" opacity="0.15"></path>
                        <path d="M82.2871174,163.8 L32.8131503,163.8 C17.2758971,163.8 4.68,151.283803 4.68,135.844862 L4.68,135.844862 C4.68,115.098567 21.6052738,98.28 42.4840669,98.28 L97.833728,98.28 C111.003938,98.28 121.68,108.888897 121.68,121.975385 L121.68,124.656376 C121.68,146.274768 104.043171,163.8 82.2871174,163.8 Z" id="Path" fill="#E8E8E8"></path>
                        <path d="M87.0672665,167.900418 L87.0672665,98.28 L69.8097903,98.28 C62.2709306,98.28 56.16,104.359092 56.16,111.857811 L56.16,180.472708 C56.16,184.188074 59.1878931,187.2 62.9229548,187.2 L92.7875263,187.2 C95.8476517,187.2 98.3035188,184.708797 98.28,181.664808 C98.2258507,174.91743 93.4434339,169.292232 87.0672665,167.900418 Z" id="Path" fill="#4A5058"></path>
                        <path d="M98.1182952,98.28 L46.8,98.28 C56.866724,122.862359 83.1929159,140.4 114.08498,140.4 C115.58164,140.4 117.065972,140.353676 118.540289,140.272707 C120.558564,135.518485 121.68,130.283119 121.68,124.782266 L121.68,122.08848 C121.68,108.939531 111.13134,98.28 98.1182952,98.28 Z" id="Path" fill="#000000" opacity="0.1"></path>
                        <circle id="Oval" fill="#4A5058" cx="173.16" cy="23.4" r="23.4"></circle>
                        <circle id="Oval" fill="#EDBCB9" cx="173.16" cy="23.4" r="9.36"></circle>
                        <ellipse id="Oval" fill="#E8E8E8" cx="119.34" cy="72.54" rx="72.54" ry="63.18"></ellipse>
                        <path d="M142.490732,88.6818814 C140.043921,88.6818814 138.06,86.6933429 138.06,84.24 C138.06,86.6929681 136.076453,88.6818814 133.630015,88.6818814 C132.661985,88.6818814 131.769108,88.3670139 131.04,87.8384862 L131.04,95.9223356 C131.04,99.8090755 134.183016,102.96 138.06,102.96 C141.937358,102.96 145.08,99.8090755 145.08,95.9223356 L145.08,87.8384862 C144.35164,88.3670139 143.458763,88.6818814 142.490732,88.6818814 Z" id="Path" fill="#EDBCB9"></path>
                        <path d="M138.06,98.28 C135.336689,98.28 132.865507,98.7393664 131.04,99.4860229 C132.172154,101.523252 134.886979,102.96 138.06,102.96 C141.233021,102.96 143.947846,101.52355 145.08,99.4860229 C143.254897,98.7396641 140.783715,98.28 138.06,98.28 Z" id="Path" fill="#D46D59"></path>
                        <g id="Group" transform="translate(42.120000, 0.000000)" fill="#4A5058">
                            <path d="M101.57043,88.6180425 C99.84234,88.6180425 98.24373,88.0815585 96.94893,87.174945 C95.65452,88.0815585 94.0563,88.6180425 92.32743,88.6180425 C88.02456,88.6180425 84.52431,85.292805 84.52431,81.204708 C84.52431,79.5348645 85.94859,78.1817985 87.70632,78.1817985 C89.46366,78.1817985 90.88833,79.5348645 90.88833,81.204708 C90.88833,81.958305 91.53378,82.571853 92.32704,82.571853 C93.1203,82.571853 93.76614,81.9586755 93.76614,81.204708 C93.76614,79.5348645 95.19042,78.1817985 96.94815,78.1817985 C98.70588,78.1817985 100.13016,79.5348645 100.13016,81.204708 C100.13016,81.958305 100.77561,82.571853 101.56926,82.571853 C102.36252,82.571853 103.00836,81.9586755 103.00836,81.204708 C103.00836,79.5348645 104.43264,78.1817985 106.19037,78.1817985 C107.9481,78.1817985 109.37238,79.5348645 109.37238,81.204708 C109.37355,85.292805 105.8733,88.6180425 101.57043,88.6180425 Z" id="Path"></path>
                            <path d="M106.29099,67.5402975 L104.11713,70.0004175 C100.37742,74.2315275 93.52395,74.2315275 89.78424,70.0004175 L87.61038,67.5402975 C86.4903,66.2731875 87.43839,64.3399185 89.18052,64.3399185 L104.72124,64.3399185 C106.46259,64.3399185 107.41107,66.2731875 106.29099,67.5402975 Z" id="Path"></path>
                            <path d="M40.794,6.8101605 C31.48314,-2.0351565 16.38702,-2.0351565 7.07538,6.8101605 C-2.23548,15.6554775 -2.23548,29.997162 7.07538,38.8428495 C16.38624,47.688537 27.74967,44.142111 37.06053,35.296053 C46.37217,26.450736 50.10525,15.6554775 40.794,6.8101605 Z" id="Path"></path>
                        </g>
                        <circle id="Oval" fill="#EDBCB9" cx="65.52" cy="23.4" r="9.36"></circle>
                        <g id="Group" transform="translate(70.200000, 51.480000)" fill="#4A5058">
                            <path d="M4.76424,14.5708875 C-1.26711,20.3868321 -1.2675,29.8164471 4.76424,35.6327679 C10.79559,41.4487125 20.57445,41.4487125 26.60619,35.6327679 L36.81483,25.7887221 C42.84618,19.9727775 42.84618,10.5431625 36.81483,4.72684179 C30.78309,-1.08947893 21.00462,-1.08910286 14.97327,4.72684179 L4.76424,14.5708875 Z" id="Path"></path>
                            <path d="M120.44799,8.60902714 L116.42202,4.72684179 C110.39067,-1.08910286 100.61181,-1.08910286 94.58046,4.72684179 C88.54911,10.5427864 88.54911,19.9724014 94.58046,25.7887221 L104.7891,35.6327679 C107.9598,38.6902286 112.16634,40.1377275 116.31906,39.9805296 C119.4687,33.0224561 121.19913,25.4592836 121.19913,17.5489971 C121.19952,14.5125964 120.93978,11.5284696 120.44799,8.60902714 Z" id="Path"></path>
                        </g>
                        <g id="Group" transform="translate(93.600000, 60.840000)" fill="#FFFFFF">
                            <path d="M3.21798414,13.1576738 C1.49055983,13.1576738 0.0908363793,11.5553588 0.0908363793,9.5779125 L0.0908363793,4.24666125 C0.0908363793,2.269215 1.49055983,0.6669 3.21798414,0.6669 C4.94540845,0.6669 6.3451319,2.269215 6.3451319,4.24666125 L6.3451319,9.5779125 C6.3451319,11.55492 4.94502517,13.1576738 3.21798414,13.1576738 Z" id="Path"></path>
                            <path d="M85.4697507,11.925225 C83.7423264,11.925225 82.3426029,10.32291 82.3426029,8.34546375 C82.3426029,7.78298625 81.9432295,7.32580875 81.4518698,7.32580875 C80.9612767,7.32580875 80.56152,7.78298625 80.56152,8.34546375 C80.56152,10.32291 79.1614133,11.925225 77.4343722,11.925225 C75.7069479,11.925225 74.3072245,10.32291 74.3072245,8.34546375 C74.3072245,3.8355525 77.5121772,0.1658475 81.4518698,0.1658475 C85.3915624,0.1658475 88.5968984,3.8355525 88.5968984,8.34546375 C88.5968984,10.3224713 87.197175,11.925225 85.4697507,11.925225 Z" id="Path"></path>
                        </g>
                        <path d="M35.5884529,169.209722 L35.5884529,154.729066 C35.5884529,146.815403 28.6692934,140.4 20.1342264,140.4 C11.5991595,140.4 4.68,146.815403 4.68,154.729066 L4.68,180.929346 C4.68,184.392519 7.70793325,187.2 11.4430444,187.2 L41.3491765,187.2 C44.3596342,187.2 46.8,184.937307 46.8,182.146029 C46.8007767,175.808762 42.0004326,170.514623 35.5884529,169.209722 Z" id="Path" fill="#4A5058"></path>
                    </g>
                </g>
            </g>
        </g>
    </g>
</svg>