<?xml version="1.0" encoding="UTF-8"?>
<svg width="392px" height="472px" viewBox="0 0 392 472" version="1.1" xmlns="http://www.w3.org/2000/svg" xmlns:xlink="http://www.w3.org/1999/xlink">
    <!-- Generator: Sketch 57.1 (83088) - https://sketch.com -->
    <title>header-hero-vector</title>
    <desc>Created with Sketch.</desc>
    <defs>
        <path d="M223.5,453.67897 C413.816594,377.577982 447,352.119473 447,226.839485 C447,101.559497 346.935642,0 223.5,0 C100.064358,0 0,101.559497 0,226.839485 C0,352.119473 33.1834061,529.779959 223.5,453.67897 Z" id="path-1"></path>
        <polygon id="path-3" points="0.05856 0 488 0 488 341 0.05856 341"></polygon>
    </defs>
    <g id="nanny-scheduler" stroke="none" stroke-width="1" fill="none" fill-rule="evenodd">
        <g id="nanny-main-landing-html-markup" transform="translate(-632.000000, -114.000000)">
            <g id="hero-section" transform="translate(79.000000, 114.000000)">
                <g id="header-hero-vector" transform="translate(553.000000, 0.000000)">
                    <mask id="mask-2" fill="white">
                        <use xlink:href="#path-1"></use>
                    </mask>
                    <use id="Mask" fill="#D8D8D8" xlink:href="#path-1"></use>
                    <g id="19130-copy" mask="url(#mask-2)">
                        <g transform="translate(-20.000000, 14.000000)">
                            <g id="Group-6" stroke-width="1" fill="none">
                                <mask id="mask-4" fill="white">
                                    <use xlink:href="#path-3"></use>
                                </mask>
                                <g id="Clip-2"></g>
                                <polygon id="Fill-4" fill="#DD601B" mask="url(#mask-4)" points="0.05856 260.957557 488 260.957557 488 254.151197 0.05856 254.151197"></polygon>
                                <polygon id="Fill-5" fill="#F47E31" mask="url(#mask-4)" points="0.05856 341 488 341 488 260.568817 0.05856 260.568817"></polygon>
                            </g>
                            <path d="M488,341 L123.807552,341 C121.483696,337.367863 120.251008,333.621734 120.251008,329.788894 C120.251008,305.011834 171.067424,283.755843 243.481744,274.686217 L260.892608,274.686217 C262.590848,274.686217 264.087056,273.77526 264.913728,272.419054 C281.9664,270.932294 299.951152,270.097331 318.555664,270.008671 C318.44928,270.398386 318.393648,270.806611 318.393648,271.228477 C318.393648,273.812283 320.510592,275.925509 323.097968,275.925509 L409.445664,275.925509 C441.130528,280.466654 468.198912,287.3948 488,295.921749 L488,341 M171.994624,315.968651 C169.627824,315.968651 167.692416,317.958143 167.692416,320.38996 C167.692416,322.820803 169.627824,324.810294 171.994624,324.810294 L232.95656,324.810294 C235.321408,324.810294 237.257792,322.820803 237.257792,320.38996 C237.257792,317.958143 235.321408,315.968651 232.95656,315.968651 L171.994624,315.968651 M371.604192,309.111629 C369.016816,309.111629 366.898896,311.224854 366.898896,313.807686 C366.898896,316.390517 369.016816,318.503743 371.604192,318.503743 L409.790192,318.503743 C412.378544,318.503743 414.496464,316.390517 414.496464,313.807686 C414.496464,311.224854 412.378544,309.111629 409.790192,309.111629 L401.475648,309.111629 C403.90296,306.708066 405.64512,303.615683 406.382976,300.152097 L439.05848,300.152097 C441.645856,300.152097 443.7628,298.037897 443.7628,295.455066 C443.7628,292.872234 441.645856,290.759009 439.05848,290.759009 L437.271424,290.759009 C437.058656,289.76134 436.170496,289.013089 435.107632,289.013089 L433.244448,289.013089 C434.299504,288.844537 435.107632,287.931631 435.107632,286.829714 C435.107632,285.608934 434.11504,284.620034 432.893088,284.620034 L402.324768,284.620034 C399.04248,280.889494 394.227872,278.534646 388.8628,278.534646 C378.970064,278.534646 370.950272,286.540351 370.950272,296.414737 C370.950272,301.379697 372.977424,305.871154 376.249952,309.111629 L371.604192,309.111629 M281.34664,305.574971 C278.758288,305.574971 276.641344,307.689171 276.641344,310.272003 C276.641344,312.854834 278.758288,314.96806 281.34664,314.96806 L346.073984,314.96806 C348.66136,314.96806 350.778304,312.854834 350.778304,310.272003 C350.778304,307.689171 348.66136,305.574971 346.073984,305.574971 L281.34664,305.574971 M187.50912,293.623409 C184.920768,293.623409 182.803824,295.736634 182.803824,298.319466 C182.803824,300.903271 184.920768,303.017471 187.50912,303.017471 L253.34032,303.017471 C255.928672,303.017471 258.045616,300.903271 258.045616,298.319466 C258.045616,295.736634 255.928672,293.623409 253.34032,293.623409 L187.50912,293.623409" id="Fill-7" fill="#FA8A47"></path>
                            <path d="M113.939216,303.216226 L52.213072,303.216226 C49.625696,303.216226 47.507776,301.102026 47.507776,298.51822 C47.507776,295.935389 49.625696,293.822163 52.213072,293.822163 L113.939216,293.822163 C116.526592,293.822163 118.643536,295.935389 118.643536,298.51822 C118.643536,301.102026 116.526592,303.216226 113.939216,303.216226" id="Fill-8" fill="#E46922"></path>
                            <path d="M346.073984,314.96806 L281.34664,314.96806 C278.758288,314.96806 276.641344,312.854834 276.641344,310.272003 C276.641344,307.689171 278.758288,305.574971 281.34664,305.574971 L346.073984,305.574971 C348.66136,305.574971 350.778304,307.689171 350.778304,310.272003 C350.778304,312.854834 348.66136,314.96806 346.073984,314.96806" id="Fill-9" fill="#E66D28"></path>
                            <path d="M439.05848,300.152097 L406.382976,300.152097 C406.639664,298.946906 406.774352,297.696897 406.774352,296.414737 C406.774352,295.398557 406.68944,294.401863 406.526448,293.432449 L435.107632,293.432449 C436.329584,293.432449 437.320224,292.442574 437.320224,291.221794 C437.320224,291.062986 437.303632,290.908074 437.271424,290.759009 L439.05848,290.759009 C441.645856,290.759009 443.7628,292.872234 443.7628,295.455066 C443.7628,298.037897 441.645856,300.152097 439.05848,300.152097" id="Fill-10" fill="#E66D28"></path>
                            <path d="M409.790192,318.503743 L371.604192,318.503743 C369.016816,318.503743 366.898896,316.390517 366.898896,313.807686 C366.898896,311.224854 369.016816,309.111629 371.604192,309.111629 L376.249952,309.111629 C379.487344,312.316054 383.94376,314.295803 388.8628,314.295803 C393.78184,314.295803 398.238256,312.316054 401.475648,309.111629 L409.790192,309.111629 C412.378544,309.111629 414.496464,311.224854 414.496464,313.807686 C414.496464,316.390517 412.378544,318.503743 409.790192,318.503743" id="Fill-11" fill="#E66D28"></path>
                            <path d="M232.95656,324.810294 L171.994624,324.810294 C169.627824,324.810294 167.692416,322.820803 167.692416,320.38996 C167.692416,317.958143 169.627824,315.968651 171.994624,315.968651 L232.95656,315.968651 C235.321408,315.968651 237.257792,317.958143 237.257792,320.38996 C237.257792,322.820803 235.321408,324.810294 232.95656,324.810294" id="Fill-12" fill="#E66D28"></path>
                            <path d="M253.34032,303.017471 L187.50912,303.017471 C184.920768,303.017471 182.803824,300.903271 182.803824,298.319466 C182.803824,295.736634 184.920768,293.623409 187.50912,293.623409 L253.34032,293.623409 C255.928672,293.623409 258.045616,295.736634 258.045616,298.319466 C258.045616,300.903271 255.928672,303.017471 253.34032,303.017471" id="Fill-13" fill="#E66D28"></path>
                            <path d="M243.481744,274.686217 L27.185504,274.686217 C24.598128,274.686217 22.480208,272.573966 22.480208,269.989186 C22.480208,267.406354 24.598128,265.293129 27.185504,265.293129 L260.892608,265.293129 C263.479984,265.293129 265.596928,267.406354 265.596928,269.989186 C265.596928,270.87676 265.347072,271.7088 264.913728,272.419054 C257.591776,273.057211 250.432816,273.81618 243.481744,274.686217" id="Fill-14" fill="#E46922"></path>
                            <path d="M260.892608,274.686217 L243.481744,274.686217 C250.432816,273.81618 257.591776,273.057211 264.913728,272.419054 C264.087056,273.77526 262.590848,274.686217 260.892608,274.686217" id="Fill-15" fill="#E66D28"></path>
                            <path d="M465.134272,275.925509 L409.445664,275.925509 C382.958,272.128717 353.245632,270.000877 321.853568,270.000877 C320.753616,270.000877 319.651712,270.0038 318.555664,270.008671 C319.096368,268.01236 320.932224,266.531446 323.097968,266.531446 L465.134272,266.531446 C467.722624,266.531446 469.839568,268.644671 469.839568,271.228477 L469.839568,271.229451 C469.839568,273.812283 467.722624,275.925509 465.134272,275.925509" id="Fill-16" fill="#E46922"></path>
                            <path d="M409.445664,275.925509 L323.097968,275.925509 C320.510592,275.925509 318.393648,273.812283 318.393648,271.228477 C318.393648,270.806611 318.44928,270.398386 318.555664,270.008671 C319.651712,270.0038 320.753616,270.000877 321.853568,270.000877 C353.245632,270.000877 382.958,272.128717 409.445664,275.925509" id="Fill-17" fill="#E66D28"></path>
                            <polyline id="Fill-18" fill="#64231D" points="31.462336 270.614677 38.030816 270.614677 43.076736 253.674771 31.462336 251.805117 31.462336 270.614677"></polyline>
                            <path d="M230.495088,194.862014 C230.495088,203.724117 230.495088,222.066994 230.495088,222.066994 L242.138768,219.853417 L242.138768,161.373866 C242.138768,161.373866 239.962288,169.573454 234.676272,174.850186 C229.38928,180.127891 230.495088,186.000886 230.495088,194.862014" id="Fill-22" fill="#516CB7"></path>
                            <polygon id="Fill-23" fill="#6782CE" points="43.076736 255.308649 242.214896 255.308649 242.214896 229.785286 43.076736 229.785286"></polygon>
                            <path d="M236.69952,214.348703 L48.591136,214.348703 C45.54504,214.348703 43.076736,216.813646 43.076736,219.853417 L43.076736,224.279597 C43.076736,227.320343 45.54504,229.785286 48.591136,229.785286 L236.69952,229.785286 C239.74464,229.785286 242.21392,227.320343 242.21392,224.279597 L242.21392,219.853417 C242.21392,216.813646 239.74464,214.348703 236.69952,214.348703" id="Fill-24" fill="#525C9E"></path>
                            <polyline id="Fill-26" fill="#64231D" points="247.25984 270.614677 253.827344 270.614677 253.827344 251.805117 242.214896 253.674771 247.25984 270.614677"></polyline>
                            <polyline id="Fill-27" fill="#525C9E" points="242.289072 200.769109 252.37896 188.95492 242.289072 188.95492 242.289072 200.769109"></polyline>
                            <path d="M252.229632,188.95492 C247.442352,188.95492 242.138768,189.823983 242.138768,200.769109 C242.138768,211.714234 242.138768,255.308649 242.138768,255.308649 L257.233584,255.308649 C257.233584,255.308649 257.233584,220.664023 257.233584,210.041386 C257.233584,199.418749 258.756144,188.95492 252.229632,188.95492" id="Fill-28" fill="#6782CE"></path>
                            <polyline id="Fill-29" fill="#22B99A" points="326.7892 227.431411 456.638192 227.431411 456.638192 216.749343 326.333408 216.749343 326.7892 227.431411"></polyline>
                            <path d="M405.80128,147.042123 C405.183472,145.426757 408.162224,139.212763 401.402448,133.364126 C398.809216,131.120346 386.019712,133.222854 386.019712,133.222854 C386.019712,133.222854 382.657392,135.887526 381.597456,139.090003 C380.53752,142.291506 382.622256,145.930463 382.843808,147.042123 C383.378656,149.734074 380.628288,151.171146 380.628288,151.171146 C380.628288,151.171146 382.691552,153.08854 386.815152,152.6316 C388.353328,152.460126 394.830064,150.893474 396.384832,151.171146 C397.938624,151.448817 400.465488,152.703697 401.96072,152.745591 C405.80128,152.853737 408.162224,149.352154 408.162224,149.352154 C408.162224,149.352154 406.420064,148.658463 405.80128,147.042123" id="Fill-30" fill="#7A2D2A"></path>
                            <path d="M389.639696,150.584626 L388.764224,155.72106 C388.764224,155.72106 388.430432,158.545514 392.535488,158.805649 C396.64152,159.065783 397.128544,155.446311 397.128544,155.446311 L396.282352,150.584626 L389.639696,150.584626" id="Fill-31" fill="#E58D51"></path>
                            <path d="M392.836096,135.191886 C388.903792,135.01554 385.527808,139.048109 385.296496,144.198183 C385.063232,149.349231 388.06248,153.66824 391.99576,153.844586 C395.928064,154.020931 399.304048,149.989337 399.536336,144.838289 C399.768624,139.68724 396.7684,135.369206 392.836096,135.191886" id="Fill-32" fill="#F79F63"></path>
                            <path d="M386.019712,133.222854 C381.14752,137.250551 384.853392,141.19446 384.853392,141.19446 C384.853392,141.19446 387.786272,141.67186 390.633264,136.537374 C391.3516,140.966477 398.68136,144.578154 399.6476,143.901026 C400.88712,144.531389 400.71632,146.23444 400.71632,146.23444 C405.040976,143.632123 403.105568,135.190911 401.402448,133.364126 C399.560736,131.386326 391.49312,128.697297 386.019712,133.222854" id="Fill-33" fill="#7A2D2A"></path>
                            <path d="M399.074688,143.901026 L398.386608,148.414891 C398.386608,148.414891 401.529328,148.6419 401.793824,145.772629 C402.056368,142.901409 399.074688,143.901026 399.074688,143.901026" id="Fill-34" fill="#F79F63"></path>
                            <path d="M383.69488,143.545411 C383.544576,146.331869 385.811824,146.596874 385.811824,146.596874 L386.019712,141.892049 C386.019712,141.892049 383.845184,140.781363 383.69488,143.545411" id="Fill-35" fill="#F79F63"></path>
                            <path d="M396.47072,212.128306 C393.18648,215.442826 395.67528,216.749343 398.995632,216.749343 C400.324944,216.749343 401.725504,216.436597 401.725504,214.026214 C401.725504,212.539454 401.82408,210.807174 401.906064,209.105097 L396.389712,209.105097 C396.684464,210.60842 396.868928,211.724951 396.47072,212.128306" id="Fill-36" fill="#F79F63"></path>
                            <path d="M387.797984,209.105097 L382.282608,209.105097 C382.364592,210.807174 382.461216,212.539454 382.461216,214.026214 C382.461216,216.436597 383.863728,216.749343 385.19304,216.749343 C388.51144,216.749343 391.00024,215.442826 387.717952,212.128306 C387.318768,211.724951 387.503232,210.60842 387.797984,209.105097" id="Fill-37" fill="#F79F63"></path>
                            <path d="M404.105968,157.997966 C401.624976,156.570637 397.128544,155.446311 397.128544,155.446311 C397.128544,155.446311 395.790448,157.852797 392.915152,157.997966 C390.040832,158.144109 388.764224,155.72106 388.764224,155.72106 C388.764224,155.72106 384.486416,156.105903 383.39232,157.634557 C382.807696,158.451983 375.778544,164.356154 374.45216,168.0448 C374.089088,169.055134 375.005552,174.451703 377.634896,173.893437 C379.203328,173.561206 382.131328,170.52046 382.131328,170.52046 C382.131328,170.52046 380.858624,185.80408 381.058704,190.467986 C381.495952,200.667783 382.355808,210.606471 382.355808,210.606471 L387.539344,210.606471 C387.539344,210.606471 388.75056,207.754737 390.101344,199.787029 C390.856768,195.337466 391.870832,190.246823 391.870832,190.246823 L396.648352,210.606471 L401.832864,210.606471 C401.832864,210.606471 403.055792,202.699169 402.937696,194.981851 C402.880112,191.183111 402.062224,182.022877 402.031968,179.547217 C402.001712,177.072531 402.382352,171.103083 402.382352,171.103083 C402.382352,171.103083 408.22664,173.935331 409.79312,173.49398 C412.637184,172.693117 410.96432,167.535249 409.865344,165.497043 C408.767344,163.457863 405.95256,159.060911 404.105968,157.997966" id="Fill-38" fill="#22B99A"></path>
                            <polyline id="Fill-39" fill="#12A07E" points="397.249568 180.858606 395.790448 183.915914 402.677104 189.738246 402.382352 185.458209 397.249568 180.858606"></polyline>
                            <polyline id="Fill-40" fill="#12A07E" points="381.194368 185.458209 381.039184 189.620357 387.786272 183.915914 386.327152 180.858606 381.194368 185.458209"></polyline>
                            <path d="M392.22512,157.977506 C389.75096,157.974583 388.764224,155.72106 388.764224,155.72106 L386.019712,156.228663 C386.019712,156.228663 386.492096,160.291434 392.22512,160.509674 C397.95912,160.728889 399.6476,156.174103 399.6476,156.174103 L397.128544,155.446311 C397.128544,155.446311 395.188256,157.981403 392.22512,157.977506" id="Fill-41" fill="#12A07E"></path>
                            <path d="M405.80128,167.71744 C405.80128,167.71744 408.883488,174.848237 410.56904,173.079909 C412.54056,171.014423 414.705328,164.699103 416.111744,159.330789 C414.285648,158.723809 412.476144,158.068114 410.645168,157.4738 C408.181744,162.045149 405.80128,167.71744 405.80128,167.71744" id="Fill-42" fill="#22B99A"></path>
                            <path d="M369.86984,158.439317 C369.902048,158.617611 369.911808,158.77642 369.96256,158.972251 C371.364096,164.413637 373.145296,169.355214 375.800992,173.15298 C377.200576,175.153189 380.365744,167.71744 380.365744,167.71744 C380.365744,167.71744 378.304432,162.804117 376.03328,158.439317 L369.86984,158.439317" id="Fill-43" fill="#22B99A"></path>
                            <polygon id="Fill-48" fill="#893333" points="406.480576 228.453437 410.89112 228.453437 410.89112 164.137914 406.480576 164.137914"></polygon>
                            <polygon id="Fill-49" fill="#893333" points="389.56064 228.453437 393.971184 228.453437 393.971184 164.137914 389.56064 164.137914"></polygon>
                            <polygon id="Fill-50" fill="#893333" points="373.223376 228.453437 377.634896 228.453437 377.634896 164.137914 373.223376 164.137914"></polygon>
                            <polygon id="Fill-51" fill="#893333" points="356.32296 228.453437 360.733504 228.453437 360.733504 164.137914 356.32296 164.137914"></polygon>
                            <polygon id="Fill-52" fill="#893333" points="340.187728 270.991726 344.599248 270.991726 344.599248 164.137914 340.187728 164.137914"></polygon>
                            <polygon id="Fill-53" fill="#64231D" points="324.582464 270.991726 328.99496 270.991726 328.99496 164.137914 324.582464 164.137914"></polygon>
                            <polygon id="Fill-54" fill="#64231D" points="324.582464 164.137914 458.844928 164.137914 458.844928 158.972251 324.582464 158.972251"></polygon>
                            <polygon id="Fill-55" fill="#64231D" points="325.606288 230.013269 458.844928 230.013269 458.844928 224.847606 325.606288 224.847606"></polygon>
                            <path d="M416.52752,156.649554 C416.56656,156.010423 415.841392,155.62558 415.1416,156.010423 C415.008864,155.057571 413.98016,155.285554 413.529248,155.785363 C412.920224,155.334269 412.377568,155.6665 411.928608,156.010423 C410.49584,157.110391 409.493488,159.214849 409.493488,159.214849 C409.493488,159.214849 410.824752,160.265129 411.558704,159.393143 C411.558704,160.000123 411.196608,160.370351 411.92568,160.914977 C412.323888,161.212134 412.754304,161.014354 413.21888,160.619769 C413.086144,161.562877 414.212448,162.088017 415.206992,160.619769 C415.1416,161.561903 415.871648,162.270209 416.841792,160.8156 C417.587456,159.696146 418.124256,156.646631 416.52752,156.649554" id="Fill-56" fill="#F79F63"></path>
                            <path d="M374.824016,156.010423 C374.376032,155.6665 373.8324,155.334269 373.223376,155.785363 C372.771488,155.285554 371.744736,155.057571 371.612,156.010423 C370.911232,155.62558 370.18704,156.010423 370.22608,156.649554 C368.628368,156.646631 369.164192,159.696146 369.911808,160.8156 C370.880976,162.270209 371.612,161.561903 371.545632,160.619769 C372.540176,162.088017 373.66648,161.562877 373.53472,160.619769 C373.99832,161.014354 374.429712,161.212134 374.82792,160.914977 C375.556992,160.370351 375.194896,160.000123 375.194896,159.393143 C375.927872,160.265129 377.259136,159.214849 377.259136,159.214849 C377.259136,159.214849 376.25776,157.110391 374.824016,156.010423" id="Fill-57" fill="#F79F63"></path>
                            <path d="M391.765424,132.045905 C385.429232,132.052737 384.41224,138.437231 384.41224,138.437231 C384.41224,138.437231 387.426128,135.352643 390.786496,135.111994 C394.14784,134.871346 401.250192,137.764 401.250192,137.764 C401.250192,137.764 400.670448,132.036174 391.765424,132.045905" id="Fill-58" fill="#12A07E"></path>
                            <path d="M392.677984,144.479751 C392.60576,144.616151 392.746304,144.731117 392.875136,144.676557 C393.310432,144.492417 393.702784,144.296586 394.126368,144.179671 C394.0112,144.42032 394.008272,144.722349 394.154672,144.958126 C394.417216,145.383889 395.042832,145.507623 395.395168,145.124729 C395.628432,144.87044 395.669424,144.469034 395.488864,144.19526 C395.949536,144.355043 396.315536,144.642457 396.80256,144.84998 C397.048512,144.955203 397.274944,144.74086 397.161728,144.491443 C396.492192,143.00858 393.402176,143.120623 392.677984,144.479751" id="Fill-59" fill="#9E4D4D"></path>
                            <path d="M392.261232,148.547394 C391.90304,148.8465 391.401376,148.849423 390.957296,148.762711 C390.729888,148.717894 390.581536,148.817271 390.815776,149.03746 C391.337936,149.526551 392.169488,149.391126 392.692624,148.978029 C392.997136,148.736406 392.563792,148.296029 392.261232,148.547394" id="Fill-60" fill="#DB7E40"></path>
                            <path d="M388.239136,143.49962 C387.51104,143.559051 386.823936,144.06568 386.633616,144.744757 C386.605312,144.845109 386.70584,144.985406 387.0084,144.709683 C387.274848,144.467086 387.435888,144.214746 387.94048,144.18844 C387.72576,144.70676 388.153248,145.434551 388.695904,145.253334 C389.164384,145.098423 389.289312,144.610306 389.149744,144.22254 C389.454256,144.316071 389.74608,144.57036 390.051568,144.675583 C390.348272,144.777883 390.367792,144.381349 390.228224,144.232283 C389.771456,143.739294 388.992608,143.43824 388.239136,143.49962" id="Fill-61" fill="#9E4D4D"></path>
                            <path d="M387.548128,141.621197 C386.18856,142.28566 385.80304,143.577563 385.80304,143.577563 C385.80304,143.577563 386.65216,142.538 388.313312,142.379191 C389.38984,142.274943 390.247744,142.052806 389.95592,141.543254 C389.743152,141.171077 388.907696,140.958683 387.548128,141.621197" id="Fill-62" fill="#7A2D2A"></path>
                            <path d="M392.480832,141.393214 C392.223168,142.138543 392.738496,142.252534 393.9136,142.109314 C395.087728,141.966094 395.545472,141.871589 395.545472,141.871589 L394.285456,140.966477 C394.285456,140.966477 392.738496,140.646911 392.480832,141.393214" id="Fill-63" fill="#7A2D2A"></path>
                            <path d="M393.218688,150.055589 C392.636992,150.411203 392.331504,150.429714 391.417968,150.477454 C391.015856,150.497914 390.699632,150.514477 390.339488,150.371257 C390.01448,150.242651 389.998864,150.55832 390.074016,150.646006 C390.870432,151.565731 393.008848,151.461483 393.580784,150.417049 C393.70376,150.191014 393.450976,149.912369 393.218688,150.055589" id="Fill-64" fill="#DB7E40"></path>
                            <path d="M224.247712,128.93892 C224.247712,128.93892 217.61384,134.344257 211.14784,142.341194 C207.040832,147.42112 202.032,154.214814 202.032,154.214814 C202.032,154.214814 193.769184,151.478046 187.4408,149.700949 C181.112416,147.924826 177.523664,147.795246 177.523664,147.795246 L174.587856,156.181897 C174.587856,156.181897 183.081984,161.932131 189.754896,165.128763 C195.87832,168.063311 200.1532,170.31586 206.450352,170.079109 C210.817952,169.915429 220.884416,159.128137 224.44096,156.181897 C227.997504,153.235657 235.868944,134.738843 224.247712,128.93892" id="Fill-65" fill="#979FC1"></path>
                            <path d="M160.16648,132.592491 C156.414736,132.660691 149.369968,133.63108 146.26336,132.624643 C143.156752,131.617231 141.70056,130.944974 142.283232,131.943617 C142.532112,132.36938 142.846384,132.776631 142.963504,133.040663 C143.17432,133.52196 142.335936,133.628157 142.040208,133.7061 C140.902192,134.004231 138.096192,134.997029 138.897488,136.573423 C139.925216,138.595066 141.7152,138.619423 143.800912,137.536017 C145.257104,136.778997 145.884672,136.708849 149.565168,137.130714 C153.855664,137.623703 158.396992,139.176714 162.033568,139.329677 C163.951408,139.410543 165.972704,140.557277 165.972704,140.557277 L167.635808,132.570083 C167.635808,132.570083 164.7,132.510651 160.16648,132.592491" id="Fill-66" fill="#F79F63"></path>
                            <path d="M176.095776,175.159034 C173.906608,171.334963 175.515056,151.696286 163.479024,160.046889 C163.479024,160.046889 164.17296,165.461969 165.940496,170.841 C166.889168,173.727809 168.45272,177.924057 169.241328,179.283186 C171.49784,183.17156 175.683904,188.393731 177.911136,191.960591 C180.138368,195.527451 182.993168,195.076357 183.64904,192.523729 C184.588928,188.863337 179.816288,186.368191 179.011088,184.450797 C178.203936,182.535351 178.352288,179.100994 176.095776,175.159034" id="Fill-67" fill="#E58D51"></path>
                            <path d="M187.019168,179.1955 C186.209088,175.910209 183.148352,174.689429 183.148352,174.689429 C183.148352,174.689429 183.748592,172.43688 183.148352,167.784666 C182.549088,163.132451 178.567984,155.539843 178.567984,155.539843 L172.302064,165.67826 C172.302064,165.67826 175.4604,177.036483 176.617936,178.72492 C177.775472,180.415306 185.618608,186.43152 186.388672,187.620149 C188.556368,190.967794 188.82672,193.369409 191.2716,192.806271 C193.71648,192.24216 193.0284,186.961531 191.187664,185.178589 C190.077952,184.104926 188.132784,183.709366 187.019168,179.1955" id="Fill-68" fill="#F79F63"></path>
                            <path d="M161.51336,160.894517 L157.97048,165.185271 C157.97048,165.185271 160.900432,168.5222 162.696272,167.74472 C164.458928,166.98088 166.645168,168.423797 168.197008,169.128206 C169.694192,169.807283 171.867744,169.625091 173.909536,167.227374 C175.108064,165.819531 177.452416,167.719389 180.326736,168.2835 C183.202032,168.846637 186.632672,165.326543 186.632672,165.326543 L181.17488,159.269409 L161.51336,160.894517" id="Fill-69" fill="#FFFFFF"></path>
                            <path d="M180.997248,140.719983 C181.039216,133.79476 175.907408,132.825346 175.907408,132.825346 C175.907408,132.825346 170.789264,131.683483 169.325264,131.438937 C167.861264,131.194391 164.595568,134.51768 163.256496,137.965677 C161.917424,141.413674 162.374192,148.647746 161.896928,154.099849 C161.419664,159.551951 159.076288,162.768069 159.076288,162.768069 C159.076288,162.768069 161.692944,165.368437 162.739216,165.020617 C165.56376,164.08238 165.842896,165.959829 167.820272,166.522966 C169.798624,167.086103 170.381296,164.567574 172.316704,163.613749 C174.252112,162.658949 175.752224,165.396691 179.543008,165.396691 C183.333792,165.396691 187.171424,162.4865 187.171424,162.4865 C187.171424,162.4865 182.57544,155.507691 181.132912,151.938883 C179.690384,148.370074 180.9748,144.429089 180.997248,140.719983" id="Fill-70" fill="#F47E31"></path>
                            <path d="M174.787936,125.093414 L170.714112,126.161231 C169.9704,126.357063 169.437504,126.997169 169.395536,127.763931 C169.33112,128.92528 169.141776,130.734529 168.595216,132.529163 C168.425392,133.08548 168.49176,133.69928 168.858736,134.150374 C169.480448,134.91324 170.632128,135.568934 172.912064,135.39064 C175.251536,135.2065 176.632576,134.515731 177.478768,133.745071 C176.351488,131.302537 175.924976,128.692426 175.788336,127.17254 C175.68976,126.079391 175.8508,124.814769 174.787936,125.093414" id="Fill-71" fill="#E58D51"></path>
                            <path d="M169.425792,111.585917 C165.028912,112.335143 162.212176,117.304 163.132544,122.684006 C164.052912,128.064986 168.361952,131.818909 172.757856,131.069683 C177.15376,130.320457 179.971472,125.3516 179.051104,119.971594 C178.130736,114.590614 173.82072,110.836691 169.425792,111.585917" id="Fill-72" fill="#F79F63"></path>
                            <path d="M183.235216,105.501503 C181.129984,103.792606 179.543008,101.688149 175.962064,103.729277 C171.89312,106.049051 172.876928,108.868634 172.453344,108.962166 L175.345232,113.760523 C175.345232,113.760523 181.339824,113.760523 184.584048,109.994909 C186.812256,107.40818 186.628768,104.856526 186.628768,104.856526 C186.628768,104.856526 184.866112,106.825557 183.235216,105.501503" id="Fill-73" fill="#7A2D2A"></path>
                            <path d="M177.439728,107.077897 C171.394384,104.532089 170.61944,107.855377 170.61944,107.855377 C170.61944,107.855377 177.59784,117.525163 179.609376,116.070554 C181.621888,114.61692 182.300208,109.123897 177.439728,107.077897" id="Fill-74" fill="#FFFFFF"></path>
                            <path d="M177.063968,109.593503 C174.712784,107.961574 167.148784,104.853603 164.045104,111.695037 C158.779584,115.825034 163.360928,120.137223 163.360928,120.137223 L166.507552,115.741246 C166.507552,115.741246 166.69592,117.139346 169.440432,118.677743 C171.34168,119.742637 175.347184,120.071946 177.911136,119.155143 C179.336096,119.529269 179.543008,121.3278 179.543008,121.3278 C183.42944,117.66546 179.23752,111.101697 177.063968,109.593503" id="Fill-75" fill="#7A2D2A"></path>
                            <path d="M177.911136,119.155143 L178.216624,123.977857 C178.216624,123.977857 181.519408,123.508251 181.1456,120.480171 C180.770816,117.452091 177.911136,119.155143 177.911136,119.155143" id="Fill-76" fill="#F79F63"></path>
                            <path d="M161.329872,122.369311 C161.80128,125.284374 164.20712,125.049571 164.20712,125.049571 L163.360928,120.137223 C163.360928,120.137223 160.861392,119.475683 161.329872,122.369311" id="Fill-77" fill="#F79F63"></path>
                            <path d="M177.449488,135.73164 C176.697968,135.466634 174.193552,136.45456 172.34696,137.984189 C169.749824,140.135411 167.548944,143.175183 165.460304,143.710066 C163.610784,144.184543 159.573072,145.189031 157.938272,144.696043 C156.41376,144.235206 154.794576,142.762086 153.830288,142.395754 C152.7196,141.973889 153.501376,143.039757 153.830288,144.119266 C154.12504,145.086731 145.535264,143.959483 147.791776,147.374354 C148.989328,149.185551 150.853488,148.758814 153.151968,148.706203 C155.450448,148.653591 163.030064,150.325466 166.119104,149.20114 C169.208144,148.076814 176.354416,146.165266 178.220528,143.243383 C179.522512,141.203229 180.693712,136.874477 177.449488,135.73164" id="Fill-78" fill="#F79F63"></path>
                            <path d="M215.528128,115.753911 C215.528128,115.753911 219.685888,125.305809 219.808864,127.683066 C219.930864,130.058374 218.31656,134.271186 218.31656,134.271186 L234.953456,127.347911 L224.549296,108.157406 L215.528128,115.753911" id="Fill-79" fill="#E58D51"></path>
                            <path d="M215.761392,90.4653514 C209.23976,90.80148 204.31096,98.0024257 204.753088,106.551783 C204.799936,107.471509 205.692976,107.814457 205.734944,108.702031 C205.810096,110.274529 205.820832,111.913277 206.910048,113.477006 C208.21008,115.345686 209.557936,116.94254 210.432432,118.53842 C211.426,120.350591 213.996784,120.933214 215.701856,120.424637 C219.82448,119.195089 228.810512,113.886206 228.368384,105.337823 C227.927232,96.7884657 222.283024,90.1301971 215.761392,90.4653514" id="Fill-80" fill="#F79F63"></path>
                            <path d="M239.868592,283.613597 C239.868592,283.613597 239.225408,286.454614 238.444608,288.058289 C237.662832,289.663911 232.787712,290.534923 230.141776,291.833646 C227.49584,293.132369 227.716416,298.155786 227.716416,298.155786 C227.716416,298.155786 242.269552,297.98626 245.350784,296.403046 C248.432016,294.819831 248.75312,290.543691 248.75312,290.543691 L250.698288,292.547797 L257.26384,284.041309 L251.297552,277.229103 L239.868592,283.613597" id="Fill-81" fill="#7A2D2A"></path>
                            <path d="M201.101872,285.176351 C195.851968,288.687677 192.8088,290.198794 189.898368,290.6684 C185.29848,291.410806 185.24968,296.025023 185.24968,296.025023 C185.24968,296.025023 194.616352,296.536523 198.974192,295.959746 C202.409712,295.505729 207.039856,293.269743 207.039856,293.269743 L206.967632,296.084454 L217.424496,295.404403 L217.504528,283.52104 L205.75544,279.659946 C205.75544,279.659946 202.586368,284.183554 201.101872,285.176351" id="Fill-82" fill="#64231D"></path>
                            <path d="M202.520976,93.8402771 C205.331856,95.72552 205.201072,101.223414 205.201072,101.223414 C205.201072,101.223414 211.197616,100.032837 219.633184,97.7734686 C221.074736,98.9903514 220.57112,102.690689 221.23968,105.704154 L227.497792,110.976014 C227.497792,110.976014 232.402192,99.9597657 227.760336,93.5479914 C223.903184,88.2186486 216.14008,86.0362486 202.520976,93.8402771" id="Fill-83" fill="#7A2D2A"></path>
                            <path d="M224.244784,102.264926 C221.977536,100.57454 219.937696,103.681537 219.937696,103.681537 L222.473344,110.380726 C222.473344,110.380726 228.368384,105.337823 224.244784,102.264926" id="Fill-84" fill="#F79F63"></path>
                            <path d="M232.264576,122.388797 L219.040752,128.129289 C219.040752,128.129289 218.049136,131.645486 215.502752,141.333783 C212.957344,151.02208 218.821152,179.547217 218.821152,179.547217 L244.959408,178.202703 C244.959408,178.202703 247.179808,149.345334 239.6324,132.272926 C236.544336,125.289246 232.264576,122.388797 232.264576,122.388797" id="Fill-85" fill="#FFFFFF"></path>
                            <path d="M220.188528,186.135337 C220.128016,186.976146 208.743952,216.49408 206.501104,221.543803 C204.259232,226.592551 202.625408,230.240277 203.09584,236.998897 C203.2276,238.892909 200.907648,282.019666 200.907648,282.019666 L219.605856,285.073077 C219.605856,285.073077 223.807536,243.182689 223.569392,238.576266 C223.332224,233.970817 220.188528,186.135337 220.188528,186.135337" id="Fill-86" fill="#4D374B"></path>
                            <path d="M246.943616,201.900254 C248.204608,189.476163 245.081408,182.024826 245.081408,182.024826 L219.018304,183.365443 C219.018304,183.365443 218.357552,219.361403 220.1368,236.36756 C221.917024,253.373717 236.69464,285.791126 236.69464,285.791126 L254.144544,277.23982 C254.144544,277.23982 242.97032,245.387497 238.42216,232.652609 C239.604096,220.953386 245.989088,211.29042 246.943616,201.900254" id="Fill-87" fill="#624A5F"></path>
                            <polyline id="Fill-88" fill="#4D374B" points="218.821152 179.547217 219.018304 183.365443 245.157536 182.020929 244.959408 178.202703 218.821152 179.547217"></polyline>
                            <path d="M216.55488,137.348954 L215.02744,136.264574 C215.02744,136.264574 212.671376,149.557729 212.242912,153.289243 C211.815424,157.020757 212.327824,175.525366 212.242912,175.830317 C212.158976,176.13332 214.011424,180.78456 214.011424,180.78456 C214.011424,180.78456 218.356576,177.343383 217.957392,174.855057 C217.559184,172.366731 216.55488,137.348954 216.55488,137.348954" id="Fill-89" fill="#5B72C4"></path>
                            <path d="M214.011424,136.264574 C214.82736,138.067977 216.55488,137.348954 216.55488,137.348954 L217.898832,131.870546 L217.983744,130.24836 C217.983744,130.24836 215.675504,133.055277 214.626304,135.024309 C214.294464,135.647851 214.058272,136.115509 214.011424,136.264574" id="Fill-90" fill="#5B72C4"></path>
                            <path d="M217.68216,126.8861 L217.898832,131.870546 C217.898832,131.870546 224.84112,128.234511 228.384,126.46326 C232.625696,124.344189 234.400064,124.297423 234.400064,124.297423 L232.374864,118.310437 C232.374864,118.310437 222.681232,122.56222 217.68216,126.8861" id="Fill-91" fill="#A7ADD0"></path>
                            <path d="M229.757232,129.344223 C225.51456,128.503414 220.567216,135.487094 215.156272,144.230334 C211.720752,149.782789 207.603984,157.150337 207.603984,157.150337 C207.603984,157.150337 199.063008,155.469694 192.560896,154.498331 C186.05976,153.527943 182.48272,153.849457 182.48272,153.849457 L180.62344,162.537163 C180.62344,162.537163 189.77344,167.177686 196.794784,169.514997 C203.238336,171.6594 207.762096,173.359529 213.980192,172.337503 C218.29216,171.627249 226.92488,159.665943 230.083216,156.297837 C233.242528,152.929731 245.264896,132.420043 229.757232,129.344223" id="Fill-92" fill="#A7ADD0"></path>
                            <path d="M169.35064,151.249089 C171.0684,152.444537 172.182992,153.742286 172.182992,153.742286 C172.182992,153.742286 166.73008,154.533406 163.448768,156.250097 C160.76184,157.655017 160.68376,162.045149 165.981488,162.441683 C171.280192,162.839191 180.62344,162.537163 180.62344,162.537163 L183.929152,154.312243 C183.929152,154.312243 175.950352,151.849249 172.802752,150.386846 C169.654176,148.925417 168.07208,150.359566 169.35064,151.249089" id="Fill-93" fill="#F79F63"></path>
                            <path d="M182.48272,153.849457 L180.62344,162.537163 L183.776896,164.07556 C183.776896,164.07556 185.214544,162.624849 186.087088,159.905617 C187.10896,156.724574 186.4648,153.344777 186.4648,153.344777 L182.48272,153.849457" id="Fill-94" fill="#979FC1"></path>
                            <path d="M171.345584,121.740897 C171.2636,121.892886 171.422688,122.021491 171.56616,121.960111 C172.052208,121.754537 172.489456,121.536297 172.963792,121.405743 C172.83496,121.674646 172.831056,122.010774 172.994048,122.274806 C173.2888,122.751231 173.98664,122.888606 174.380944,122.45992 C174.641536,122.177377 174.687408,121.729206 174.485376,121.422306 C174.998752,121.601574 175.408672,121.922114 175.952304,122.153994 C176.227536,122.270909 176.48032,122.032209 176.354416,121.753563 C175.605824,120.097277 172.154688,120.221986 171.345584,121.740897" id="Fill-95" fill="#9E4D4D"></path>
                            <path d="M171.242128,125.723777 C170.828304,126.068674 170.251488,126.071597 169.74104,125.971246 C169.478496,125.919609 169.30672,126.0336 169.577072,126.287889 C170.178288,126.851026 171.13672,126.696114 171.737936,126.218714 C172.089296,125.942017 171.589584,125.434414 171.242128,125.723777" id="Fill-96" fill="#DB7E40"></path>
                            <path d="M166.386528,120.6458 C165.57352,120.711077 164.805408,121.278111 164.59264,122.03708 C164.561408,122.149123 164.673648,122.305009 165.011344,121.997134 C165.31,121.726283 165.488608,121.444714 166.052736,121.414511 C165.81264,121.994211 166.29088,122.806766 166.896,122.605089 C167.420112,122.431666 167.55968,121.886066 167.40352,121.453483 C167.74512,121.558706 168.070128,121.842223 168.409776,121.959137 C168.742592,122.073129 168.764064,121.630803 168.60888,121.463226 C168.098432,120.912754 167.22784,120.5776 166.386528,120.6458" id="Fill-97" fill="#9E4D4D"></path>
                            <path d="M166.267456,118.677743 C164.693168,118.903777 163.88992,120.071946 163.88992,120.071946 C163.88992,120.071946 166.171808,119.270109 166.868672,119.346103 C167.997904,119.467889 168.7016,119.824477 168.7016,119.374357 C168.7016,118.925211 167.84272,118.451709 166.267456,118.677743" id="Fill-98" fill="#7A2D2A"></path>
                            <path d="M168.900704,127.761009 C168.900704,127.761009 169.530224,129.505954 171.448064,129.249717 C173.01064,129.04122 173.281968,127.618763 173.281968,127.10434 C171.572992,128.054269 168.900704,127.761009 168.900704,127.761009" id="Fill-99" fill="#FFFFFF"></path>
                            <path d="M216.8184,105.374846 C215.09088,104.278774 212.198992,104.62562 211.412336,106.750537 C211.35768,106.898629 211.556784,106.981443 211.657312,106.892783 C212.029168,106.566397 212.401024,106.28288 212.77776,106.055871 C212.737744,106.197143 212.688944,106.919089 212.877312,107.120766 C213.135952,107.398437 213.579056,107.420846 213.906992,107.263986 C214.699504,106.884989 214.453552,106.011054 213.882592,105.584317 C214.667296,105.388486 215.502752,105.486889 216.443616,106.0169 C216.86232,106.253651 217.222464,105.631083 216.8184,105.374846" id="Fill-100" fill="#9E4D4D"></path>
                            <path d="M214.352048,115.509366 C213.79768,115.918566 213.237456,116.23326 212.544496,116.338483 C211.975488,116.425194 211.402576,116.292691 210.842352,116.406683 C210.722304,116.430066 210.694976,116.588874 210.773056,116.668766 C211.783216,117.714174 213.918704,116.939617 214.824432,116.121217 C215.147488,115.828931 214.712192,115.243386 214.352048,115.509366" id="Fill-101" fill="#DB7E40"></path>
                            <path d="M211.263984,113.710834 C210.927264,113.744934 210.67936,113.946611 210.364112,114.049886 C210.03032,114.158031 209.65456,114.182389 209.306128,114.189209 C209.0104,114.195054 208.920608,114.573077 209.159728,114.727989 C209.816576,115.156674 211.39672,115.052426 211.537264,114.068397 C211.559712,113.906666 211.467968,113.690374 211.263984,113.710834" id="Fill-102" fill="#DB7E40"></path>
                            <path d="M214.862496,101.76122 C212.103344,101.996997 209.380304,102.78422 209.43008,102.888469 C209.43008,102.888469 210.28896,104.384971 212.071136,103.928031 C214.465264,103.313257 218.881664,102.888469 218.881664,102.888469 C218.881664,102.888469 217.621648,101.526417 214.862496,101.76122" id="Fill-103" fill="#7A2D2A"></path>
                            <path d="M205.734944,104.014743 C204.990256,104.586649 204.708192,104.956877 204.724784,105.642774 C204.742352,106.328671 204.753088,106.551783 204.753088,106.551783 C204.753088,106.551783 205.68224,105.4372 206.623104,105.042614 C208.054896,104.442454 207.539568,103.184651 207.539568,103.184651 C207.539568,103.184651 206.479632,103.442837 205.734944,104.014743" id="Fill-104" fill="#7A2D2A"></path>
                            <path d="M208.32232,106.901551 C207.620576,106.539117 206.413264,106.386154 205.553408,107.361414 C205.270368,107.681954 205.655888,108.157406 206.075568,107.868043 C206.252224,107.746257 206.412288,107.617651 206.605536,107.536786 C206.41912,107.766717 206.310784,108.406823 206.840752,108.665983 C207.278,108.880326 207.828464,108.541274 207.849936,108.033671 C207.861648,107.759897 207.70256,107.505609 207.47808,107.369209 C207.700608,107.36726 207.92216,107.382849 208.134928,107.427666 C208.509712,107.506583 208.706864,107.099331 208.32232,106.901551" id="Fill-105" fill="#9E4D4D"></path>
                            <path d="M116.268928,149.838323 C113.541984,151.429331 112.935888,152.598474 110.208944,153.34088 C105.116176,154.727289 93.927312,157.145466 93.927312,157.145466 C93.927312,157.145466 92.76392,153.261963 91.323344,146.386429 C89.882768,139.510894 86.813248,128.281277 82.702336,127.335246 C75.828368,125.75398 73.84416,131.913414 75.828368,139.040314 C77.813552,146.167214 82.045488,155.436569 84.423024,161.01338 C85.681088,163.964491 87.524752,166.390463 90.125792,167.036414 C92.439888,167.610269 98.348592,165.573037 101.613312,164.0551 C107.983664,161.093271 118.280464,158.754011 121.361696,155.664551 C126.6604,150.350797 121.74624,146.645589 116.268928,149.838323" id="Fill-106" fill="#E58D51"></path>
                            <path d="M98.125088,289.2362 C94.757888,288.169357 91.418016,286.186686 89.50408,284.391077 C88.505632,283.455763 86.364288,282.591571 86.894256,279.259514 C87.536464,275.2211 95.648976,237.4383 95.983744,234.08968 C96.644496,227.488894 100.613888,168.417951 84.415216,177.658077 C79.208256,180.628674 77.225024,193.992951 78.547504,201.583611 C79.869008,209.173297 82.26704,225.358131 80.94456,231.62766 C79.62208,237.898163 77.264064,242.916709 77.849664,252.157809 C78.320096,259.586737 78.445024,276.013194 77.90432,282.137554 C77.714,284.290726 77.13816,286.750797 77.012256,287.676369 C76.545728,291.107803 75.725888,294.27618 86.096864,295.391737 C96.46784,296.50632 99.474896,297.218523 103.068528,294.877314 C106.665088,292.535131 102.7972,290.717114 98.125088,289.2362" id="Fill-107" fill="#E58D51"></path>
                            <path d="M104.4808,290.96848 C103.258848,290.564151 98.125088,289.2362 98.125088,289.2362 C98.125088,289.2362 98.692144,290.931457 94.202544,290.824286 C88.301648,290.68204 77.012256,287.676369 77.012256,287.676369 C77.012256,287.676369 75.314992,291.431266 76.281232,293.061246 C77.247472,294.690251 84.060928,295.267029 90.1336,295.838934 C96.205296,296.41084 102.564912,296.972029 105.126912,296.048406 C107.973904,295.024431 108.303792,292.236026 104.4808,290.96848" id="Fill-108" fill="#64231D"></path>
                            <path d="M84.037504,291.215949 C80.670304,290.15008 77.330432,288.166434 75.416496,286.372774 C74.418048,285.435511 72.276704,284.57132 72.806672,281.239263 C73.44888,277.202797 81.560416,239.419023 81.89616,236.069429 C82.556912,229.468643 86.526304,170.3977 70.327632,179.637826 C65.120672,182.608423 63.136464,195.973674 64.458944,203.564334 C65.781424,211.15402 68.17848,227.33788 66.856,233.607409 C65.53352,239.878886 63.17648,244.896457 63.76208,254.137557 C64.232512,261.56746 64.356464,277.992943 63.81576,284.117303 C63.62544,286.270474 63.050576,288.73152 62.924672,289.657091 C62.458144,293.087551 61.638304,296.255929 72.008304,297.371486 C82.37928,298.486069 85.387312,299.199246 88.980944,296.857063 C92.577504,294.51488 88.70864,292.697837 84.037504,291.215949" id="Fill-109" fill="#F79F63"></path>
                            <path d="M90.393216,292.950177 C89.170288,292.544874 84.037504,291.215949 84.037504,291.215949 C84.037504,291.215949 84.60456,292.91218 80.11496,292.804034 C74.214064,292.662763 62.924672,289.657091 62.924672,289.657091 C62.924672,289.657091 61.226432,293.411014 62.192672,295.040994 C63.159888,296.67 69.973344,297.246777 76.04504,297.819657 C82.117712,298.391563 88.477328,298.951777 91.039328,298.030103 C93.88632,297.00418 94.216208,294.215774 90.393216,292.950177" id="Fill-110" fill="#7A2D2A"></path>
                            <path d="M62.30296,186.582534 C56.569936,191.274694 53.575568,190.819703 53.575568,190.819703 C53.575568,190.819703 54.23632,193.481451 56.322032,193.481451 C62.30296,193.481451 70.13536,185.214637 70.13536,185.214637 L71.032304,182.049183 L70.13536,175.940411 C70.13536,175.940411 67.555792,182.28496 62.30296,186.582534" id="Fill-111" fill="#DD601B"></path>
                            <path d="M67.561648,165.049846 C65.41152,166.826943 64.887408,172.83244 66.618832,174.862851 C68.350256,176.892289 71.032304,178.627491 71.032304,178.627491 L72.354784,164.390254 C72.18984,164.390254 69.711776,163.272749 67.561648,165.049846" id="Fill-112" fill="#DD601B"></path>
                            <path d="M63.709376,168.337086 C59.958608,173.249434 59.922496,178.539806 63.709376,180.308134 C67.496256,182.078411 72.354784,179.252983 72.354784,179.252983 L72.354784,176.534726 C72.354784,176.534726 69.147648,177.740891 66.618832,177.038431 C64.090016,176.336946 62.910032,171.453826 66.618832,168.61768 C67.750016,167.753489 72.354784,171.931226 72.354784,171.931226 L72.354784,169.310397 C72.354784,169.310397 67.46112,163.424737 63.709376,168.337086" id="Fill-113" fill="#F47E31"></path>
                            <path d="M86.54192,118.686511 C85.535664,116.340431 78.666576,112.171463 78.666576,112.171463 L78.279104,118.064917 C78.279104,118.064917 78.3728,121.472969 74.687424,128.807391 C76.866832,131.453551 83.405056,130.614691 86.748832,131.453551 C86.501904,126.90656 85.952416,123.352366 86.54192,118.686511" id="Fill-114" fill="#E58D51"></path>
                            <path d="M81.209056,96.9122 C76.04992,98.6386343 73.816832,105.844451 76.221696,113.0074 C78.627536,120.170349 86.677584,123.936937 89.91888,122.852557 C90.708464,122.588526 90.594272,121.632751 91.75376,121.0209 C92.94448,120.391511 92.73952,120.288237 92.384256,119.476657 C92.94448,119.181449 93.246064,119.317849 93.473472,118.871626 C93.659888,118.506269 93.141632,118.046406 93.306576,117.646949 C93.49104,117.2017 94.658336,117.363431 95.198064,116.677534 C95.627504,116.131934 94.311856,113.565666 94.407504,111.899637 C94.542192,109.54966 97.021232,108.786794 95.991552,105.753843 C93.565216,98.5986886 86.369168,95.1857657 81.209056,96.9122 Z" id="Fill-115" fill="#F79F63"></path>
                            <path d="M93.210928,97.3204257 C92.342288,94.42972 87.422272,91.8673486 83.08688,92.0320029 C77.510992,92.2443971 72.87792,95.6485514 71.286064,99.51062 C69.694208,103.372689 71.1016,110.720751 72.850592,113.228563 C75.179328,116.570363 76.740928,118.35428 77.836976,120.692566 C80.130576,116.08322 76.741904,111.09098 76.82096,109.709443 C76.89904,108.32888 77.716928,106.683311 78.783696,106.674543 C79.849488,106.665774 82.209456,110.012446 82.209456,110.012446 C82.209456,110.012446 83.668576,107.040874 86.748832,107.98106 C90.339536,109.076157 96.291184,106.3579 97.98064,104.726946 C98.152416,101.867417 97.120784,98.2645086 93.210928,97.3204257" id="Fill-116" fill="#64231D"></path>
                            <path d="M71.776016,96.2058429 L73.116064,105.066971 C73.116064,105.066971 76.258784,104.280723 75.584368,100.033811 C75.18616,97.5298971 71.776016,96.2058429 71.776016,96.2058429" id="Fill-117" fill="#FFFFFF"></path>
                            <path d="M62.582096,94.1335371 C54.927328,99.8136229 62.208288,110.096234 60.192848,112.520257 C57.107712,116.231311 53.13344,114.225257 53.13344,114.225257 C53.13344,114.225257 56.924224,121.587934 65.40176,117.820371 C73.944688,114.02358 74.130128,104.199857 72.778368,97.2746343 C72.264016,94.6430886 67.762704,90.2890057 62.582096,94.1335371" id="Fill-118" fill="#7A2D2A"></path>
                            <path d="M95.29176,157.388063 C96.53128,151.887246 99.204544,146.808294 96.4532,142.879 C92.60288,137.379157 90.834368,134.596597 85.87336,130.024274 C83.873536,128.180926 75.811776,125.957606 75.811776,125.957606 C75.811776,125.957606 74.13696,128.425471 72.622208,133.240391 C71.5896,136.521786 70.463296,141.580277 70.553088,150.772663 C70.714128,167.39008 71.248,165.801994 70.13536,171.721754 C69.565376,174.464369 67.931552,176.48796 65.583296,185.480617 C61.894992,199.601914 60.88288,232.206386 60.88288,232.206386 C60.88288,232.206386 72.7364,237.419789 80.888928,237.599057 C92.825408,237.862114 100.486032,230.721574 100.486032,230.721574 L94.854512,176.667229 C94.854512,176.667229 93.870704,163.694614 95.29176,157.388063" id="Fill-119" fill="#F47E31"></path>
                            <path d="M123.009184,152.029491 C121.756,151.626137 116.980432,152.655957 115.108464,153.525994 C114.970848,153.590297 115.399312,151.408871 115.201184,150.411203 C115.009888,149.44666 114.19688,149.642491 113.753776,150.985057 C113.505872,151.733309 113.452192,152.681289 112.143376,154.28886 C111.02,155.668449 110.269456,156.902869 108.224736,157.459186 C103.130992,158.846569 91.943104,161.264746 91.943104,161.264746 C91.943104,161.264746 90.780688,157.381243 89.340112,150.505709 C87.89856,143.6292 84.82904,132.399583 80.719104,131.453551 C73.84416,129.872286 71.858976,136.032694 73.84416,143.159594 C75.829344,150.28552 80.06128,159.555849 82.438816,165.13266 C83.695904,168.082797 85.54152,170.509743 88.141584,171.15472 C90.45568,171.729549 96.363408,169.691343 99.629104,168.173406 C103.3096,166.46256 107.74552,163.405251 111.817392,161.727531 C114.793216,160.499931 117.302512,160.942257 119.08664,160.476549 C129.374656,157.789469 126.776544,153.239554 123.009184,152.029491" id="Fill-120" fill="#F79F63"></path>
                            <path d="M76.521328,129.824546 C71.75064,130.920617 69.08616,136.062897 70.52576,143.013451 C71.70672,148.709126 77.261136,153.092437 77.261136,153.092437 L89.17224,149.723357 C89.17224,149.723357 89.808592,140.097414 87.866352,135.582574 C84.922736,128.737243 79.545952,129.128906 76.521328,129.824546" id="Fill-121" fill="#DD601B"></path>
                            <polyline id="Fill-122" fill="#FFFFFF" points="77.261136 153.092437 78.214688 155.262171 89.66512 152.029491 89.17224 149.723357 77.261136 153.092437"></polyline>
                            <path d="M81.698032,172.639531 C74.687424,171.721754 70.521856,169.175946 70.521856,169.175946 L69.565376,174.464369 C69.565376,174.464369 74.687424,176.666254 81.698032,177.754531 C87.984448,178.73174 94.902336,177.371637 94.8547586,176.667229 C94.805712,175.96282 94.600752,171.721754 94.600752,171.721754 C94.600752,171.721754 86.95184,173.327377 81.698032,172.639531" id="Fill-123" fill="#DD601B"></path>
                            <path d="M89.438688,111.405674 L89.58704,111.491411 C90.139456,111.154309 90.551328,110.787977 91.2316,110.719777 L91.233552,110.719777 C91.058848,110.914634 90.944656,111.142617 90.971984,111.448543 C91.00712,111.839231 91.321392,112.23674 91.744976,112.189974 C92.232976,112.136389 92.47112,111.482643 92.390112,110.955554 C92.548224,111.011089 92.71024,111.062726 92.887872,111.09098 C93.080144,111.122157 93.288032,110.898071 93.182624,110.710034 C92.469168,109.450283 89.711968,110.024137 89.438688,111.405674" id="Fill-124" fill="#9E4D4D"></path>
                            <path d="M90.278048,119.170731 C89.730512,118.999257 89.311808,118.491654 88.758416,118.426377 C88.60128,118.407866 88.5232,118.582263 88.543696,118.706971 C88.653008,119.350974 89.636816,119.694897 90.198992,119.828374 C90.799232,119.97062 91.644448,120.047589 92.110976,119.567266 L92.068032,119.406509 C91.492192,119.230163 90.869504,119.355846 90.278048,119.170731" id="Fill-125" fill="#DB7E40"></path>
                            <path d="M94.503152,107.052566 C93.239232,106.497223 90.22632,107.368234 88.965328,109.062517 C88.853088,109.214506 91.69032,107.998597 93.434432,108.35616 C95.24784,108.727363 95.766096,107.607909 94.503152,107.052566" id="Fill-126" fill="#64231D"></path>
                            <path d="M302.405792,138.112794 C294.741264,142.927714 279.990976,153.064183 276.457856,159.568514 C275.521872,161.289103 279.624,168.485177 280.72688,168.630346 C283.629504,169.014214 286.469664,166.267703 288.6276,164.578291 C297.926928,157.297454 310.780848,148.65554 310.780848,148.65554 L315.644256,144.8568 C315.644256,144.8568 310.069344,133.297874 302.405792,138.112794" id="Fill-127" fill="#E58D51"></path>
                            <path d="M295.487904,140.602094 C291.20912,143.965329 288.150336,149.65126 288.150336,149.65126 C288.150336,149.65126 292.0192,157.326683 295.933936,158.832929 C299.263072,158.177234 307.811856,154.055031 307.811856,154.055031 L305.916464,136.898834 C305.916464,136.898834 299.572464,137.390849 295.487904,140.602094" id="Fill-128" fill="#979FC1"></path>
                            <path d="M297.752224,222.637926 C297.752224,222.637926 294.897424,236.19706 295.910512,246.680374 C296.921648,257.165637 300.606048,277.060551 300.884208,288.592197 C299.947248,292.34612 292.308096,303.700446 292.308096,303.700446 L298.961488,304.856923 L310.069344,291.833646 L309.126528,287.095694 C309.126528,287.095694 310.11912,264.583849 310.487072,258.768337 C310.850144,253.026871 307.247728,249.880903 307.616656,243.347343 C307.853824,239.162786 312.42736,235.780066 313.6864,234.872031 C316.910128,232.547386 309.502288,221.309974 309.502288,221.309974 L297.752224,222.637926" id="Fill-129" fill="#F79F63"></path>
                            <path d="M330.481408,264.408477 C328.996912,261.989326 320.832672,242.74426 321.203552,239.410254 C321.574432,236.076249 323.801664,226.443486 324.265264,225.288957 L309.502288,221.309974 L306.725568,239.219294 C306.725568,239.219294 305.734928,249.152137 308.58192,252.768686 C310.906752,255.723694 326.201648,277.148237 328.718752,286.261706 C329.925088,290.629429 322.756368,302.240966 322.756368,302.240966 L326.770656,304.336654 L339.713392,291.555974 L339.017504,286.831663 C339.017504,286.831663 331.965904,266.82568 330.481408,264.408477" id="Fill-130" fill="#F79F63"></path>
                            <path d="M297.725872,187.696143 C297.725872,187.696143 296.706928,199.868869 296.770368,208.865423 C296.808432,214.285374 295.437152,228.028649 295.560128,235.318254 C295.560128,235.318254 307.162816,237.467529 310.69496,237.467529 C316.340144,237.467529 322.814928,235.050326 322.814928,235.050326 C323.754816,229.945069 327.425552,216.158926 327.30648,206.851574 C327.200096,198.544814 321.791104,185.096749 321.791104,185.096749 L297.725872,187.696143" id="Fill-131" fill="#7A2D2A"></path>
                            <path d="M319.773712,160.599309 C321.581264,144.580103 316.561696,136.507171 316.561696,136.507171 L303.55064,137.756206 C303.55064,137.756206 295.149232,145.698583 292.465232,154.713649 C290.749424,160.4746 295.346384,163.5777 296.75768,168.560197 C298.228512,173.75996 296.76744,190.602437 296.76744,190.602437 C296.76744,190.602437 300.806128,192.136937 309.819488,192.079454 C321.652512,192.005409 323.8856,188.478494 323.8856,188.478494 C323.8856,188.478494 318.418048,172.60738 319.773712,160.599309" id="Fill-132" fill="#22B99A"></path>
                            <path d="M302.39408,127.707423 C302.39408,127.707423 304.540304,132.360611 304.7316,134.27216 C304.9268,136.220731 304.779424,137.937423 304.488576,139.397877 C307.478064,138.148843 310.64616,137.228143 313.85232,136.892989 L311.463072,123.18284 L302.39408,127.707423" id="Fill-133" fill="#E58D51"></path>
                            <path d="M305.677344,105.520014 C300.640208,104.638286 295.56208,109.592529 294.334272,116.584977 C294.142976,117.675203 295.115072,119.139554 295.199008,120.194706 C295.276112,121.158274 294.98624,122.411206 294.851552,123.587169 C294.785184,124.163946 294.514832,124.922914 294.812512,125.229814 C295.320032,125.754954 296.038368,125.40616 296.580048,126.1018 C297.131488,126.812054 296.39168,127.782443 297.981584,128.049397 C297.61168,128.783034 297.908384,128.919434 298.603296,129.164954 C299.273808,129.401706 299.51,131.135934 300.731952,131.289871 C303.920544,131.693226 311.345952,126.769186 312.574736,119.776737 C313.802544,112.784289 310.713504,106.400769 305.677344,105.520014" id="Fill-134" fill="#F79F63"></path>
                            <path d="M309.468128,131.548057 C302.39408,133.93798 298.698944,138.881506 297.725872,144.580103 C303.816112,137.294394 316.561696,136.507171 316.561696,136.507171 L317.110208,131.018046 C317.110208,131.018046 312.092592,130.660483 309.468128,131.548057" id="Fill-135" fill="#12A07E"></path>
                            <path d="M338.705184,286.261706 C338.705184,286.261706 338.80864,291.597869 334.85584,293.45778 C329.311184,296.066917 327.180576,302.239017 327.180576,302.239017 L323.157504,301.673931 C323.157504,301.673931 319.894736,304.587046 317.81976,306.598946 C315.743808,308.61182 321.449504,308.114934 324.779616,307.84798 C328.107776,307.580051 331.358832,307.405654 332.297744,304.889074 C333.237632,302.372494 333.224944,297.782634 334.937824,297.003206 C336.649728,296.224751 337.449072,295.842831 337.449072,295.842831 L337.449072,305.803929 L340.151616,305.803929 C340.151616,305.803929 341.245712,295.950003 341.245712,292.650097 C341.245712,288.658449 338.705184,286.261706 338.705184,286.261706" id="Fill-136" fill="#7A2D2A"></path>
                            <path d="M308.989888,287.066466 C308.989888,287.066466 309.092368,292.401654 305.139568,294.261566 C299.594912,296.870703 297.463328,303.042803 297.463328,303.042803 L293.441232,302.477717 C293.441232,302.477717 290.178464,305.390831 288.103488,307.403706 C286.028512,309.415606 291.734208,308.91872 295.062368,308.651766 C298.391504,308.383837 301.64256,308.20944 302.581472,305.69286 C303.52136,303.17628 303.509648,298.58642 305.222528,297.806991 C306.933456,297.028537 307.733776,296.647591 307.733776,296.647591 L307.733776,306.60674 L310.435344,306.60674 C310.435344,306.60674 311.52944,296.753789 311.52944,293.454857 C311.52944,289.463209 308.989888,287.066466 308.989888,287.066466" id="Fill-137" fill="#7A2D2A"></path>
                            <path d="M292.361776,172.946431 C292.361776,172.946431 281.826832,173.620637 278.44792,173.717091 C276.535936,173.770677 274.883568,171.375883 272.38208,171.071906 C270.587216,176.82896 277.887696,182.083283 280.561936,182.661034 C286.58776,183.965603 290.373664,184.892149 294.3372,184.436183 C297.569712,184.063031 298.541808,182.791589 299.804752,181.250269 C303.170976,177.14268 314.3208,157.8489 314.3208,157.8489 L302.31112,152.323726 L292.361776,172.946431" id="Fill-138" fill="#F79F63"></path>
                            <path d="M310.862832,142.712397 C308.809328,142.47662 306.169248,143.447009 303.874672,147.117143 C301.578144,150.786303 298.73896,158.172363 298.73896,158.172363 L310.307488,166.125457 C310.307488,166.125457 315.790656,160.919849 317.715328,158.182106 C320.255856,154.570429 321.083504,143.890309 310.862832,142.712397" id="Fill-139" fill="#12A07E"></path>
                            <path d="M308.442352,101.644298 C301.280464,101.63846 294.831056,105.098149 292.367632,109.766926 C293.754528,115.359326 301.228736,116.030609 305.217648,115.981894 C309.33344,124.393877 306.057984,131.436014 306.057984,131.436014 C306.057984,131.436014 316.993088,132.194983 319.504336,129.504006 C321.634944,127.222229 325.340816,122.526171 322.969136,116.100757 C318.01496,102.678023 311.473808,101.646254 308.442352,101.644298" id="Fill-140" fill="#7A2D2A"></path>
                            <path d="M298.307568,159.67666 C298.307568,159.67666 301.098928,161.608669 303.717536,163.177269 C306.336144,164.746843 309.794112,166.607729 309.794112,166.607729 L311.174176,165.30998 L298.89512,157.629686 L298.307568,159.67666" id="Fill-141" fill="#FFFFFF"></path>
                            <path d="M292.137296,154.027751 C290.575696,151.87458 288.663712,148.763686 288.663712,148.763686 L287.639888,150.085791 C287.639888,150.085791 288.799376,152.354903 290.67232,154.810103 C292.544288,157.263354 295.359072,159.398989 295.359072,159.398989 L296.788912,158.622483 C296.788912,158.622483 293.700848,156.180923 292.137296,154.027751" id="Fill-142" fill="#979FC1"></path>
                            <path d="M297.682928,143.713963 L290.46736,144.811983 C290.46736,144.811983 290.20384,148.177166 288.771072,151.092229 C289.068752,152.095743 289.872,153.46364 292.865392,153.544506 C295.977856,153.629269 297.420384,152.589706 298.168976,151.647571 C297.293504,148.801683 297.682928,143.713963 297.682928,143.713963" id="Fill-143" fill="#E58D51"></path>
                            <path d="M293.236272,129.495237 C289.015072,129.763166 285.86064,134.166937 286.190528,139.333574 C286.518464,144.499237 290.207744,148.469451 294.427968,148.201523 C298.648192,147.933594 301.8036,143.528849 301.474688,138.363186 C301.1448,133.197523 297.456496,129.227309 293.236272,129.495237" id="Fill-144" fill="#F79F63"></path>
                            <path d="M320.107504,147.301283 C318.640576,147.658846 318.414144,147.15514 318.955824,146.402991 C319.497504,145.651817 319.94744,143.680837 318.526384,144.646354 C317.105328,145.612846 313.109584,149.606443 313.109584,149.606443 L315.522256,152.443563 C315.522256,152.443563 318.23944,152.340289 320.906848,151.381591 C323.571328,150.422894 325.602384,149.024794 324.537568,147.629617 C323.471776,146.235414 320.799488,147.133706 320.107504,147.301283" id="Fill-145" fill="#F79F63"></path>
                            <path d="M271.31824,136.327903 C270.648704,136.694234 270.997136,137.911117 271.018608,138.422617 C271.04008,138.935091 271.194288,139.724263 269.798608,139.443669 C268.402928,139.1621 266.590496,138.105 265.60864,140.126643 C264.760496,141.872563 267.241488,142.675374 269.26864,143.875694 C271.296768,145.076014 272.330352,145.649869 272.330352,145.649869 L275.301296,142.407446 C275.301296,142.407446 273.91928,140.776491 273.399072,139.166971 C272.878864,137.556477 271.987776,135.961571 271.31824,136.327903" id="Fill-146" fill="#F79F63"></path>
                            <path d="M301.734304,149.627877 C300.206864,149.368717 297.80688,149.507066 297.80688,149.507066 C297.80688,149.507066 295.886112,152.851789 292.425216,152.267217 C291.076384,152.039234 289.433776,150.955829 289.661184,148.967311 C288.63248,148.793889 286.75856,148.202497 286.141728,148.029074 C284.389808,147.535111 275.301296,142.407446 275.301296,142.407446 C275.301296,142.407446 273.32392,143.75878 272.330352,145.649869 C275.81272,150.450174 281.582832,154.467154 283.243008,155.570046 C281.164128,158.853389 278.1356,163.566009 277.848656,163.949877 C277.848656,163.949877 271.304576,161.905826 268.50248,165.643186 C267.031648,167.606371 265.466144,171.392446 264.311536,174.543286 C259.525232,175.340251 258.963056,176.866957 259.525232,178.273826 C260.342144,180.31398 262.873888,181.033003 267.817328,179.369897 C269.105648,178.938289 273.300496,173.365374 274.512688,173.088677 C273.742624,175.814729 273.437136,177.077403 273.403952,179.872629 C269.04416,181.243449 269.212032,185.080186 272.540192,185.375394 C274.286256,185.530306 277.150816,185.520563 278.99936,182.853943 C280.03392,181.360363 280.845952,178.251417 281.62968,176.268746 C286.629728,177.379431 291.00904,175.633511 292.812688,173.133494 C294.4104,170.917969 298.356368,164.799454 300.990592,159.179774 C304.190896,158.224 310.36312,155.457029 315.522256,152.443563 C316.090288,150.860349 314.48672,148.105069 314.48672,148.105069 C314.48672,148.105069 303.723392,149.965954 301.734304,149.627877" id="Fill-147" fill="#5B72C4"></path>
                            <path d="M292.425216,152.267217 C289.41816,151.419589 289.661184,148.967311 289.661184,148.967311 L287.434928,148.408071 C287.434928,148.408071 287.254368,153.832894 291.27744,154.918249 C297.075856,156.482951 300.384496,149.496349 300.384496,149.496349 L297.80688,149.507066 C297.80688,149.507066 295.432272,153.113871 292.425216,152.267217" id="Fill-148" fill="#525C9E"></path>
                            <path d="M287.755056,159.542209 C286.577024,161.416734 285.139376,163.109069 283.70368,164.493529 C282.946304,165.222294 281.425696,165.771791 281.425696,165.771791 L282.224064,166.495686 C282.224064,166.495686 284.569392,165.462943 285.828432,164.080431 C287.33928,162.420249 288.859888,160.586643 290.17456,157.697886 C291.222784,155.391751 292.3608,153.288269 292.3608,153.288269 L290.863616,153.219094 C290.863616,153.219094 288.933088,157.668657 287.755056,159.542209" id="Fill-149" fill="#525C9E"></path>
                            <path d="M300.405968,139.611246 L300.210768,144.190389 C300.210768,144.190389 303.373008,144.076397 303.322256,141.182769 C303.27248,138.290114 300.405968,139.611246 300.405968,139.611246" id="Fill-150" fill="#F79F63"></path>
                            <path d="M299.05128,131.159317 C294.062944,127.7386 288.46656,129.906386 284.91392,134.259494 C284.91392,134.259494 287.279744,136.417537 290.629376,136.132071 C295.03992,135.755997 298.228512,135.5475 299.596864,136.49548 C299.696416,138.280371 299.775472,138.708083 299.761808,139.711597 C299.736432,141.479926 301.22288,140.275709 301.22288,140.275709 C301.22288,140.275709 303.880528,134.467991 299.05128,131.159317" id="Fill-151" fill="#7D321F"></path>
                            <path d="M284.521568,138.856174 C284.673824,141.652374 286.965472,141.670886 286.965472,141.670886 L286.66096,136.953394 C286.66096,136.953394 284.369312,136.07946 284.521568,138.856174" id="Fill-152" fill="#F79F63"></path>
                            <path d="M286.942048,160.083911 C287.855584,158.440291 288.718368,157.558563 286.08024,158.171389 C282.955088,158.896257 281.892224,155.813617 277.526576,158.171389 C275.93472,159.030709 274.42192,161.392377 275.234928,164.042434 C275.785392,165.838043 276.304624,168.980114 280.275968,169.607554 C284.575248,170.287606 286.86104,169.282143 287.337328,167.201069 C287.815568,165.119994 284.565488,163.36628 284.100912,161.950643 C283.636336,160.535006 286.029488,161.727531 286.942048,160.083911" id="Fill-153" fill="#F79F63"></path>
                            <path d="M295.335648,139.450489 C294.748096,139.424183 294.129312,139.608323 293.653024,139.949323 C293.446112,140.097414 293.563232,140.509537 293.843344,140.398469 C294.306944,140.216277 295.433248,139.958091 296.46,140.330269 C296.579072,140.373137 297.009488,140.417954 296.788912,139.958091 C296.561504,139.487511 295.794368,139.471923 295.335648,139.450489" id="Fill-154" fill="#9E4D4D"></path>
                            <path d="M287.58816,139.263426 C287.330496,139.526483 287.658432,139.89184 287.981488,139.665806 C288.63248,139.207891 289.396688,139.44854 289.929584,139.913274 C290.073056,140.038957 290.328768,139.87138 290.309248,139.802206 C290.014496,138.722697 288.284048,138.554146 287.58816,139.263426" id="Fill-155" fill="#9E4D4D"></path>
                            <path d="M292.598944,143.623354 C292.220256,143.653557 291.85328,143.62238 291.499968,143.478186 C291.367232,143.4246 291.105664,143.175183 290.947552,143.269689 L290.918272,143.287226 C290.80408,143.3564 290.773824,143.496697 290.83336,143.611663 C291.130064,144.186491 292.120704,144.241051 292.671168,144.16116 C292.97568,144.116343 292.905408,143.598023 292.598944,143.623354" id="Fill-156" fill="#DB7E40"></path>
                            <path d="M293.174784,146.414683 C294.355744,146.424426 294.474816,145.130574 294.474816,145.130574 L291.259872,145.130574 C291.259872,145.130574 291.307696,146.399094 293.174784,146.414683" id="Fill-157" fill="#FFFFFF"></path>
                            <path d="M294.14688,136.939754 C292.942496,137.002109 292.831232,137.796151 294.14688,137.763026 C295.462528,137.730874 297.409648,138.30278 297.409648,138.30278 C297.409648,138.30278 296.788912,136.80238 294.14688,136.939754" id="Fill-158" fill="#7D321F"></path>
                            <path d="M290.020352,136.507171 C288.645168,136.342517 287.433952,137.501917 287.433952,137.501917 C287.433952,137.501917 289.6768,137.444434 290.310224,137.501917 C290.9456,137.558426 291.395536,136.670851 290.020352,136.507171" id="Fill-159" fill="#7D321F"></path>
                            <path d="M295.76704,116.801269 C295.471312,116.968846 294.507024,117.907083 296.607376,117.869086 C298.708704,117.831089 300.210768,118.365971 300.210768,118.365971 C300.210768,118.365971 297.61656,115.75586 295.76704,116.801269" id="Fill-160" fill="#7D321F"></path>
                            <path d="M298.213872,119.41138 C297.618512,119.35682 297.151984,119.415277 296.703024,119.851757 C296.487328,120.060254 296.512704,120.346694 296.856256,120.252189 C297.3384,120.117737 297.695616,120.024206 298.209968,120.060254 C298.746768,120.099226 299.001504,120.440226 299.433872,120.537654 C299.637856,120.58442 299.73448,120.526937 299.697392,120.328183 C299.585152,119.734843 298.742864,119.458146 298.213872,119.41138" id="Fill-161" fill="#9E4D4D"></path>
                            <path d="M300.259568,127.344989 C299.955056,127.530103 299.586128,127.64312 299.279664,127.685014 C298.906832,127.736651 298.49496,127.76588 298.176784,127.978274 C298.073328,128.048423 299.408496,128.27738 299.918944,128.189694 C300.303488,128.123443 300.67632,127.971454 300.806128,127.57492 C300.911536,127.25438 300.760256,127.037114 300.259568,127.344989" id="Fill-162" fill="#DB7E40"></path>
                            <path d="M429.379488,275.808594 L402.371616,275.808594 C401.148688,275.808594 400.157072,276.798469 400.157072,278.018274 C400.157072,279.239054 401.148688,280.227954 402.371616,280.227954 L429.379488,280.227954 C430.60144,280.227954 431.59208,279.239054 431.59208,278.018274 C431.59208,276.798469 430.60144,275.808594 429.379488,275.808594" id="Fill-171" fill="#B7423A"></path>
                            <path d="M427.054656,271.389234 L404.47392,271.389234 C403.250992,271.389234 402.260352,272.378134 402.260352,273.598914 C402.260352,274.81872 403.250992,275.808594 404.47392,275.808594 L427.054656,275.808594 C428.277584,275.808594 429.268224,274.81872 429.268224,273.598914 C429.268224,272.378134 428.277584,271.389234 427.054656,271.389234" id="Fill-172" fill="#FFCD50"></path>
                            <path d="M422.018496,258.18474 L410.036144,258.18474 C408.813216,258.18474 407.822576,259.174614 407.822576,260.395394 C407.822576,261.6152 408.813216,262.6041 410.036144,262.6041 L422.018496,262.6041 C423.240448,262.6041 424.232064,261.6152 424.232064,260.395394 C424.232064,259.174614 423.240448,258.18474 422.018496,258.18474" id="Fill-173" fill="#FFCD50"></path>
                            <path d="M431.122624,280.227954 L400.01848,280.227954 C398.796528,280.227954 397.804912,281.217829 397.804912,282.438609 C397.804912,283.659389 398.796528,284.647314 400.01848,284.647314 L431.122624,284.647314 C432.345552,284.647314 433.336192,283.659389 433.336192,282.438609 C433.336192,281.217829 432.345552,280.227954 431.122624,280.227954" id="Fill-174" fill="#22B99A"></path>
                            <path d="M432.893088,284.620034 L397.694624,284.620034 C396.471696,284.620034 395.481056,285.608934 395.481056,286.829714 C395.481056,288.050494 396.471696,289.040369 397.694624,289.040369 L432.893088,289.040369 C434.11504,289.040369 435.107632,288.050494 435.107632,286.829714 C435.107632,285.608934 434.11504,284.620034 432.893088,284.620034" id="Fill-175" fill="#5B72C4"></path>
                            <path d="M435.107632,289.013089 L395.424448,289.013089 C394.202496,289.013089 393.211856,290.001989 393.211856,291.221794 C393.211856,292.442574 394.202496,293.432449 395.424448,293.432449 L435.107632,293.432449 C436.329584,293.432449 437.320224,292.442574 437.320224,291.221794 C437.320224,290.001989 436.329584,289.013089 435.107632,289.013089" id="Fill-176" fill="#B7423A"></path>
                            <path d="M406.189728,266.969874 C404.967776,266.969874 403.97616,267.9578 403.97616,269.17858 C403.97616,270.39936 404.967776,271.389234 406.189728,271.389234 L425.393504,271.389234 C426.616432,271.389234 427.608048,270.39936 427.608048,269.17858 C427.608048,267.9578 426.616432,266.969874 425.393504,266.969874 L406.189728,266.969874 Z" id="Fill-177" fill="#22B99A"></path>
                            <path d="M423.844592,262.6041 L408.237376,262.6041 C407.014448,262.6041 406.023808,263.593974 406.023808,264.814754 C406.023808,266.035534 407.014448,267.024434 408.237376,267.024434 L423.844592,267.024434 C425.06752,267.024434 426.05816,266.035534 426.05816,264.814754 C426.05816,263.593974 425.06752,262.6041 423.844592,262.6041" id="Fill-178" fill="#5B72C4"></path>
                            <path d="M388.8628,278.534646 C378.970064,278.534646 370.950272,286.540351 370.950272,296.414737 C370.950272,306.290097 378.970064,314.295803 388.8628,314.295803 C398.75456,314.295803 406.774352,306.290097 406.774352,296.414737 C406.774352,286.540351 398.75456,278.534646 388.8628,278.534646" id="Fill-179" fill="#FFCD50"></path>
                            <path d="M380.82544,297.983337 C377.626112,290.928534 381.483264,280.120783 381.483264,280.120783 L379.2248,281.357151 C379.2248,281.357151 374.000272,290.176386 378.646032,300.022517 C384.72944,312.91524 398.318288,311.599954 398.318288,311.599954 L401.256048,309.324023 C401.256048,309.324023 386.401328,310.277849 380.82544,297.983337" id="Fill-180" fill="#FFFFFF"></path>
                            <path d="M397.708288,292.354889 C396.530256,292.354889 395.15312,291.750831 394.029744,290.629429 C392.223168,288.826026 391.757616,286.367903 392.988352,285.138354 C393.453904,284.67362 394.095136,284.451483 394.809568,284.451483 C395.986624,284.451483 397.365712,285.05554 398.489088,286.176943 C400.295664,287.980346 400.76024,290.438469 399.528528,291.667043 C399.063952,292.131777 398.42272,292.354889 397.708288,292.354889" id="Fill-181" fill="#FFE6A8"></path>
                            <polygon id="Fill-182" fill="#DD601B" points="91.323344 82.7899286 114.988416 82.7899286 114.988416 48.9500629 91.323344 48.9500629"></polygon>
                            <path d="M93.8668,73.4358114 C98.272464,71.5028286 104.476896,69.4987229 112.553296,68.5107971 L112.553296,51.1451286 L93.8668,51.1451286 L93.8668,73.4358114" id="Fill-183" fill="#FFFFFF"></path>
                            <path d="M93.8668,80.5958371 L112.553296,80.5958371 L112.553296,68.5107971 C104.476896,69.4987229 98.272464,71.5028286 93.8668,73.4358114 L93.8668,80.5958371" id="Fill-184" fill="#F47E31"></path>
                            <polygon id="Fill-185" fill="#DD601B" points="124.340448 110.243351 143.033776 110.243351 143.033776 81.7201629 124.340448 81.7201629"></polygon>
                            <path d="M127.204032,92.6915943 C130.89624,93.4924571 135.422928,94.9538857 140.267792,97.5795857 L140.267792,84.4959029 L127.204032,84.4959029 L127.204032,92.6915943" id="Fill-186" fill="#FFFFFF"></path>
                            <path d="M127.204032,107.467611 L140.267792,107.467611 L140.267792,97.5795857 C135.422928,94.9538857 130.89624,93.4924571 127.204032,92.6915943 L127.204032,107.467611" id="Fill-187" fill="#FFD880"></path>
                            <path d="M163.58248,248.940717 C161.516288,249.454166 153.18808,249.936437 150.370368,248.395117 C147.552656,246.853797 146.767952,245.327091 143.937552,244.419057 C142.972288,246.277994 143.937552,246.988249 143.937552,246.988249 C143.937552,246.988249 143.121616,248.202209 142.98888,251.658974 C142.858096,255.082614 147.941104,252.855397 149.727184,253.088251 C151.2068,253.28116 153.087552,253.798506 154.0372,254.05182 C154.985872,254.30416 159.505728,255.783126 162.138,255.918551 C165.101136,256.071514 167.352768,255.982854 167.352768,255.982854 L174.447312,241.459177 L168.703552,237.350614 C168.703552,237.350614 164.693168,246.492337 163.58248,248.940717" id="Fill-188" fill="#E58D51"></path>
                            <path d="M168.231168,234.987971 C165.551072,239.372257 163.744496,241.87812 163.744496,241.87812 C163.744496,241.87812 169.459952,246.514746 171.529072,245.948686 C173.597216,245.381651 173.905632,243.880277 173.905632,243.880277 L174.775248,231.12298 C174.775248,231.12298 170.911264,230.603686 168.231168,234.987971" id="Fill-189" fill="#12A07E"></path>
                            <path d="M177.20744,271.646446 C175.511152,272.046877 171.51736,278.264769 167.88664,281.462374 C164.254944,284.65998 165.43688,286.407849 166.709584,289.466131 C168.238,293.138214 172.997952,299.378514 174.339952,301.373851 C174.78208,302.03052 175.55312,303.010651 176.399312,304.088211 C178.443056,303.748186 181.308592,302.933683 183.327936,300.974394 C182.234816,298.514323 181.0236,295.760017 179.812384,293.5669 C178.396208,291.003554 176.39736,289.3726 176.39736,289.3726 L184.032608,279.582977 L177.20744,271.646446" id="Fill-190" fill="#F79F63"></path>
                            <path d="M199.496352,271.219709 L187.105056,278.151751 C187.730672,279.777834 194.699312,290.737574 196.071568,292.810854 C197.443824,294.884134 198.072368,296.007486 201.523504,297.662797 C204.158704,298.925471 208.169088,300.131637 211.675856,301.83274 C213.235504,300.258294 215.045008,298.080766 216.001488,295.707406 C213.093008,293.084629 208.511664,288.968271 204.858496,287.418183 C203.152448,283.034871 199.496352,271.219709 199.496352,271.219709" id="Fill-191" fill="#F79F63"></path>
                            <path d="M183.327936,300.974394 C181.308592,302.933683 178.443056,303.748186 176.399312,304.088211 C178.121952,306.27938 180.161792,308.882671 180.414576,310.045969 C180.791312,311.781171 178.879328,313.11302 175.773696,316.185917 C172.668064,319.259789 173.003808,321.82898 176.038192,321.864227 C177.897472,321.886463 180.783504,319.726471 183.416752,317.546994 C186.05,315.367517 189.336192,313.387769 189.415248,311.460631 C189.48064,309.856957 186.45504,307.170851 185.823568,306.140057 C185.131584,305.009886 184.272704,303.10126 183.327936,300.974394" id="Fill-192" fill="#FFFFFF"></path>
                            <path d="M224.409728,300.193991 C222.170784,299.369746 221.406576,299.77992 218.542016,297.888831 C218.089152,297.589726 217.178544,296.767429 216.001488,295.707406 C215.045008,298.080766 213.235504,300.258294 211.675856,301.83274 C214.215408,303.064237 216.49144,304.55392 217.781712,306.521003 C219.369664,308.944051 221.047408,312.423226 222.41576,315.775743 C223.784112,319.129234 227.186448,318.827206 227.501696,314.821917 C227.652,312.888934 226.374416,309.324023 225.896176,306.311531 C225.381824,303.075929 226.921952,301.119563 224.409728,300.193991" id="Fill-193" fill="#FFFFFF"></path>
                            <path d="M179.94024,226.327546 C179.424912,222.450863 179.424912,222.450863 179.424912,222.450863 L171.978032,224.244523 C171.978032,224.244523 173.7768,230.453646 171.978032,237.453889 C171.41976,239.623623 174.569312,237.681871 176.804352,236.504934 C179.550816,235.060069 182.40952,231.976454 182.40952,231.976454 C182.40952,231.976454 180.454592,230.203254 179.94024,226.327546" id="Fill-194" fill="#E58D51"></path>
                            <path d="M179.124304,207.32118 C175.644864,205.687303 174.892368,206.805783 170.791216,208.526371 C168.338528,209.556191 168.358048,214.014523 168.651824,215.778954 C168.853856,216.987069 166.892096,217.411857 166.351392,217.751883 C165.262176,218.436806 166.732032,219.571849 167.056064,219.989817 C168.089648,221.321666 165.060144,222.183909 168.692816,221.821474 C167.85248,222.398251 166.392384,222.586289 168.37464,224.177297 C168.37952,224.818377 166.933088,226.281754 169.788864,226.958883 C175.036816,228.20402 179.880704,225.765383 182.363648,220.494497 C184.846592,215.223611 183.396256,209.32626 179.124304,207.32118" id="Fill-195" fill="#F79F63"></path>
                            <path d="M189.15368,213.400723 C191.534144,211.346929 189.533344,207.704074 187.014288,208.043126 C187.740432,205.143651 184.597712,203.831289 182.807728,205.02284 C182.467104,202.299711 179.56936,201.789186 177.52464,204.001789 C176.41688,200.938634 173.561104,202.554974 172.752,204.57954 C170.70728,202.987557 166.177664,205.040377 168.736736,209.201551 C167.743168,211.793151 171.524192,213.355906 173.561104,211.44728 C172.623168,212.809331 173.642112,215.279146 176.41688,214.506537 C175.516032,217.44888 177.025904,218.869389 178.625568,218.097754 C177.702272,221.164806 179.94024,226.327546 179.94024,226.327546 C179.94024,226.327546 183.148352,227.223889 184.196576,223.137734 C186.247152,224.84176 189.31472,222.715869 187.780448,219.886543 C191.753744,220.698123 192.591152,214.713086 189.15368,213.400723" id="Fill-196" fill="#7A2D2A"></path>
                            <path d="M176.804352,218.154263 L177.449488,219.363351 L177.732528,221.740609 C177.732528,221.740609 180.639056,221.436631 180.112992,218.436806 C179.668912,215.898791 176.804352,218.154263 176.804352,218.154263" id="Fill-197" fill="#F79F63"></path>
                            <path d="M170.328592,215.82572 C170.18512,215.938737 170.348112,216.11898 170.485728,216.097546 C170.764864,216.051754 171.043024,216.027397 171.316304,216.039089 C171.08792,216.386909 170.879056,217.165363 171.621792,217.419651 C172.031712,217.560923 172.365504,217.349503 172.445536,216.906203 C173.050656,217.268637 173.182416,217.461546 173.252688,217.55118 L173.245856,217.485903 L173.245856,217.484929 C173.255616,217.495646 172.90328,216.489209 172.203488,215.939711 C171.659856,215.512 170.820496,215.440877 170.328592,215.82572" id="Fill-198" fill="#9E4D4D"></path>
                            <path d="M170.255392,213.742697 C169.752752,214.256146 171.040096,214.510434 172.423088,214.84364 C173.668464,215.14372 175.39208,216.959789 175.39208,216.959789 C175.39208,216.959789 174.656176,214.735494 174.067648,214.271734 C173.231216,213.612143 171.165024,212.812254 170.255392,213.742697" id="Fill-199" fill="#7A2D2A"></path>
                            <path d="M193.045968,255.738309 L184.636752,262.046809 L184.59576,263.227643 L180.582448,260.985811 C179.109664,265.556186 170.271984,275.620557 170.271984,275.620557 C170.271984,275.620557 170.15584,277.08978 172.896448,280.170471 C175.862512,283.503503 181.564304,284.920114 181.564304,284.920114 C181.564304,284.920114 184.143872,280.46568 185.03984,279.021789 C186.639504,281.805323 189.992064,286.423437 189.992064,286.423437 C189.992064,286.423437 194.362592,286.649471 197.623408,284.819763 C201.785072,282.4844 203.184656,279.42904 203.184656,279.42904 C203.184656,279.42904 201.014032,267.358614 199.153776,263.516031 C197.29352,259.672474 193.045968,255.738309 193.045968,255.738309" id="Fill-200" fill="#7A2D2A"></path>
                            <path d="M196.14672,258.080491 C194.64368,256.795409 192.391072,247.410114 190.447856,241.87812 C188.50464,236.346126 187.339296,231.725089 184.178032,230.145771 C181.292976,228.704803 179.62304,229.671294 178.157088,230.928123 C176.489104,232.358374 172.105888,235.710891 172.105888,235.710891 C172.105888,235.710891 171.163072,236.059686 170.400816,240.181889 C169.63856,244.305066 170.919072,253.255829 172.105888,255.691543 C173.292704,258.127257 177.321632,267.484297 177.321632,267.484297 C177.321632,267.484297 182.543232,271.085257 188.088864,268.879474 C193.615952,266.679537 199.955072,261.780829 199.955072,261.780829 C199.955072,261.780829 197.64976,259.363626 196.14672,258.080491" id="Fill-201" fill="#22B99A"></path>
                            <path d="M186.486272,237.378869 C186.486272,237.378869 180.061264,241.045106 179.976352,241.383183 C179.89144,241.72126 184.513776,249.89162 184.513776,249.89162 C184.513776,249.89162 183.418704,253.332797 182.537376,254.843914 C181.657024,256.356006 180.61368,263.046426 178.454768,264.56144 C176.889264,265.658486 173.768016,265.271694 172.896448,267.322566 C172.02488,269.373437 173.905632,270.898194 175.519936,272.744466 C176.813136,274.221483 178.933008,273.797669 179.109664,272.136511 C180.66248,271.968934 183.001952,268.720666 183.704672,266.388226 C184.675792,263.159443 187.835104,260.449954 188.735952,258.310423 C190.288768,254.628597 192.333488,251.4534 192.407664,249.904286 C192.48184,248.354197 191.011008,246.923946 190.117968,244.648014 C188.612,240.809329 186.486272,237.378869 186.486272,237.378869" id="Fill-202" fill="#F79F63"></path>
                            <path d="M182.095248,230.232483 C179.038416,230.657271 176.696016,233.282971 177.312848,237.910829 C177.92968,242.538686 181.202208,246.6794 181.202208,246.6794 C181.202208,246.6794 184.709952,246.524489 187.145072,244.861383 C190.117968,242.829997 190.683072,241.320829 190.683072,241.320829 C190.683072,241.320829 188.274304,229.375111 182.095248,230.232483" id="Fill-203" fill="#12A07E"></path>
                        </g>
                    </g>
                </g>
            </g>
        </g>
    </g>
</svg>