<?xml version="1.0" encoding="UTF-8"?>
<svg width="26px" height="26px" viewBox="0 0 26 26" version="1.1" xmlns="http://www.w3.org/2000/svg" xmlns:xlink="http://www.w3.org/1999/xlink">
    <!-- Generator: Sketch 57.1 (83088) - https://sketch.com -->
    <title>insurance-icon</title>
    <desc>Created with Sketch.</desc>
    <g id="nanny-scheduler" stroke="none" stroke-width="1" fill="none" fill-rule="evenodd">
        <g id="nanny-main-landing-page" transform="translate(-718.000000, -2609.000000)" fill="#4E5D78">
            <g id="trusted-verified-section" transform="translate(78.000000, 2209.000000)">
                <g id="insurance" transform="translate(630.000000, 398.000000)">
                    <g id="Icon-/-Settings-Solid" transform="translate(8.000000, 0.000000)">
                        <path d="M17.7777778,2.5 L18.5185185,6.13581731 L21.0802469,7.60817308 L24.7222222,6.40625 L27.5,11.09375 L24.691358,13.4975962 L24.691358,16.5024038 L27.5,18.90625 L24.7222222,23.59375 L21.0802469,22.3918269 L18.5185185,23.8641827 L17.7777778,27.5 L12.2222222,27.5 L11.4814815,23.8641827 L8.91975309,22.3918269 L5.27777778,23.59375 L2.5,18.90625 L5.30864198,16.5024038 L5.30864198,13.4975962 L2.5,11.09375 L5.27777778,6.40625 L8.91975309,7.60817308 L11.4814815,6.13581731 L12.2222222,2.5 L17.7777778,2.5 Z M15,11.25 C12.9289322,11.25 11.25,12.9289322 11.25,15 C11.25,17.0710678 12.9289322,18.75 15,18.75 C17.0710678,18.75 18.75,17.0710678 18.75,15 C18.75,12.9289322 17.0710678,11.25 15,11.25 Z" id="🎨-Icon-Color"></path>
                    </g>
                </g>
            </g>
        </g>
    </g>
</svg>