<?xml version="1.0" encoding="UTF-8"?>
<svg width="271px" height="562px" viewBox="0 0 271 562" version="1.1" xmlns="http://www.w3.org/2000/svg" xmlns:xlink="http://www.w3.org/1999/xlink">
    <!-- Generator: Sketch 57.1 (83088) - https://sketch.com -->
    <title>iphone-app</title>
    <desc>Created with Sketch.</desc>
    <defs>
        <path d="M5.1277704,-2.07168062e-16 L144.87223,2.07168062e-16 C146.655267,-1.2037061e-16 147.30184,0.185651222 147.953691,0.534265408 C148.605543,0.882879593 149.11712,1.39445674 149.465735,2.04630859 C149.814349,2.69816044 150,3.34473292 150,5.1277704 L150,34.8722296 C150,36.6552671 149.814349,37.3018396 149.465735,37.9536914 C149.11712,38.6055433 148.605543,39.1171204 147.953691,39.4657346 C147.30184,39.8143488 146.655267,40 144.87223,40 L5.1277704,40 C3.34473292,40 2.69816044,39.8143488 2.04630859,39.4657346 C1.39445674,39.1171204 0.882879593,38.6055433 0.534265408,37.9536914 C0.185651222,37.3018396 8.02470732e-17,36.6552671 -1.38112041e-16,34.8722296 L1.38112041e-16,5.1277704 C-8.02470732e-17,3.34473292 0.185651222,2.69816044 0.534265408,2.04630859 C0.882879593,1.39445674 1.39445674,0.882879593 2.04630859,0.534265408 C2.69816044,0.185651222 3.34473292,1.2037061e-16 5.1277704,-2.07168062e-16 Z" id="path-1"></path>
    </defs>
    <g id="nanny-scheduler" stroke="none" stroke-width="1" fill="none" fill-rule="evenodd">
        <g id="nanny-main-landing-page" transform="translate(-83.000000, -1480.000000)">
            <g id="how-it-works-section" transform="translate(0.000000, 1392.000000)">
                <g id="iphone-app" transform="translate(85.000000, 90.000000)">
                    <g id="description-steps">
                        <g id="Body">
                            <path d="M266.88,517.015006 C266.88,539.694327 248.474041,558.08 225.769697,558.08 L41.110303,558.08 C18.4059588,558.08 0,539.694327 0,517.015006 L0,41.064994 C0,18.385673 18.4059588,0 41.110303,0 L225.769697,0 C248.474041,0 266.88,18.385673 266.88,41.064994 L266.88,517.015006 Z" id="Fill-1" fill="#EAEFF1"></path>
                            <path d="M266.88,517.015006 C266.88,539.694327 248.474041,558.08 225.769697,558.08 L41.110303,558.08 C18.4059588,558.08 0,539.694327 0,517.015006 L0,41.064994 C0,18.385673 18.4059588,0 41.110303,0 L225.769697,0 C248.474041,0 266.88,18.385673 266.88,41.064994 L266.88,517.015006 L266.88,517.015006 Z" id="Stroke-3" stroke="#CBD2D4" stroke-width="3.84"></path>
                            <path d="M254.72,493.37168 C254.72,494.116627 254.115289,494.72 253.368691,494.72 L13.5113092,494.72 C12.7647109,494.72 12.16,494.116627 12.16,493.37168 L12.16,66.6283203 C12.16,65.8833733 12.7647109,65.28 13.5113092,65.28 L253.368691,65.28 C254.115289,65.28 254.72,65.8833733 254.72,66.6283203 L254.72,493.37168 Z" id="Fill-5" fill="#DDE3E5"></path>
                            <path d="M156.16,34.56 C156.16,35.9739733 155.2199,37.12 154.06,37.12 L113.46,37.12 C112.3001,37.12 111.36,35.9739733 111.36,34.56 C111.36,33.1460267 112.3001,32 113.46,32 L154.06,32 C155.2199,32 156.16,33.1460267 156.16,34.56" id="Fill-7" fill="#BAC1C3"></path>
                            <g id="Group" transform="translate(85.760000, 29.440000)">
                                <path d="M5.12,8.32 C3.35552,8.32 1.92,6.88448 1.92,5.12 C1.92,3.35552 3.35552,1.92 5.12,1.92 C6.88448,1.92 8.32,3.35552 8.32,5.12 C8.32,6.88448 6.88448,8.32 5.12,8.32" id="Fill-9" fill="#BAC1C3"></path>
                                <path d="M5.12,0 C2.29668571,0 0,2.29668571 0,5.12 C0,7.94331429 2.29668571,10.24 5.12,10.24 C7.94331429,10.24 10.24,7.94331429 10.24,5.12 C10.24,2.29668571 7.94331429,0 5.12,0 M5.12,2.92571429 C6.33197714,2.92571429 7.31428571,3.90802286 7.31428571,5.12 C7.31428571,6.33197714 6.33197714,7.31428571 5.12,7.31428571 C3.90802286,7.31428571 2.92571429,6.33197714 2.92571429,5.12 C2.92571429,3.90802286 3.90802286,2.92571429 5.12,2.92571429" id="Fill-11" fill="#D0D7DA"></path>
                            </g>
                            <path d="M136.96,16 C136.96,14.2328889 135.527111,12.8 133.76,12.8 C131.992889,12.8 130.56,14.2328889 130.56,16 C130.56,17.7671111 131.992889,19.2 133.76,19.2 C135.527111,19.2 136.96,17.7671111 136.96,16" id="Fill-13" fill="#BAC1C3"></path>
                            <path d="M151.04,523.52 C151.04,513.976503 143.303497,506.24 133.76,506.24 C124.216503,506.24 116.48,513.976503 116.48,523.52 C116.48,533.063497 124.216503,540.8 133.76,540.8 C143.303497,540.8 151.04,533.063497 151.04,523.52" id="Fill-17" stroke="#CBD2D4" stroke-width="2.56" fill="#EAEFF1"></path>
                        </g>
                        <text id="Step-1:-Sign-up" font-family="Inter-Regular, Inter" font-size="12" font-weight="normal" line-spacing="20" fill="#8A94A6">
                            <tspan x="90.4147727" y="345">Step 1: Sign up</tspan>
                        </text>
                        <text id="Step-2:-Find-a-sitte" font-family="Inter-Regular, Inter" font-size="12" font-weight="normal" line-spacing="20" fill="#8A94A6">
                            <tspan x="77.0255682" y="362">Step 2: Find a sitter </tspan>
                        </text>
                        <text id="Step-3:-Confirm-book" font-family="Inter-Regular, Inter" font-size="12" font-weight="normal" line-spacing="20" fill="#8A94A6">
                            <tspan x="63.5767045" y="379">Step 3: Confirm booking</tspan>
                        </text>
                    </g>
                    <g id="Screen" transform="translate(82.440000, 106.040000)"></g>
                    <g id="logo" transform="translate(106.000000, 113.000000)" fill-rule="nonzero">
                        <g id="logo-panda">
                            <circle id="Oval" fill="#4A5058" cx="4.68" cy="35.88" r="4.68"></circle>
                            <path d="M8.78172964,32.76 C5.74088937,33.6107776 3.18016778,35.453526 1.56,37.8717793 C2.38843746,38.5713557 3.49909426,39 4.72053744,39 C7.282855,39 9.36,37.1168589 9.36,34.7938599 C9.36,34.0559406 9.14973196,33.3627547 8.78172964,32.76 Z" id="Path" fill="#000000" opacity="0.15"></path>
                            <path d="M38.3828176,56.4032406 L38.3828176,51.5763553 C38.3828176,48.9384677 36.0764311,46.8 33.2314088,46.8 L33.2314088,46.8 C30.3863865,46.8 28.08,48.9384677 28.08,51.5763553 L28.08,60.309782 C28.08,61.4641728 29.0893111,62.4 30.3343481,62.4 L40.3030588,62.4 C41.3064153,62.4 42.12,61.6457692 42.12,60.7153431 C42.1202589,58.6030406 40.5201442,56.8382076 38.3828176,56.4032406 Z" id="Path" fill="#4A5058"></path>
                            <path d="M38.3828176,56.4032406 L38.3828176,51.5763553 C38.3828176,48.9384677 36.0764311,46.8 33.2314088,46.8 L33.2314088,46.8 C30.3863865,46.8 28.08,48.9384677 28.08,51.5763553 L28.08,60.309782 C28.08,61.4641728 29.0893111,62.4 30.3343481,62.4 L40.3030588,62.4 C41.3064153,62.4 42.12,61.6457692 42.12,60.7153431 C42.1202589,58.6030406 40.5201442,56.8382076 38.3828176,56.4032406 Z" id="Path" fill="#000000" opacity="0.2"></path>
                            <path d="M33.5428828,45.24 L33.5428828,45.24 C30.5258395,45.24 28.08,47.6038816 28.08,50.5198265 L28.08,56.16 C32.6202534,55.9891138 36.5998733,53.7114713 39,50.3074128 C38.8848258,47.4899133 36.4863464,45.24 33.5428828,45.24 Z" id="Path" fill="#000000" opacity="0.15"></path>
                            <path d="M27.4290391,54.6 L10.9377168,54.6 C5.75863237,54.6 1.56,50.4279344 1.56,45.2816207 L1.56,45.2816207 C1.56,38.3661889 7.20175792,32.76 14.1613556,32.76 L32.6112427,32.76 C37.0013127,32.76 40.56,36.2962989 40.56,40.6584616 L40.56,41.5521252 C40.56,48.7582559 34.6810569,54.6 27.4290391,54.6 Z" id="Path" fill="#E8E8E8"></path>
                            <path d="M29.0224222,55.9668061 L29.0224222,32.76 L23.2699301,32.76 C20.7569769,32.76 18.72,34.786364 18.72,37.2859369 L18.72,60.1575695 C18.72,61.3960246 19.7292977,62.4 20.9743183,62.4 L30.9291754,62.4 C31.9492172,62.4 32.7678396,61.5695989 32.76,60.5549361 C32.7419502,58.3058099 31.1478113,56.4307439 29.0224222,55.9668061 Z" id="Path" fill="#4A5058"></path>
                            <path d="M32.7060984,32.76 L15.6,32.76 C18.9555747,40.9541198 27.730972,46.8 38.0283267,46.8 C38.5272134,46.8 39.0219908,46.7845587 39.5134295,46.757569 C40.1861881,45.1728283 40.56,43.4277062 40.56,41.5940888 L40.56,40.6961599 C40.56,36.3131771 37.04378,32.76 32.7060984,32.76 Z" id="Path" fill="#000000" opacity="0.1"></path>
                            <circle id="Oval" fill="#4A5058" cx="57.72" cy="7.8" r="7.8"></circle>
                            <circle id="Oval" fill="#EDBCB9" cx="57.72" cy="7.8" r="3.12"></circle>
                            <ellipse id="Oval" fill="#E8E8E8" cx="39.78" cy="24.18" rx="24.18" ry="21.06"></ellipse>
                            <path d="M47.4969108,29.5606271 C46.6813071,29.5606271 46.02,28.897781 46.02,28.08 C46.02,28.897656 45.3588176,29.5606271 44.5433385,29.5606271 C44.2206615,29.5606271 43.923036,29.4556713 43.68,29.2794954 L43.68,31.9741119 C43.68,33.2696918 44.7276719,34.32 46.02,34.32 C47.3124527,34.32 48.36,33.2696918 48.36,31.9741119 L48.36,29.2794954 C48.1172133,29.4556713 47.8195877,29.5606271 47.4969108,29.5606271 Z" id="Path" fill="#EDBCB9"></path>
                            <path d="M46.02,32.76 C45.1122298,32.76 44.2885024,32.9131221 43.68,33.1620076 C44.0573846,33.841084 44.9623265,34.32 46.02,34.32 C47.0776735,34.32 47.9826154,33.8411832 48.36,33.1620076 C47.7516323,32.9132214 46.9279049,32.76 46.02,32.76 Z" id="Path" fill="#D46D59"></path>
                            <g id="Group" transform="translate(14.040000, 0.000000)" fill="#4A5058">
                                <path d="M33.85681,29.5393475 C33.28078,29.5393475 32.74791,29.3605195 32.31631,29.058315 C31.88484,29.3605195 31.3521,29.5393475 30.77581,29.5393475 C29.34152,29.5393475 28.17477,28.430935 28.17477,27.068236 C28.17477,26.5116215 28.64953,26.0605995 29.23544,26.0605995 C29.82122,26.0605995 30.29611,26.5116215 30.29611,27.068236 C30.29611,27.319435 30.51126,27.523951 30.77568,27.523951 C31.0401,27.523951 31.25538,27.3195585 31.25538,27.068236 C31.25538,26.5116215 31.73014,26.0605995 32.31605,26.0605995 C32.90196,26.0605995 33.37672,26.5116215 33.37672,27.068236 C33.37672,27.319435 33.59187,27.523951 33.85642,27.523951 C34.12084,27.523951 34.33612,27.3195585 34.33612,27.068236 C34.33612,26.5116215 34.81088,26.0605995 35.39679,26.0605995 C35.9827,26.0605995 36.4574601,26.5116215 36.4574601,27.068236 C36.45785,28.430935 35.2911,29.5393475 33.85681,29.5393475 Z" id="Path"></path>
                                <path d="M35.43033,22.5134325 L34.70571,23.3334725 C33.45914,24.7438425 31.17465,24.7438425 29.92808,23.3334725 L29.20346,22.5134325 C28.8301,22.0910625 29.14613,21.4466395 29.72684,21.4466395 L34.90708,21.4466395 C35.48753,21.4466395 35.80369,22.0910625 35.43033,22.5134325 Z" id="Path"></path>
                                <path d="M13.598,2.2700535 C10.49438,-0.6783855 5.46234,-0.6783855 2.35846,2.2700535 C-0.74516,5.2184925 -0.74516,9.999054 2.35846,12.9476165 C5.46208,15.896179 9.24989,14.714037 12.35351,11.765351 C15.45739,8.816912 16.70175,5.2184925 13.598,2.2700535 Z" id="Path"></path>
                            </g>
                            <circle id="Oval" fill="#EDBCB9" cx="21.84" cy="7.8" r="3.12"></circle>
                            <g id="Group" transform="translate(23.400000, 17.160000)" fill="#4A5058">
                                <path d="M1.58808,4.8569625 C-0.42237,6.79561071 -0.4225,9.93881571 1.58808,11.8775893 C3.59853,13.8162375 6.85815,13.8162375 8.86873,11.8775893 L12.27161,8.59624071 C14.28206,6.6575925 14.28206,3.5143875 12.27161,1.57561393 C10.26103,-0.363159643 7.00154,-0.363034286 4.99109,1.57561393 L1.58808,4.8569625 Z" id="Path"></path>
                                <path d="M40.14933,2.86967571 L38.80734,1.57561393 C36.79689,-0.363034286 33.53727,-0.363034286 31.52682,1.57561393 C29.51637,3.51426214 29.51637,6.65746714 31.52682,8.59624071 L34.9297,11.8775893 C35.9866,12.8967429 37.38878,13.3792425 38.77302,13.3268432 C39.8229,11.0074854 40.3997101,8.48642786 40.3997101,5.84966571 C40.39984,4.83753214 40.31326,3.84282321 40.14933,2.86967571 Z" id="Path"></path>
                            </g>
                            <g id="Group" transform="translate(31.200000, 20.280000)" fill="#FFFFFF">
                                <path d="M1.07266138,4.38589125 C0.496853276,4.38589125 0.0302787931,3.85178625 0.0302787931,3.1926375 L0.0302787931,1.41555375 C0.0302787931,0.756405 0.496853276,0.2223 1.07266138,0.2223 C1.64846948,0.2223 2.11504397,0.756405 2.11504397,1.41555375 L2.11504397,3.1926375 C2.11504397,3.85164 1.64834172,4.38589125 1.07266138,4.38589125 Z" id="Path"></path>
                                <path d="M28.4899169,3.975075 C27.9141088,3.975075 27.4475343,3.44097 27.4475343,2.78182125 C27.4475343,2.59432875 27.3144098,2.44193625 27.1506233,2.44193625 C26.9870922,2.44193625 26.85384,2.59432875 26.85384,2.78182125 C26.85384,3.44097 26.3871378,3.975075 25.8114574,3.975075 C25.2356493,3.975075 24.7690748,3.44097 24.7690748,2.78182125 C24.7690748,1.2785175 25.8373924,0.0552825 27.1506233,0.0552825 C28.4638541,0.0552825 29.5322995,1.2785175 29.5322995,2.78182125 C29.5322995,3.44082375 29.065725,3.975075 28.4899169,3.975075 Z" id="Path"></path>
                            </g>
                            <path d="M11.8628176,56.4032406 L11.8628176,51.5763553 C11.8628176,48.9384677 9.55643113,46.8 6.71140881,46.8 C3.8663865,46.8 1.56,48.9384677 1.56,51.5763553 L1.56,60.309782 C1.56,61.4641728 2.56931108,62.4 3.81434815,62.4 L13.7830588,62.4 C14.7865447,62.4 15.6,61.6457692 15.6,60.7153431 C15.6002589,58.6029206 14.0001442,56.8382076 11.8628176,56.4032406 Z" id="Path" fill="#4A5058"></path>
                        </g>
                    </g>
                    <g id="Button-/-16pt-padding" transform="translate(58.000000, 418.000000)">
                        <g id="Container-/-Radius-/-4pt-/-All-side-">
                            <mask id="mask-2" fill="white">
                                <use xlink:href="#path-1"></use>
                            </mask>
                            <use id="Back-layer---Style-ðŸŒˆ" fill="#F7926F" fill-rule="evenodd" xlink:href="#path-1"></use>
                            <path d="M5.1277704,-2.07168062e-16 L144.87223,2.07168062e-16 C146.655267,-1.2037061e-16 147.30184,0.185651222 147.953691,0.534265408 C148.605543,0.882879593 149.11712,1.39445674 149.465735,2.04630859 C149.814349,2.69816044 150,3.34473292 150,5.1277704 L150,34.8722296 C150,36.6552671 149.814349,37.3018396 149.465735,37.9536914 C149.11712,38.6055433 148.605543,39.1171204 147.953691,39.4657346 C147.30184,39.8143488 146.655267,40 144.87223,40 L5.1277704,40 C3.34473292,40 2.69816044,39.8143488 2.04630859,39.4657346 C1.39445674,39.1171204 0.882879593,38.6055433 0.534265408,37.9536914 C0.185651222,37.3018396 8.02470732e-17,36.6552671 -1.38112041e-16,34.8722296 L1.38112041e-16,5.1277704 C-8.02470732e-17,3.34473292 0.185651222,2.69816044 0.534265408,2.04630859 C0.882879593,1.39445674 1.39445674,0.882879593 2.04630859,0.534265408 C2.69816044,0.185651222 3.34473292,1.2037061e-16 5.1277704,-2.07168062e-16 Z" id="Front-layer---Style-ðŸŒˆ" mask="url(#mask-2)"></path>
                            <path d="M5.1277704,-2.07168062e-16 L144.87223,2.07168062e-16 C146.655267,-1.2037061e-16 147.30184,0.185651222 147.953691,0.534265408 C148.605543,0.882879593 149.11712,1.39445674 149.465735,2.04630859 C149.814349,2.69816044 150,3.34473292 150,5.1277704 L150,34.8722296 C150,36.6552671 149.814349,37.3018396 149.465735,37.9536914 C149.11712,38.6055433 148.605543,39.1171204 147.953691,39.4657346 C147.30184,39.8143488 146.655267,40 144.87223,40 L5.1277704,40 C3.34473292,40 2.69816044,39.8143488 2.04630859,39.4657346 C1.39445674,39.1171204 0.882879593,38.6055433 0.534265408,37.9536914 C0.185651222,37.3018396 8.02470732e-17,36.6552671 -1.38112041e-16,34.8722296 L1.38112041e-16,5.1277704 C-8.02470732e-17,3.34473292 0.185651222,2.69816044 0.534265408,2.04630859 C0.882879593,1.39445674 1.39445674,0.882879593 2.04630859,0.534265408 C2.69816044,0.185651222 3.34473292,1.2037061e-16 5.1277704,-2.07168062e-16 Z" id="âš ï¸-State" mask="url(#mask-2)"></path>
                        </g>
                        <g id="UI-Misc-/-Button-/-â– -Medium-/-Default" transform="translate(16.000000, 4.000000)" fill="#FFFFFF" font-family="Inter-Medium, Inter" font-size="14" font-weight="400" line-spacing="24">
                            <text id="ðŸ–-Text-Value-">
                                <tspan x="33.9158381" y="20">Sign up</tspan>
                            </text>
                        </g>
                    </g>
                    <text id="Child-care-that-fits" font-family="Inter-Medium, Inter" font-size="24" font-weight="400" line-spacing="36" fill="#0A1F44">
                        <tspan x="49.1590909" y="256">Child care that </tspan>
                        <tspan x="37.6789773" y="292">fits your lifestyle</tspan>
                    </text>
                </g>
            </g>
        </g>
    </g>
</svg>