<?xml version="1.0" encoding="UTF-8"?>
<svg width="108px" height="40px" viewBox="0 0 108 40" version="1.1" xmlns="http://www.w3.org/2000/svg" xmlns:xlink="http://www.w3.org/1999/xlink">
    <!-- Generator: Sketch 57.1 (83088) - https://sketch.com -->
    <title>logo</title>
    <desc>Created with Sketch.</desc>
    <g id="nanny-scheduler" stroke="none" stroke-width="1" fill="none" fill-rule="evenodd">
        <g id="nanny-main-landing-page" transform="translate(-24.000000, -24.000000)">
            <g id="navigation" transform="translate(24.000000, 24.000000)">
                <g id="logo">
                    <text id="nanda" font-family="Inter-Medium, Inter" font-size="20" font-weight="400" line-spacing="32" fill="#0A1F44">
                        <tspan x="50" y="24">nanda</tspan>
                    </text>
                    <g id="logo-panda" fill-rule="nonzero">
                        <circle id="Oval" fill="#4A5058" cx="3" cy="23" r="3"></circle>
                        <path d="M5.62931387,21 C3.68005729,21.5453702 2.03856909,22.7266193 1,24.2767816 C1.53104965,24.725228 2.24300914,25 3.02598554,25 C4.66849679,25 6,23.7928582 6,22.3037564 C6,21.8307312 5.86521279,21.3863812 5.62931387,21 Z" id="Path" fill="#000000" opacity="0.15"></path>
                        <path d="M24.6043703,36.1559235 L24.6043703,33.0617662 C24.6043703,31.3708126 23.1259174,30 21.3021851,30 L21.3021851,30 C19.4784529,30 18,31.3708126 18,33.0617662 L18,38.6601166 C18,39.4001108 18.6469943,40 19.445095,40 L25.8352941,40 C26.4784713,40 27,39.5165187 27,38.9200917 C27.000166,37.5660517 25.9744514,36.4347485 24.6043703,36.1559235 Z" id="Path" fill="#4A5058"></path>
                        <path d="M24.6043703,36.1559235 L24.6043703,33.0617662 C24.6043703,31.3708126 23.1259174,30 21.3021851,30 L21.3021851,30 C19.4784529,30 18,31.3708126 18,33.0617662 L18,38.6601166 C18,39.4001108 18.6469943,40 19.445095,40 L25.8352941,40 C26.4784713,40 27,39.5165187 27,38.9200917 C27.000166,37.5660517 25.9744514,36.4347485 24.6043703,36.1559235 Z" id="Path" fill="#000000" opacity="0.2"></path>
                        <path d="M21.5018479,29 L21.5018479,29 C19.5678458,29 18,30.5153087 18,32.3845042 L18,36 C20.9104189,35.8904576 23.4614572,34.4304303 25,32.2483416 C24.9261704,30.4422521 23.3886836,29 21.5018479,29 Z" id="Path" fill="#000000" opacity="0.15"></path>
                        <path d="M17.5827174,35 L7.0113569,35 C3.69143101,35 1,32.325599 1,29.0266799 L1,29.0266799 C1,24.5937108 4.61651149,21 9.07779207,21 L20.9046427,21 C23.7187902,21 26,23.2668583 26,26.0631164 L26,26.6359777 C26,31.2552922 22.2314467,35 17.5827174,35 Z" id="Path" fill="#E8E8E8"></path>
                        <path d="M18.6041168,35.8761577 L18.6041168,21 L14.9166219,21 C13.3057544,21 12,22.2989513 12,23.9012416 L12,38.5625445 C12,39.3564261 12.6469857,40 13.4450758,40 L19.8263945,40 C20.4802675,40 21.0050254,39.4676916 21,38.8172668 C20.9884296,37.3755191 19.9665457,36.1735538 18.6041168,35.8761577 Z" id="Path" fill="#4A5058"></path>
                        <path d="M20.9654477,21 L10,21 C12.1510094,26.2526409 17.7762641,30 24.3771325,30 C24.6969317,30 25.0140967,29.9901018 25.3291215,29.9728006 C25.760377,28.9569412 26,27.8382732 26,26.6628774 L26,26.087282 C26,23.2776777 23.7460128,21 20.9654477,21 Z" id="Path" fill="#000000" opacity="0.1"></path>
                        <circle id="Oval" fill="#4A5058" cx="37" cy="5" r="5"></circle>
                        <circle id="Oval" fill="#EDBCB9" cx="37" cy="5" r="2"></circle>
                        <ellipse id="Oval" fill="#E8E8E8" cx="25.5" cy="15.5" rx="15.5" ry="13.5"></ellipse>
                        <path d="M30.4467377,18.94912 C29.9239148,18.94912 29.5,18.5242186 29.5,18 C29.5,18.5241385 29.0761651,18.94912 28.5534221,18.94912 C28.3465779,18.94912 28.1557923,18.8818406 28,18.7689073 L28,20.4962255 C28,21.3267255 28.6715846,22 29.5,22 C30.3284953,22 31,21.3267255 31,20.4962255 L31,18.7689073 C30.8443675,18.8818406 30.6535819,18.94912 30.4467377,18.94912 Z" id="Path" fill="#EDBCB9"></path>
                        <path d="M29.5,21 C28.918096,21 28.3900656,21.0981552 28,21.2576972 C28.2419132,21.6930025 28.8220041,22 29.5,22 C30.1779959,22 30.7580868,21.6930662 31,21.2576972 C30.6100207,21.0982188 30.0819903,21 29.5,21 Z" id="Path" fill="#D46D59"></path>
                        <g id="Group" transform="translate(9.000000, 0.000000)" fill="#4A5058">
                            <path d="M21.7030833,18.9354792 C21.3338333,18.9354792 20.99225,18.8208458 20.7155833,18.627125 C20.439,18.8208458 20.0975,18.9354792 19.7280833,18.9354792 C18.8086667,18.9354792 18.06075,18.2249583 18.06075,17.3514333 C18.06075,16.9946292 18.3650833,16.7055125 18.7406667,16.7055125 C19.1161667,16.7055125 19.4205833,16.9946292 19.4205833,17.3514333 C19.4205833,17.5124583 19.5585,17.6435583 19.728,17.6435583 C19.8975,17.6435583 20.0355,17.5125375 20.0355,17.3514333 C20.0355,16.9946292 20.3398333,16.7055125 20.7154167,16.7055125 C21.091,16.7055125 21.3953333,16.9946292 21.3953333,17.3514333 C21.3953333,17.5124583 21.53325,17.6435583 21.7028333,17.6435583 C21.8723333,17.6435583 22.0103333,17.5125375 22.0103333,17.3514333 C22.0103333,16.9946292 22.3146667,16.7055125 22.69025,16.7055125 C23.0658333,16.7055125 23.3701667,16.9946292 23.3701667,17.3514333 C23.3704167,18.2249583 22.6225,18.9354792 21.7030833,18.9354792 Z" id="Path"></path>
                            <path d="M22.71175,14.4316875 L22.24725,14.9573542 C21.4481667,15.8614375 19.98375,15.8614375 19.1846667,14.9573542 L18.7201667,14.4316875 C18.4808333,14.1609375 18.6834167,13.7478458 19.0556667,13.7478458 L22.3763333,13.7478458 C22.7484167,13.7478458 22.9510833,14.1609375 22.71175,14.4316875 Z" id="Path"></path>
                            <path d="M8.71666667,1.4551625 C6.72716667,-0.4348625 3.5015,-0.4348625 1.51183333,1.4551625 C-0.477666667,3.3451875 -0.477666667,6.40965 1.51183333,8.29975417 C3.50133333,10.1898583 5.92941667,9.432075 7.91891667,7.54189167 C9.90858333,5.65186667 10.70625,3.3451875 8.71666667,1.4551625 Z" id="Path"></path>
                        </g>
                        <circle id="Oval" fill="#EDBCB9" cx="14" cy="5" r="2"></circle>
                        <g id="Group" transform="translate(15.000000, 11.000000)" fill="#4A5058">
                            <path d="M1.018,3.1134375 C-0.27075,4.35616071 -0.270833333,6.37103571 1.018,7.61383929 C2.30675,8.8565625 4.39625,8.8565625 5.68508333,7.61383929 L7.86641667,5.51041071 C9.15516667,4.2676875 9.15516667,2.2528125 7.86641667,1.01000893 C6.57758333,-0.232794643 4.48816667,-0.232714286 3.19941667,1.01000893 L1.018,3.1134375 Z" id="Path"></path>
                            <path d="M25.73675,1.83953571 L24.8765,1.01000893 C23.58775,-0.232714286 21.49825,-0.232714286 20.2095,1.01000893 C18.92075,2.25273214 18.92075,4.26760714 20.2095,5.51041071 L22.3908333,7.61383929 C23.0683333,8.26714286 23.9671667,8.5764375 24.8545,8.54284821 C25.5275,7.05608036 25.8972501,5.44001786 25.8972501,3.74978571 C25.8973333,3.10098214 25.8418333,2.46334821 25.73675,1.83953571 Z" id="Path"></path>
                        </g>
                        <g id="Group" transform="translate(20.000000, 13.000000)" fill="#FFFFFF">
                            <path d="M0.687603448,2.81146875 C0.31849569,2.81146875 0.0194094828,2.46909375 0.0194094828,2.0465625 L0.0194094828,0.90740625 C0.0194094828,0.484875 0.31849569,0.1425 0.687603448,0.1425 C1.05671121,0.1425 1.35579741,0.484875 1.35579741,0.90740625 L1.35579741,2.0465625 C1.35579741,2.469 1.05662931,2.81146875 0.687603448,2.81146875 Z" id="Path"></path>
                            <path d="M18.2627672,2.548125 C17.8936595,2.548125 17.5945733,2.20575 17.5945733,1.78321875 C17.5945733,1.66303125 17.5092371,1.56534375 17.4042457,1.56534375 C17.2994181,1.56534375 17.214,1.66303125 17.214,1.78321875 C17.214,2.20575 16.9148319,2.548125 16.545806,2.548125 C16.1766983,2.548125 15.8776121,2.20575 15.8776121,1.78321875 C15.8776121,0.8195625 16.562431,0.0354375 17.4042457,0.0354375 C18.2460603,0.0354375 18.9309612,0.8195625 18.9309612,1.78321875 C18.9309612,2.20565625 18.631875,2.548125 18.2627672,2.548125 Z" id="Path"></path>
                        </g>
                        <path d="M7.60437027,36.1559235 L7.60437027,33.0617662 C7.60437027,31.3708126 6.12591739,30 4.30218514,30 C2.47845289,30 1,31.3708126 1,33.0617662 L1,38.6601166 C1,39.4001108 1.64699428,40 2.44509497,40 L8.83529412,40 C9.47855431,40 10,39.5165187 10,38.9200917 C10.000166,37.5659747 8.97445141,36.4347485 7.60437027,36.1559235 Z" id="Path" fill="#4A5058"></path>
                    </g>
                </g>
            </g>
        </g>
    </g>
</svg>