<?xml version="1.0" encoding="UTF-8"?>
<svg width="243px" height="232px" viewBox="0 0 243 232" version="1.1" xmlns="http://www.w3.org/2000/svg" xmlns:xlink="http://www.w3.org/1999/xlink">
    <!-- Generator: Sketch 57.1 (83088) - https://sketch.com -->
    <title>parent-vector</title>
    <desc>Created with Sketch.</desc>
    <g id="nanny-scheduler" stroke="none" stroke-width="1" fill="none" fill-rule="evenodd">
        <g id="nanny-main-landing-page" transform="translate(-153.000000, -974.000000)">
            <g id="explainer-section" transform="translate(81.000000, 665.000000)">
                <g id="parent-vector">
                    <g transform="translate(72.000000, 309.000000)">
                        <path d="M66.893769,230.566447 C66.690378,219.845773 57.951126,211.215871 47.184525,211.215871 C36.415737,211.215871 27.678672,219.845773 27.470907,230.566447 L66.893769,230.566447" id="Fill-461" fill="#A9A839"></path>
                        <polyline id="Fill-504" fill="#793C33" points="16.662753 230.566447 21.218274 230.566447 21.218274 209.993338 18.628866 147.259243 16.662753 209.993338 16.662753 230.566447"></polyline>
                        <path d="M2.84217094e-14,164.562787 C2.84217094e-14,190.93582 8.341218,212.311558 18.628866,212.311558 C28.918701,212.311558 37.257732,190.93582 37.257732,164.562787 C37.257732,138.189754 28.918701,116.814016 18.628866,116.814016 C8.341218,116.814016 2.84217094e-14,138.189754 2.84217094e-14,164.562787" id="Fill-505" fill="#A9A839"></path>
                        <path d="M215.008344,168.80338 L151.460685,168.80338 C150.253461,168.80338 149.273685,167.821417 149.273685,166.61638 C149.273685,165.406969 150.253461,164.42938 151.460685,164.42938 L215.008344,164.42938 C216.217755,164.42938 217.195344,165.406969 217.195344,166.61638 C217.195344,167.821417 216.217755,168.80338 215.008344,168.80338" id="Fill-508" fill="#682F2B"></path>
                        <path d="M186.365205,182.430577 C186.365205,182.430577 177.090138,191.954962 159.780033,191.954962 C142.472115,191.954962 135.24408,191.954962 135.24408,191.954962 C135.24408,191.954962 134.47863,199.646641 135.24408,205.442191 C136.145124,212.263444 142.273098,215.47396 160.936956,215.47396 C188.075439,215.47396 199.334115,209.007001 199.334115,209.007001 L196.788447,191.954962 L186.365205,182.430577" id="Fill-509" fill="#E5724F"></path>
                        <path d="M185.149233,132.352651 L124.700553,132.352651 C129.328245,146.23354 135.06912,164.42938 151.460685,164.42938 L215.008344,164.42938 C231.399909,164.42938 237.140784,146.23354 241.768476,132.352651 L185.149233,132.352651" id="Fill-510" fill="#E5724F"></path>
                        <polyline id="Fill-511" fill="#DF5737" points="232.340319 154.286074 134.137458 154.286074 130.358322 147.502 236.112894 147.502 232.340319 154.286074"></polyline>
                        <polyline id="Fill-512" fill="#E5724F" points="190.319301 135.270109 190.319301 73.9116367 232.45623 80.2954897 241.768476 132.352651 190.319301 135.270109"></polyline>
                        <polyline id="Fill-513" fill="#DF5737" points="195.25536 72.4113547 180.897705 70.4539897 186.618897 132.352651 195.25536 132.352651 195.25536 72.4113547"></polyline>
                        <polyline id="Fill-514" fill="#DF5737" points="232.45623 80.2954897 206.273466 123.027283 234.398286 91.1561317 232.45623 80.2954897"></polyline>
                        <polyline id="Fill-515" fill="#DF5737" points="205.626114 132.352651 240.320682 124.249816 241.768476 132.352651 205.626114 132.352651"></polyline>
                        <path d="M241.547589,130.583368 L124.044453,130.583368 C123.353361,130.583368 122.789115,131.147614 122.789115,131.836519 C122.789115,132.527611 123.353361,133.091857 124.044453,133.091857 L241.547589,133.091857 C242.236494,133.091857 242.80074,132.527611 242.80074,131.836519 C242.80074,131.147614 242.236494,130.583368 241.547589,130.583368" id="Fill-516" fill="#DF5737"></path>
                        <polyline id="Fill-519" fill="#793C33" points="216.924156 207.211474 122.861286 125.402365 124.750854 123.230674 218.813724 205.039783 216.924156 207.211474"></polyline>
                        <path d="M153.466164,215.47396 C153.466164,224.480026 146.168145,231.778045 137.162079,231.778045 C128.1582,231.778045 120.857994,224.480026 120.857994,215.47396 C120.857994,206.470081 128.1582,199.169875 137.162079,199.169875 C146.168145,199.169875 153.466164,206.470081 153.466164,215.47396" id="Fill-520" fill="#682F2B"></path>
                        <path d="M231.098103,220.342222 C231.098103,226.601416 226.022076,231.677443 219.762882,231.677443 C213.503688,231.677443 208.429848,226.601416 208.429848,220.342222 C208.429848,214.083028 213.503688,209.007001 219.762882,209.007001 C226.022076,209.007001 231.098103,214.083028 231.098103,220.342222" id="Fill-521" fill="#682F2B"></path>
                        <path d="M227.482992,220.342222 C227.482992,224.604685 224.027532,228.060145 219.762882,228.060145 C215.500419,228.060145 212.042772,224.604685 212.042772,220.342222 C212.042772,216.079759 215.500419,212.622112 219.762882,212.622112 C224.027532,212.622112 227.482992,216.079759 227.482992,220.342222" id="Fill-522" fill="#793C33"></path>
                        <path d="M147.379743,215.47396 C147.379743,221.11642 142.806726,225.691624 137.162079,225.691624 C131.519619,225.691624 126.944415,221.11642 126.944415,215.47396 C126.944415,209.8315 131.519619,205.258483 137.162079,205.258483 C142.806726,205.258483 147.379743,209.8315 147.379743,215.47396" id="Fill-523" fill="#793C33"></path>
                        <path d="M142.273098,215.47396 C142.273098,218.29519 139.983309,220.582792 137.162079,220.582792 C134.340849,220.582792 132.053247,218.29519 132.053247,215.47396 C132.053247,212.65273 134.340849,210.365128 137.162079,210.365128 C139.983309,210.365128 142.273098,212.65273 142.273098,215.47396" id="Fill-524" fill="#E5724F"></path>
                        <path d="M213.221565,200.110285 L208.77102,204.681115 L216.077787,211.073716 C216.077787,211.073716 215.872209,214.857226 215.872209,219.889513 C215.872209,223.935463 217.610874,225.521038 220.071249,225.492607 C222.468201,225.466363 223.741035,223.823926 223.741035,219.683935 C223.741035,214.719445 223.695108,209.376604 223.695108,209.376604 L213.221565,200.110285" id="Fill-525" fill="#E5724F"></path>
                        <path d="M135.296568,194.139775 L135.189405,189.767962 C135.362178,189.763588 152.449209,189.345871 159.780033,189.345871 C173.792142,189.345871 184.91085,180.792514 185.0202,180.707221 L187.712397,184.153933 C187.211574,184.545406 175.281489,193.719871 159.780033,193.719871 C152.501697,193.719871 135.469341,194.135401 135.296568,194.139775" id="Fill-526" fill="#682F2B"></path>
                        <path d="M116.899524,116.492527 C113.982066,113.97529 110.489427,112.223503 106.723413,111.407752 C102.390966,110.469529 96.361407,109.096093 92.807532,108.761482 C86.97699,108.214732 85.492017,113.728159 92.398563,115.322482 C95.96556,116.146981 100.088055,117.013033 103.431978,117.69319 C107.68788,118.559242 111.639789,120.483802 114.955281,123.289723 L123.572061,130.583368 L127.373067,125.511715 L116.899524,116.492527" id="Fill-527" fill="#E5724F"></path>
                        <path d="M25.430436,180.182341 C27.954234,177.48577 19.302462,188.057728 15.153723,192.447037 C14.038353,193.62583 10.908756,196.243669 9.609678,197.339356 C6.687846,199.808479 3.67416,201.798649 11.333034,210.37825 C18.996282,218.955664 20.92959,221.761585 25.603209,222.496417 C30.281202,223.233436 28.461618,218.88568 25.734429,214.220809 C23.768316,210.857203 22.502043,206.765326 22.265847,203.878486 C22.139001,202.371643 22.114944,201.249712 24.616872,198.487531 C30.948237,191.495692 33.487344,189.717661 33.487344,189.717661 L25.430436,180.182341" id="Fill-528" fill="#F4C0AC"></path>
                        <path d="M9.609678,197.339356 C9.609678,197.339356 5.441256,199.163314 5.025726,201.21472 C4.610196,203.263939 9.450027,209.1754 13.9968,214.131142 C18.541386,219.086884 21.765024,221.260762 24.18822,223.034419 C28.336959,226.076536 28.986498,221.560381 28.610334,220.08853 C28.260414,218.712907 25.734429,214.220809 25.734429,214.220809 C25.734429,214.220809 24.942735,216.029458 21.349494,212.624299 C16.623387,208.14751 9.609678,197.339356 9.609678,197.339356" id="Fill-529" fill="#62619C"></path>
                        <path d="M45.703926,98.2770037 C45.703926,98.2770037 41.111226,116.86213 42.036327,146.375695 C34.322778,160.947676 19.884204,182.688643 15.153723,192.447037 C17.646903,197.816122 23.300298,200.110285 23.300298,200.110285 C23.300298,200.110285 55.611036,168.280687 60.433371,154.205155 C63.223983,146.054206 64.365597,113.371678 64.365597,113.371678 L45.703926,98.2770037" id="Fill-530" fill="#231F30"></path>
                        <path d="M76.125096,199.782235 C75.91077,196.092766 77.605695,209.649979 77.924997,215.679538 C78.01029,217.300105 77.74785,221.372299 77.649435,223.069411 C77.421987,226.885726 76.78557,230.443975 88.280442,230.807017 C99.775314,231.170059 103.141107,231.703687 106.898373,228.825595 C110.655639,225.945316 106.251021,224.267887 100.991286,223.025671 C97.201215,222.131188 93.36303,220.226311 91.108233,218.408914 C89.931627,217.461943 89.100567,216.705241 88.822818,212.989528 C88.122978,203.581054 88.586622,200.517067 88.586622,200.517067 L76.125096,199.782235" id="Fill-531" fill="#F4C0AC"></path>
                        <path d="M77.649435,223.069411 C77.649435,223.069411 76.094478,227.347183 77.295141,229.059604 C78.493617,230.774212 86.032206,230.842009 92.755044,230.962294 C99.480069,231.086953 106.517835,231.174433 109.258146,229.945339 C112.30245,228.578464 111.534813,226.061227 107.224236,224.985223 C105.846426,224.641864 100.991286,223.025671 100.991286,223.025671 C100.991286,223.025671 101.756736,224.847442 96.811929,225.101134 C90.312165,225.437932 77.649435,223.069411 77.649435,223.069411" id="Fill-532" fill="#62619C"></path>
                        <path d="M50.830254,87.3682477 C50.830254,87.3682477 41.896359,98.6575417 45.043452,114.78448 C48.481416,132.387643 59.716035,142.305688 64.687086,155.744803 C66.836907,171.981091 77.789403,213.65875 77.789403,213.65875 C77.789403,213.65875 80.254152,214.876909 88.859997,213.398497 C89.524845,211.248676 88.932168,164.344087 85.513887,148.785769 C82.718901,136.066177 71.16498,98.7078427 71.16498,98.7078427 L50.830254,87.3682477" id="Fill-533" fill="#42394B"></path>
                        <path d="M80.278209,50.4779317 C81.535734,45.6074827 82.139346,41.6818177 84.315411,36.9644587 C84.037662,34.1585377 78.204933,27.4838137 78.204933,27.4838137 L75.834225,33.5614867 C75.834225,33.5614867 74.799774,37.1809717 68.481531,43.6807357 C69.889959,47.1908707 77.043636,48.4812007 80.278209,50.4779317" id="Fill-534" fill="#EFA691"></path>
                        <path d="M76.69809,24.9293977 C76.840245,33.2728027 84.048597,39.9169087 87.816798,39.8534857 C91.423161,39.7922497 98.563716,32.9031997 98.421561,24.5597947 C98.279406,16.2185767 93.299607,9.53729169 87.300666,9.64008069 C81.301725,9.74068269 76.555935,16.5881797 76.69809,24.9293977" id="Fill-535" fill="#F4C0AC"></path>
                        <path d="M75.834225,33.5614867 C79.78176,29.4696097 77.881257,23.0857567 78.42582,21.6576457 C78.968196,20.2295347 80.376624,18.7686187 81.498555,19.1141647 C82.622673,19.4597107 83.976426,22.1956477 83.976426,22.1956477 C83.976426,22.1956477 86.799843,21.2967907 89.68887,19.2278887 C92.57571,17.1589867 97.332435,18.3443407 97.334622,18.3290317 C97.334622,18.3159097 102.119778,10.5586207 89.395812,6.14088069 C83.582766,4.12227969 78.963822,5.53945569 76.002624,9.07583469 C73.043613,12.6144007 72.074772,20.8200247 73.078605,24.0436627 C74.414862,28.3367437 75.462435,30.7336957 75.834225,33.5614867" id="Fill-536" fill="#42394B"></path>
                        <path d="M88.787826,16.6450417 L83.976426,22.1956477 C83.976426,22.1956477 98.172243,29.8501477 103.64193,22.1519077 C102.953025,15.9014617 97.424289,11.8008367 97.424289,11.8008367 L88.787826,16.6450417" id="Fill-537" fill="#42394B"></path>
                        <path d="M76.076982,15.5362327 C76.076982,15.5362327 79.643979,15.7527457 80.348193,11.0572567 C80.763723,8.28851469 77.621004,5.75815569 77.621004,5.75815569 L76.076982,15.5362327" id="Fill-538" fill="#62619C"></path>
                        <path d="M78.31647,7.21688469 C78.655455,4.27536969 75.372768,-1.80667731 68.645556,0.518103695 C58.707828,3.95606769 62.935299,17.2049137 60.009093,19.0879207 C55.52793,21.9703867 52.019982,18.5367967 52.019982,18.5367967 C52.019982,18.5367967 53.553069,27.5494237 63.718245,26.4012487 C73.96434,25.2421387 77.430735,14.9588647 78.31647,7.21688469" id="Fill-539" fill="#231F30"></path>
                        <path d="M84.820608,64.9471237 C82.605177,57.8765527 79.54119,48.1575247 79.54119,48.1575247 C79.54119,48.1575247 78.955074,46.1126797 75.619899,43.9081837 C73.115784,42.2526247 70.611669,41.0519617 70.611669,41.0519617 C70.611669,41.0519617 68.028822,43.0968067 64.833615,47.6610757 C62.653176,50.7731767 59.786019,55.7267317 56.816073,65.4370117 C51.451362,82.9898737 44.829126,94.6903237 44.829126,94.6903237 C44.829126,94.6903237 48.695742,99.2458447 59.877873,102.51541 C67.696398,104.805199 72.774612,105.470047 72.774612,105.470047 C72.774612,105.470047 77.02614,86.7974407 80.621568,80.6279137 C83.755539,75.2500807 86.401809,69.9990937 84.820608,64.9471237" id="Fill-540" fill="#62619C"></path>
                        <path d="M71.989479,84.9822307 C79.224075,100.28467 83.409993,99.4361137 89.100567,108.079138 C91.123542,111.151873 92.490417,111.862648 96.317667,110.994409 C100.772586,109.981828 102.756195,110.567944 106.723413,111.407752 C105.428709,102.473857 93.299607,103.624219 92.44449,101.660293 C90.508995,97.2228697 86.620509,89.5158817 83.829897,84.3764317 C83.228472,80.5426207 79.930476,64.6365697 80.17542,60.5009527 C80.580015,53.6359597 80.151363,47.9716297 75.022848,47.0093497 C71.632998,46.3729327 67.788252,47.1668137 67.3596,54.4670197 C67.018428,60.2057077 68.446539,77.4917557 71.989479,84.9822307" id="Fill-541" fill="#F4C0AC"></path>
                    </g>
                </g>
            </g>
        </g>
    </g>
</svg>