<?xml version="1.0" encoding="UTF-8"?>
<svg width="26px" height="21px" viewBox="0 0 26 21" version="1.1" xmlns="http://www.w3.org/2000/svg" xmlns:xlink="http://www.w3.org/1999/xlink">
    <!-- Generator: Sketch 57.1 (83088) - https://sketch.com -->
    <title>references-icon</title>
    <desc>Created with Sketch.</desc>
    <defs>
        <linearGradient x1="50%" y1="2.69598988%" x2="50%" y2="100%" id="linearGradient-1">
            <stop stop-color="#FF6B8E" offset="0%"></stop>
            <stop stop-color="#F14043" offset="100%"></stop>
        </linearGradient>
    </defs>
    <g id="nanny-scheduler" stroke="none" stroke-width="1" fill="none" fill-rule="evenodd">
        <g id="nanny-main-landing-page" transform="translate(-80.000000, -2612.000000)" fill="url(#linearGradient-1)">
            <g id="trusted-verified-section" transform="translate(78.000000, 2209.000000)">
                <g id="references" transform="translate(0.000000, 398.000000)">
                    <g id="Icon-/-Heart-Solid">
                        <path d="M25.5722664,6.92773364 C24.3385697,5.69345771 22.6649702,5 20.91985,5 C19.1747298,5 17.5011303,5.69345771 16.2674337,6.92773364 L14.9996801,8.19548719 L13.7319266,6.92773364 C11.162468,4.35827511 6.99655252,4.35827514 4.42709395,6.92773371 C1.85763538,9.49719228 1.85763535,13.6631077 4.42709388,16.2325663 L5.69484743,17.5003199 L14.9932501,25.3071014 C14.9969684,25.3102233 15.0023918,25.3102233 15.0061102,25.3071014 L24.3045128,17.5003199 L24.3045128,17.5003199 L25.5722664,16.2325663 C26.8065423,14.9988697 27.5,13.3252702 27.5,11.58015 C27.5,9.83502978 26.8065423,8.16143031 25.5722664,6.92773364 Z" id="🎨-Icon-Color"></path>
                    </g>
                </g>
            </g>
        </g>
    </g>
</svg>