<?xml version="1.0" encoding="UTF-8"?>
<svg width="56px" height="56px" viewBox="0 0 56 56" version="1.1" xmlns="http://www.w3.org/2000/svg" xmlns:xlink="http://www.w3.org/1999/xlink">
    <!-- Generator: Sketch 57.1 (83088) - https://sketch.com -->
    <title>stepper-two</title>
    <desc>Created with Sketch.</desc>
    <defs>
        <path d="M28,0 C43.463973,-2.84068575e-15 56,12.536027 56,28 C56,43.463973 43.463973,56 28,56 C12.536027,56 1.8937905e-15,43.463973 0,28 C-1.8937905e-15,12.536027 12.536027,2.84068575e-15 28,0 Z" id="path-1"></path>
    </defs>
    <g id="nanny-scheduler" stroke="none" stroke-width="1" fill="none" fill-rule="evenodd">
        <g id="nanny-main-landing-page" transform="translate(-455.000000, -1712.000000)">
            <g id="how-it-works-section" transform="translate(0.000000, 1392.000000)">
                <g id="explanation-three-steps" transform="translate(419.000000, 65.000000)">
                    <g id="stepper-two" transform="translate(36.000000, 245.000000)">
                        <g transform="translate(0.000000, 10.000000)">
                            <g id="Container-/-Radius-/-Rounded-/-All-side-">
                                <mask id="mask-2" fill="white">
                                    <use xlink:href="#path-1"></use>
                                </mask>
                                <g id="Back-layer---Style-ðŸŒˆ"></g>
                                <path d="M28,1 C13.0883118,1 1,13.0883118 1,28 C1,42.9116882 13.0883118,55 28,55 C42.9116882,55 55,42.9116882 55,28 C55,13.0883118 42.9116882,1 28,1 Z" id="Front-layer---Style-ðŸŒˆ" stroke="#F1F2F4" stroke-width="2" mask="url(#mask-2)"></path>
                                <path d="M28,0 C43.463973,-2.84068575e-15 56,12.536027 56,28 C56,43.463973 43.463973,56 28,56 C12.536027,56 1.8937905e-15,43.463973 0,28 C-1.8937905e-15,12.536027 12.536027,2.84068575e-15 28,0 Z" id="âš ï¸-State" mask="url(#mask-2)"></path>
                            </g>
                            <text id="2" font-family="Inter-Medium, Inter" font-size="24" font-weight="400" line-spacing="36" fill="#FFFFFF">
                                <tspan x="20.140625" y="38">2</tspan>
                            </text>
                        </g>
                    </g>
                </g>
            </g>
        </g>
    </g>
</svg>