<?xml version="1.0" encoding="UTF-8"?>
<svg width="28px" height="26px" viewBox="0 0 28 26" version="1.1" xmlns="http://www.w3.org/2000/svg" xmlns:xlink="http://www.w3.org/1999/xlink">
    <!-- Generator: Sketch 57.1 (83088) - https://sketch.com -->
    <title>verified-icon</title>
    <desc>Created with Sketch.</desc>
    <g id="nanny-scheduler" stroke="none" stroke-width="1" fill="none" fill-rule="evenodd">
        <g id="nanny-main-landing-page" transform="translate(-710.000000, -2394.000000)" fill="#F7AF22">
            <g id="trusted-verified-section" transform="translate(78.000000, 2209.000000)">
                <g id="verified" transform="translate(631.000000, 183.000000)">
                    <g id="Icon-/-Alert-Solid">
                        <path d="M15.9577043,2.42086355 C16.2948373,2.6047543 16.5719004,2.8818174 16.7557911,3.21895043 L28.3867068,24.5422957 C28.9156322,25.5119924 28.5583166,26.7268657 27.5886199,27.2557911 C27.2948427,27.4160333 26.9655536,27.5 26.6309156,27.5 L3.36908438,27.5 C2.26451488,27.5 1.36908438,26.6045695 1.36908438,25.5 C1.36908438,25.165362 1.45305112,24.8360729 1.61329323,24.5422957 L13.2442089,3.21895043 C13.7731343,2.24925376 14.9880076,1.89193809 15.9577043,2.42086355 Z M15.3690476,20.625 L14.8690476,20.625 C14.3562118,20.625 13.9335405,21.0110402 13.8757754,21.5083789 L13.8690476,21.625 L13.8690476,22.125 C13.8690476,22.6378358 14.2550878,23.0605072 14.7524265,23.1182723 L14.8690476,23.125 L15.3690476,23.125 C15.8818835,23.125 16.3045548,22.7389598 16.3623199,22.2416211 L16.3690476,22.125 L16.3690476,21.625 C16.3690476,21.0727153 15.9213324,20.625 15.3690476,20.625 Z M15.1190476,11.25 C14.4286917,11.25 13.8690476,11.8096441 13.8690476,12.5 L13.8690476,12.5 L13.8690476,17.5 C13.8690476,18.1903559 14.4286917,18.75 15.1190476,18.75 C15.8094036,18.75 16.3690476,18.1903559 16.3690476,17.5 L16.3690476,17.5 L16.3690476,12.5 C16.3690476,11.8096441 15.8094036,11.25 15.1190476,11.25 Z" id="🎨-Icon-Color"></path>
                    </g>
                </g>
            </g>
        </g>
    </g>
</svg>